<svg fill="none" height="577" viewBox="0 0 972 577" width="972" xmlns="http://www.w3.org/2000/svg" xmlns:xlink="http://www.w3.org/1999/xlink"><filter id="a" color-interpolation-filters="sRGB" filterUnits="userSpaceOnUse" height="857.202" width="1283.03" x="-131.862" y="-118.061"><feFlood flood-opacity="0" result="BackgroundImageFix"/><feColorMatrix in="SourceAlpha" type="matrix" values="0 0 0 0 0 0 0 0 0 0 0 0 0 0 0 0 0 0 127 0"/><feMorphology in="SourceAlpha" operator="erode" radius="10" result="effect1_dropShadow"/><feOffset dy="25"/><feGaussianBlur stdDeviation="25"/><feColorMatrix type="matrix" values="0 0 0 0 0.521719 0 0 0 0 0.7875 0 0 0 0 0.576083 0 0 0 1 0"/><feBlend in2="BackgroundImageFix" mode="normal" result="effect1_dropShadow"/><feBlend in="SourceGraphic" in2="effect1_dropShadow" mode="normal" result="shape"/></filter><mask id="b" height="577" maskUnits="userSpaceOnUse" width="972" x="0" y="0"><path d="m0 0h972v577h-972z" fill="#ead9cc"/></mask><path d="m0 0h972v577h-972z" fill="#bfebc8"/><g mask="url(#b)"><g filter="url(#a)"><rect fill="#fff" height="561.975" rx="24" transform="matrix(.902633 -.430411 .707207 .707006 -102.976 284.252)" width="917.128"/></g><rect fill="#fbf2eb" height="353.836" rx="8" transform="matrix(.902633 -.430411 .707207 .707006 52.5079 389.101)" width="326.933"/><rect fill="#fbf2eb" height="270.581" rx="8" transform="matrix(.902633 -.430411 .707207 .707006 287.731 136.302)" width="475.094"/><rect fill="#fff" height="132.229" rx="8" transform="matrix(.902633 -.430411 .707207 .707006 220.17 517.549)" width="269.383"/><rect fill="#fff" height="102.845" rx="8" transform="matrix(.902633 -.430411 .707207 .707006 417.295 226.662)" width="269.383"/><rect fill="#fbf2eb" height="96.7234" rx="8" transform="matrix(.902633 -.430411 .707207 .707006 -42.7374 293.883)" width="326.933"/><path clip-rule="evenodd" d="m181.269 444.388c-1.562-1.562-1.212-3.599.782-4.55l59.094-28.178c1.994-.951 4.877-.456 6.439 1.106l3.001 3c1.562 1.562 1.212 3.599-.782 4.55l-59.093 28.178c-1.995.951-4.878.456-6.44-1.106z" fill="#ead6c7" fill-rule="evenodd"/><path clip-rule="evenodd" d="m198.587 461.7c-1.563-1.562-1.213-3.599.781-4.55l59.094-28.178c1.994-.951 4.877-.455 6.439 1.107l3.001 3c1.563 1.562 1.213 3.599-.781 4.549l-59.094 28.179c-1.994.95-4.877.455-6.439-1.107z" fill="#ead6c7" fill-rule="evenodd"/><path clip-rule="evenodd" d="m784.438 146.545c-1.562-1.562-1.212-3.599.782-4.55l59.094-28.178c1.994-.951 4.877-.456 6.439 1.106l3.001 3c1.563 1.562 1.213 3.599-.781 4.55l-59.094 28.178c-1.994.951-4.877.456-6.44-1.106z" fill="#ead6c7" fill-rule="evenodd"/><path clip-rule="evenodd" d="m765.389 127.501c-1.562-1.562-1.212-3.599.782-4.55l59.094-28.178c1.994-.9509 4.877-.4555 6.439 1.1064l3.001 3.0001c1.562 1.5615 1.212 3.5985-.782 4.5495l-59.093 28.178c-1.994.951-4.877.456-6.44-1.106z" fill="#ead6c7" fill-rule="evenodd"/><path clip-rule="evenodd" d="m747.206 109.323c-1.562-1.562-1.212-3.599.782-4.55l59.094-28.1777c1.994-.9509 4.877-.4555 6.439 1.1063l3.001 3.0002c1.562 1.5619 1.212 3.5988-.782 4.5496l-59.093 28.1786c-1.995.951-4.878.455-6.44-1.107z" fill="#ead6c7" fill-rule="evenodd"/><path clip-rule="evenodd" d="m729.023 91.1444c-1.562-1.5618-1.212-3.5988.782-4.5496l59.093-28.1783c1.994-.9508 4.877-.4555 6.44 1.1064l3.001 3.0002c1.562 1.5619 1.212 3.5988-.782 4.5496l-59.094 28.1783c-1.994.9508-4.877.4555-6.439-1.1064z" fill="#ead6c7" fill-rule="evenodd"/><rect fill="#ead6c7" height="12.2435" rx="5" transform="matrix(.902633 -.430411 .707207 .707006 156.335 452.1)" width="12.2447"/><rect fill="#ead6c7" height="12.2435" rx="5" transform="matrix(.902633 -.430411 .707207 .707006 173.653 469.412)" width="12.2447"/><rect fill="#ead6c7" height="12.2435" rx="5" transform="matrix(.902633 -.430411 .707207 .707006 759.505 154.257)" width="12.2448"/><rect fill="#ead6c7" height="12.2435" rx="5" transform="matrix(.902633 -.430411 .707207 .707006 740.456 135.213)" width="12.2448"/><rect fill="#ead6c7" height="12.2435" rx="5" transform="matrix(.902633 -.430411 .707207 .707006 722.272 117.035)" width="12.2448"/><rect fill="#ead6c7" height="12.2435" rx="5" transform="matrix(.902633 -.430411 .707207 .707006 704.089 98.8574)" width="12.2448"/><g clip-rule="evenodd" fill-rule="evenodd"><path d="m102.883 398.663c-1.562-1.562-1.212-3.599.782-4.55l162.987-77.718c1.994-.951 4.877-.456 6.439 1.106l7.33 7.328c1.563 1.562 1.213 3.599-.781 4.55l-162.987 77.719c-1.994.95-4.877.455-6.44-1.107z" fill="#ead6c7"/><path d="m337.24 144.998c-1.562-1.562-1.212-3.599.782-4.55l307.774-146.75872c1.994-.95084 4.877-.4555 6.44 1.10638l7.33 7.32825c1.562 1.56188 1.212 3.59883-.782 4.54967l-307.774 146.75942c-1.994.95-4.877.455-6.439-1.107z" fill="#ead6c7"/><path d="m72.6076 273.742c-1.5623-1.562-1.2123-3.599.7817-4.55l162.9867-77.718c1.994-.951 4.877-.456 6.44 1.106l7.33 7.328c1.562 1.562 1.212 3.599-.782 4.55l-162.9867 77.719c-1.994.951-4.877.455-6.4393-1.107z" fill="#ead6c7"/><path d="m123.115 418.89c-.781-.781-.606-1.8.391-2.275l92.546-44.13c.997-.475 2.438-.228 3.22.553l5.829 5.829c.782.78.607 1.799-.39 2.274l-92.546 44.13c-.997.475-2.439.228-3.22-.553z" fill="#fff"/><path d="m357.473 165.225c-.782-.781-.607-1.8.39-2.275l225.176-107.3729c.997-.4754 2.439-.2278 3.22.5532l5.83 5.8282c.781.7809.606 1.7994-.391 2.2748l-225.176 107.3727c-.997.475-2.438.228-3.22-.553z" fill="#fff"/><path d="m374.79 182.537c-.781-.781-.606-1.799.391-2.275l105.809-50.454c.997-.475 2.438-.227 3.219.554l5.83 5.828c.781.781.606 1.799-.391 2.275l-105.808 50.453c-.997.476-2.439.228-3.22-.553z" fill="#fff"/><path d="m89.3764 290.507c-.7811-.781-.6061-1.8.3909-2.275l92.5457-44.13c.997-.475 2.439-.227 3.22.554l5.83 5.828c.781.781.606 1.799-.391 2.275l-92.546 44.129c-.9971.476-2.4386.228-3.2197-.553z" fill="#fff"/><path d="m138.701 434.471c-.781-.781-.606-1.8.391-2.275l125.703-59.941c.997-.475 2.438-.227 3.22.554l5.829 5.828c.782.781.607 1.799-.39 2.275l-125.704 59.94c-.997.475-2.438.228-3.219-.553z" fill="#fff"/><path d="m322.064 595.533c-.997.475-2.438.227-3.219-.553l-17.952-17.947c-.781-.781-.606-1.8.391-2.275l7.059-3.366c.997-.476 2.438-.228 3.219.553l17.952 17.947c.781.781.606 1.799-.391 2.275z" fill="#f7e9df"/><path d="m390.349 562.972c-.997.476-2.439.228-3.22-.553l-17.952-17.947c-.781-.781-.606-1.799.391-2.275l7.059-3.366c.997-.475 2.439-.227 3.22.554l17.952 17.946c.781.781.606 1.8-.391 2.275z" fill="#f7e9df"/><path d="m458.633 530.412c-.997.475-2.438.227-3.22-.554l-50.854-50.84c-.782-.781-.607-1.799.39-2.275l7.059-3.366c.997-.475 2.439-.228 3.22.553l50.855 50.841c.781.781.606 1.799-.391 2.275z" fill="#f7e9df"/><path d="m339.135 587.393c-.997.476-2.438.228-3.219-.553l-31.806-31.797c-.781-.781-.606-1.799.391-2.275l7.058-3.366c.997-.475 2.439-.227 3.22.553l31.806 31.797c.781.781.606 1.8-.391 2.275z" fill="#f7e9df"/><path d="m407.42 554.832c-.997.475-2.438.227-3.219-.554l-38.733-38.721c-.781-.781-.606-1.8.391-2.275l7.059-3.366c.997-.476 2.438-.228 3.219.553l38.733 38.722c.781.781.606 1.799-.391 2.275z" fill="#f7e9df"/><path d="m475.704 522.271c-.997.475-2.438.228-3.219-.553l-31.806-31.797c-.781-.781-.606-1.799.391-2.275l7.059-3.366c.997-.475 2.438-.228 3.219.553l31.806 31.797c.781.781.606 1.8-.391 2.275z" fill="#f7e9df"/><path d="m356.207 579.252c-.997.476-2.439.228-3.22-.553l-17.952-17.947c-.781-.781-.606-1.799.391-2.274l7.059-3.366c.997-.476 2.439-.228 3.22.553l17.952 17.947c.781.781.606 1.799-.391 2.274z" fill="#f7e9df"/><path d="m424.492 546.691c-.997.475-2.439.228-3.22-.553l-29.208-29.2c-.782-.781-.607-1.8.39-2.275l7.059-3.366c.997-.475 2.439-.228 3.22.553l29.208 29.2c.781.781.607 1.8-.391 2.275z" fill="#f7e9df"/><path d="m492.775 514.131c-.997.476-2.438.228-3.219-.553l-46.526-46.512c-.781-.781-.606-1.8.391-2.275l7.059-3.366c.997-.475 2.438-.228 3.219.553l46.526 46.513c.781.78.606 1.799-.391 2.274z" fill="#f7e9df"/><path d="m509.847 505.991c-.997.475-2.439.227-3.22-.553l-55.184-55.169c-.781-.781-.606-1.799.391-2.275l7.059-3.366c.997-.475 2.438-.228 3.22.553l55.184 55.169c.781.781.606 1.799-.391 2.275z" fill="#f7e9df"/><path d="m373.278 571.112c-.997.475-2.439.228-3.22-.553l-48.257-48.244c-.781-.781-.606-1.799.391-2.275l7.059-3.366c.997-.475 2.438-.227 3.219.553l48.258 48.244c.781.781.606 1.799-.391 2.275z" fill="#f7e9df"/><path d="m441.562 538.551c-.997.476-2.439.228-3.22-.553l-58.648-58.631c-.781-.781-.606-1.799.391-2.275l7.059-3.366c.997-.475 2.439-.227 3.22.553l58.648 58.631c.781.781.606 1.8-.391 2.275z" fill="#f7e9df"/><path d="m526.918 497.85c-.997.476-2.439.228-3.22-.553l-71.636-71.615c-.781-.781-.606-1.8.391-2.275l7.059-3.366c.997-.476 2.439-.228 3.22.553l71.636 71.615c.781.781.606 1.8-.391 2.275z" fill="#f7e9df"/><path d="m498.409 283.873c-.997.475-2.439.227-3.22-.554l-7.32-7.317c-.781-.781-.606-1.8.391-2.275l7.059-3.366c.997-.476 2.439-.228 3.22.553l7.32 7.318c.781.781.606 1.799-.391 2.275z" fill="#f7e9df"/><path d="m566.693 251.311c-.997.475-2.438.228-3.219-.553l-7.32-7.318c-.781-.781-.606-1.799.391-2.275l7.059-3.366c.997-.475 2.438-.228 3.219.553l7.32 7.318c.781.781.606 1.8-.391 2.275z" fill="#f7e9df"/><path d="m634.978 218.751c-.998.475-2.439.227-3.22-.554l-23.389-23.382c-.781-.781-.606-1.799.391-2.275l7.059-3.366c.997-.475 2.438-.227 3.219.554l23.389 23.382c.781.781.606 1.799-.391 2.275z" fill="#f7e9df"/><path d="m515.48 275.732c-.997.475-2.439.228-3.22-.553l-14.086-14.082c-.781-.781-.606-1.799.391-2.275l7.059-3.366c.997-.475 2.439-.228 3.22.553l14.086 14.082c.781.781.606 1.8-.391 2.275z" fill="#f7e9df"/><path d="m583.765 243.171c-.997.476-2.439.228-3.22-.553l-17.469-17.464c-.781-.78-.606-1.799.391-2.274l7.059-3.366c.997-.476 2.439-.228 3.22.553l17.469 17.464c.781.781.606 1.799-.391 2.274z" fill="#f7e9df"/><path d="m652.049 210.611c-.997.475-2.439.228-3.22-.553l-14.086-14.082c-.781-.781-.606-1.8.391-2.275l7.059-3.366c.997-.475 2.439-.228 3.22.553l14.086 14.082c.781.781.606 1.799-.391 2.275z" fill="#f7e9df"/><path d="m532.551 267.591c-.997.476-2.438.228-3.22-.553l-7.32-7.318c-.781-.781-.606-1.799.391-2.275l7.059-3.366c.997-.475 2.439-.227 3.22.554l7.32 7.318c.781.78.606 1.799-.391 2.274z" fill="#f7e9df"/><path d="m600.836 235.031c-.997.475-2.438.228-3.219-.553l-12.818-12.814c-.781-.781-.606-1.799.391-2.275l7.059-3.366c.997-.475 2.439-.228 3.22.553l12.817 12.814c.781.781.606 1.799-.391 2.275z" fill="#f7e9df"/><path d="m669.12 202.47c-.997.476-2.439.228-3.22-.553l-21.274-21.268c-.781-.781-.607-1.8.391-2.275l7.058-3.366c.997-.476 2.439-.228 3.22.553l21.275 21.268c.781.781.606 1.8-.391 2.275z" fill="#f7e9df"/><path d="m686.191 194.331c-.997.475-2.438.227-3.219-.554l-25.504-25.496c-.781-.78-.606-1.799.391-2.274l7.059-3.366c.997-.476 2.439-.228 3.22.553l25.503 25.496c.781.781.606 1.799-.391 2.275z" fill="#f7e9df"/><path d="m549.622 259.452c-.997.475-2.438.227-3.22-.554l-22.12-22.113c-.781-.781-.606-1.8.391-2.275l7.059-3.366c.997-.476 2.438-.228 3.22.553l22.12 22.114c.781.781.606 1.799-.391 2.275z" fill="#f7e9df"/><path d="m617.906 226.891c-.997.476-2.438.228-3.22-.553l-27.194-27.187c-.781-.781-.606-1.799.391-2.275l7.059-3.366c.997-.475 2.438-.228 3.219.553l27.195 27.187c.781.781.606 1.8-.391 2.275z" fill="#f7e9df"/><path d="m703.262 186.19c-.997.475-2.438.228-3.22-.553l-33.537-33.528c-.781-.781-.606-1.8.391-2.275l7.059-3.366c.997-.476 2.438-.228 3.219.553l33.538 33.528c.781.781.606 1.8-.391 2.275z" fill="#f7e9df"/></g><ellipse fill="#e9d5c6" rx="25.1016" ry="25.0991" transform="matrix(.902633 -.430411 .707207 .707006 43.7241 304.433)"/><rect fill="#fbf2eb" height="37.9547" rx="8" transform="matrix(.902633 -.430411 .707207 .707006 606.37 454.851)" width="475.094"/><path clip-rule="evenodd" d="m664.835 443.124c-.781-.781-.606-1.799.391-2.275l62.704-29.9c.997-.475 2.439-.227 3.22.553l5.83 5.829c.781.781.606 1.799-.391 2.274l-62.705 29.9c-.997.476-2.438.228-3.219-.553z" fill="#ead6c7" fill-rule="evenodd"/><path clip-rule="evenodd" d="m814.043 371.976c-.781-.781-.606-1.8.391-2.275l124.598-59.414c.997-.475 2.439-.227 3.22.554l5.83 5.828c.781.781.606 1.799-.391 2.275l-124.598 59.413c-.997.475-2.439.228-3.22-.553z" fill="#ead6c7" fill-rule="evenodd"/><ellipse fill="#ead6c7" rx="8.5713" ry="8.57043" transform="matrix(.902633 -.430411 .707207 .707006 641.224 458.687)"/><rect fill="#fbf2eb" height="37.9547" rx="8" transform="matrix(.902633 -.430411 .707207 .707006 571.736 420.226)" width="475.094"/><path clip-rule="evenodd" d="m630.2 408.499c-.781-.781-.606-1.799.391-2.275l33.968-16.197c.997-.475 2.439-.228 3.22.553l5.83 5.828c.781.781.606 1.8-.391 2.275l-33.968 16.197c-.997.476-2.439.228-3.22-.553z" fill="#ead6c7" fill-rule="evenodd"/><path clip-rule="evenodd" d="m779.409 337.351c-.781-.781-.606-1.8.391-2.275l70.44-33.589c.998-.476 2.439-.228 3.22.553l5.83 5.828c.781.781.606 1.799-.391 2.275l-70.441 33.589c-.997.475-2.438.228-3.22-.553z" fill="#ead6c7" fill-rule="evenodd"/><ellipse fill="#ead6c7" rx="8.5713" ry="8.57043" transform="matrix(.902633 -.430411 .707207 .707006 606.589 424.062)"/><rect fill="#fbf2eb" height="37.9547" rx="8" transform="matrix(.902633 -.430411 .707207 .707006 537.101 385.601)" width="475.094"/><path clip-rule="evenodd" d="m595.566 373.874c-.781-.781-.607-1.799.391-2.275l48.336-23.048c.997-.476 2.438-.228 3.219.553l5.83 5.828c.781.781.606 1.799-.391 2.275l-48.336 23.048c-.997.476-2.438.228-3.219-.553z" fill="#ead6c7" fill-rule="evenodd"/><path clip-rule="evenodd" d="m744.774 302.726c-.781-.781-.606-1.8.391-2.275l168.808-80.495c.997-.475 2.438-.227 3.219.554l5.83 5.828c.781.781.606 1.799-.391 2.275l-168.808 80.494c-.997.475-2.438.228-3.219-.553z" fill="#ead6c7" fill-rule="evenodd"/><ellipse fill="#ead6c7" rx="8.5713" ry="8.57042" transform="matrix(.902633 -.430411 .707207 .707006 571.955 389.437)"/><rect fill="#fbf2eb" height="37.9547" rx="8" transform="matrix(.902633 -.430411 .707207 .707006 502.466 350.976)" width="475.094"/><path clip-rule="evenodd" d="m560.931 339.249c-.781-.781-.606-1.799.391-2.275l71.546-34.116c.997-.475 2.439-.228 3.22.553l5.83 5.828c.781.781.606 1.8-.391 2.275l-71.547 34.116c-.997.476-2.438.228-3.219-.553z" fill="#ead6c7" fill-rule="evenodd"/><path clip-rule="evenodd" d="m710.139 268.101c-.781-.781-.606-1.8.391-2.275l106.914-50.981c.997-.476 2.439-.228 3.22.553l5.83 5.828c.781.781.606 1.8-.391 2.275l-106.914 50.981c-.997.475-2.439.228-3.22-.553z" fill="#ead6c7" fill-rule="evenodd"/><ellipse fill="#ead6c7" rx="8.5713" ry="8.57042" transform="matrix(.902633 -.430411 .707207 .707006 537.32 354.812)"/><path d="m43.8441 303.738h-.0005c2.6292-1.254 3.0164-4.015.8648-6.166-2.152-2.151-6.0282-2.878-8.6577-1.625-2.63 1.254-3.0168 4.014-.8656 6.165h-.0003c2.1512 2.151 6.0277 2.879 8.6569 1.625zm1.1132 1.113c-2.951 1.407-7.3502 5.707-4.3891 8.667l2.2265 2.226 17.6839-8.432-2.2264-2.226c-2.9612-2.96-10.3439-1.643-13.2949-.235z" fill="#fbf2eb"/></g></svg>