<svg fill="none" height="558" viewBox="0 0 680 558" width="680" xmlns="http://www.w3.org/2000/svg" xmlns:xlink="http://www.w3.org/1999/xlink"><filter id="a" color-interpolation-filters="sRGB" filterUnits="userSpaceOnUse" height="870.179" width="1260.72" x="-162.562" y="-130.793"><feFlood flood-opacity="0" result="BackgroundImageFix"/><feColorMatrix in="SourceAlpha" type="matrix" values="0 0 0 0 0 0 0 0 0 0 0 0 0 0 0 0 0 0 127 0"/><feMorphology in="SourceAlpha" operator="erode" radius="10" result="effect1_dropShadow"/><feOffset dy="25"/><feGaussianBlur stdDeviation="25"/><feColorMatrix type="matrix" values="0 0 0 0 0.601875 0 0 0 0 0.891667 0 0 0 0 0.661151 0 0 0 1 0"/><feBlend in2="BackgroundImageFix" mode="normal" result="effect1_dropShadow"/><feBlend in="SourceGraphic" in2="effect1_dropShadow" mode="normal" result="shape"/></filter><filter id="b" color-interpolation-filters="sRGB" filterUnits="userSpaceOnUse" height="302.45" width="538.501" x="391.344" y="135.679"><feFlood flood-opacity="0" result="BackgroundImageFix"/><feBlend in="SourceGraphic" in2="BackgroundImageFix" mode="normal" result="shape"/><feGaussianBlur result="effect1_foregroundBlur" stdDeviation="15"/></filter><mask id="c" height="558" maskUnits="userSpaceOnUse" width="680" x="0" y="0"><path d="m0 0h680v558h-680z" fill="#bfebc8"/></mask><path d="m0 0h680v558h-680z" fill="#bfebc8"/><g mask="url(#c)"><g filter="url(#a)"><rect fill="#fff" height="625.156" rx="24" transform="matrix(.90257 -.430543 .707074 .707139 -133.675 239.745)" width="843.051"/></g><rect fill="#fbf2eb" height="393.617" rx="8" transform="matrix(.90257 -.430543 .707074 .707139 39.2568 356.404)" width="186.588"/><rect fill="#fbf2eb" height="301.001" rx="8" transform="matrix(.90257 -.430543 .707074 .707139 141.068 151.363)" width="528.439"/><rect fill="#fff" height="114.408" rx="8" transform="matrix(.90257 -.430543 .707074 .707139 285.172 251.901)" width="299.631"/><rect fill="#fbf2eb" height="107.598" rx="8" transform="matrix(.90257 -.430543 .707074 .707139 -66.6768 250.461)" width="186.588"/><path clip-rule="evenodd" d="m177.232 419.946c-1.562-1.562-1.212-3.6.782-4.551l66.535-31.739c1.994-.951 4.876-.455 6.438 1.107l3.974 3.974c1.562 1.562 1.212 3.6-.782 4.551l-66.535 31.738c-1.994.951-4.877.456-6.439-1.106z" fill="#ead6c7" fill-rule="evenodd"/><path clip-rule="evenodd" d="m322.65 565.377c-1.562-1.562-1.212-3.6.782-4.551l66.535-31.738c1.994-.952 4.876-.456 6.438 1.106l3.974 3.974c1.562 1.562 1.212 3.6-.782 4.551l-66.535 31.738c-1.994.951-4.877.456-6.439-1.106z" fill="#ead6c7" fill-rule="evenodd"/><path clip-rule="evenodd" d="m303.389 546.115c-1.562-1.562-1.212-3.6.782-4.551l66.535-31.739c1.994-.951 4.877-.455 6.439 1.107l3.973 3.974c1.562 1.562 1.212 3.599-.782 4.551l-66.535 31.738c-1.994.951-4.876.456-6.438-1.106z" fill="#ead6c7" fill-rule="evenodd"/><path clip-rule="evenodd" d="m196.492 439.208c-1.562-1.562-1.212-3.599.782-4.551l66.535-31.738c1.994-.951 4.877-.456 6.439 1.106l3.974 3.974c1.562 1.563 1.212 3.6-.782 4.551l-66.535 31.739c-1.994.951-4.877.455-6.439-1.107z" fill="#ead6c7" fill-rule="evenodd"/><path clip-rule="evenodd" d="m341.91 584.64c-1.562-1.563-1.212-3.6.782-4.551l66.535-31.739c1.994-.951 4.877-.455 6.439 1.107l3.974 3.974c1.562 1.562 1.212 3.599-.782 4.551l-66.535 31.738c-1.994.951-4.877.456-6.439-1.106z" fill="#ead6c7" fill-rule="evenodd"/><path clip-rule="evenodd" d="m672.006 141.254c-1.562-1.563-1.212-3.6.782-4.551l66.535-31.739c1.994-.951 4.877-.455 6.439 1.107l3.973 3.974c1.563 1.562 1.212 3.599-.781 4.551l-66.536 31.738c-1.994.951-4.876.456-6.438-1.106z" fill="#ead6c7" fill-rule="evenodd"/><path clip-rule="evenodd" d="m651.782 121.028c-1.562-1.562-1.212-3.6.782-4.551l66.536-31.7383c1.993-.9511 4.876-.4558 6.438 1.1064l3.974 3.9741c1.562 1.5622 1.212 3.5996-.782 4.5507l-66.535 31.7381c-1.994.952-4.877.456-6.439-1.106z" fill="#ead6c7" fill-rule="evenodd"/><path clip-rule="evenodd" d="m631.559 100.802c-1.562-1.5617-1.212-3.5992.782-4.5503l66.535-31.7386c1.994-.9511 4.876-.4557 6.438 1.1064l3.974 3.9741c1.562 1.5622 1.212 3.5996-.782 4.5507l-66.535 31.7387c-1.994.951-4.876.456-6.439-1.106z" fill="#ead6c7" fill-rule="evenodd"/><rect fill="#ead6c7" height="13.62" rx="5" transform="matrix(.90257 -.430543 .707074 .707139 149.818 428.845)" width="13.6196"/><rect fill="#ead6c7" height="13.62" rx="5" transform="matrix(.90257 -.430543 .707074 .707139 275.976 555.014)" width="13.6196"/><rect fill="#ead6c7" height="13.62" rx="5" transform="matrix(.90257 -.430543 .707074 .707139 169.079 448.107)" width="13.6196"/><rect fill="#ead6c7" height="13.62" rx="5" transform="matrix(.90257 -.430543 .707074 .707139 665.779 171.341)" width="13.6196"/><rect fill="#ead6c7" height="13.62" rx="5" transform="matrix(.90257 -.430543 .707074 .707139 644.593 150.153)" width="13.6196"/><rect fill="#ead6c7" height="13.6199" rx="5" transform="matrix(.90257 -.430543 .707074 .707139 624.369 129.927)" width="13.6196"/><rect fill="#ead6c7" height="13.62" rx="5" transform="matrix(.90257 -.430543 .707074 .707139 604.146 109.702)" width="13.6196"/><g clip-rule="evenodd" fill-rule="evenodd"><path d="m90.049 369.071c-1.562-1.563-1.2119-3.6.782-4.551l108.33-51.676c1.994-.951 4.877-.456 6.439 1.107l8.788 8.789c1.562 1.563 1.212 3.6-.782 4.551l-108.33 51.676c-1.993.951-4.876.455-6.4381-1.107z" fill="#ead6c7"/><path d="m195.815 160.72c-1.562-1.562-1.212-3.599.782-4.551l343.119-163.67399c1.994-.95113 4.876-.45578 6.438 1.10639l8.789 8.78971c1.562 1.56216 1.212 3.5996-.782 4.55073l-343.119 163.67416c-1.994.951-4.876.456-6.438-1.106z" fill="#ead6c7"/><path d="m112.711 391.734c-.781-.781-.606-1.799.391-2.275l61.541-29.356c.997-.476 2.438-.228 3.219.553l6.802 6.803c.781.781.606 1.8-.391 2.275l-61.541 29.356c-.997.476-2.438.228-3.219-.553z" fill="#fff"/><path d="m218.477 183.384c-.781-.781-.606-1.8.391-2.276l250.847-119.6584c.996-.4756 2.438-.2279 3.219.5532l6.802 6.8026c.781.7811.606 1.7998-.391 2.2754l-250.847 119.6592c-.997.475-2.438.227-3.219-.554z" fill="#fff"/><path d="m237.737 202.646c-.781-.781-.606-1.8.391-2.275l118.087-56.33c.997-.475 2.438-.228 3.219.553l6.802 6.803c.781.781.606 1.8-.391 2.275l-118.086 56.33c-.997.476-2.439.228-3.22-.553z" fill="#fff"/><path d="m196.495 475.526c-.781-.781-.606-1.8.391-2.276l61.541-29.356c.997-.475 2.438-.227 3.219.554l6.802 6.802c.781.781.606 1.8-.391 2.276l-61.54 29.356c-.997.475-2.439.228-3.22-.553z" fill="#fff"/><path d="m233.09 512.124c-.781-.781-.606-1.799.391-2.275l86.126-41.084c.997-.475 2.438-.227 3.219.554l6.802 6.802c.781.781.606 1.8-.391 2.276l-86.126 41.083c-.997.476-2.438.228-3.219-.553z" fill="#fff"/><path d="m130.046 409.071c-.781-.782-.606-1.8.391-2.276l83.667-39.911c.997-.475 2.439-.228 3.22.553l6.802 6.803c.781.781.606 1.8-.391 2.275l-83.668 39.911c-.997.476-2.438.228-3.219-.553z" fill="#fff"/><path d="m214.792 493.825c-.781-.781-.606-1.8.391-2.275l107.023-51.052c.997-.476 2.439-.228 3.22.553l6.802 6.802c.781.782.606 1.8-.391 2.276l-107.024 51.052c-.997.476-2.438.228-3.219-.553z" fill="#fff"/><path d="m375.184 315.651c-.997.475-2.438.228-3.219-.553l-8.46-8.46c-.781-.782-.606-1.8.391-2.276l8.257-3.938c.997-.476 2.438-.228 3.219.553l8.459 8.46c.781.781.606 1.8-.391 2.275z" fill="#f7e9df"/><path d="m451.13 279.423c-.997.475-2.438.228-3.219-.553l-8.459-8.46c-.781-.782-.606-1.8.391-2.276l8.256-3.938c.997-.476 2.438-.228 3.219.553l8.46 8.46c.781.781.606 1.8-.391 2.275z" fill="#f7e9df"/><path d="m527.077 243.195c-.997.476-2.439.228-3.22-.553l-26.331-26.334c-.781-.781-.606-1.8.391-2.275l8.256-3.939c.997-.475 2.439-.228 3.22.553l26.331 26.334c.781.781.606 1.8-.391 2.276z" fill="#f7e9df"/><path d="m394.17 306.594c-.997.476-2.438.228-3.219-.553l-15.984-15.986c-.781-.781-.606-1.8.391-2.275l8.256-3.939c.997-.475 2.438-.228 3.219.553l15.985 15.986c.781.781.606 1.8-.391 2.276z" fill="#f7e9df"/><path d="m470.118 270.366c-.997.475-2.439.228-3.22-.553l-19.747-19.749c-.781-.781-.606-1.8.391-2.276l8.257-3.938c.997-.476 2.438-.228 3.219.553l19.747 19.749c.781.781.606 1.8-.391 2.275z" fill="#f7e9df"/><path d="m546.064 234.138c-.997.476-2.438.228-3.219-.553l-15.985-15.986c-.781-.781-.606-1.8.391-2.276l8.257-3.938c.997-.476 2.438-.228 3.219.553l15.984 15.986c.781.781.606 1.8-.391 2.275z" fill="#f7e9df"/><path d="m413.158 297.537c-.997.475-2.439.228-3.22-.553l-8.459-8.46c-.781-.782-.606-1.8.391-2.276l8.256-3.938c.997-.476 2.439-.228 3.22.553l8.459 8.46c.781.781.606 1.8-.391 2.275z" fill="#f7e9df"/><path d="m489.105 261.309c-.997.475-2.438.227-3.219-.554l-14.574-14.574c-.781-.782-.606-1.8.391-2.276l8.257-3.938c.996-.476 2.438-.228 3.219.553l14.573 14.575c.781.781.606 1.8-.391 2.275z" fill="#f7e9df"/><path d="m565.05 225.081c-.997.476-2.438.228-3.219-.553l-23.98-23.982c-.781-.781-.606-1.8.391-2.275l8.256-3.939c.997-.475 2.439-.228 3.22.553l23.98 23.983c.781.781.606 1.799-.391 2.275z" fill="#f7e9df"/><path d="m584.037 216.024c-.997.476-2.439.228-3.22-.553l-28.683-28.686c-.781-.781-.606-1.8.391-2.275l8.257-3.939c.997-.475 2.438-.227 3.219.554l28.683 28.685c.781.781.606 1.8-.391 2.276z" fill="#f7e9df"/><path d="m432.144 288.48c-.997.476-2.438.228-3.219-.553l-24.921-24.923c-.781-.781-.606-1.8.391-2.275l8.257-3.939c.997-.475 2.438-.228 3.219.553l24.92 24.923c.781.781.606 1.8-.391 2.276z" fill="#f7e9df"/><path d="m508.089 252.252c-.997.476-2.438.228-3.219-.553l-30.564-30.567c-.781-.781-.606-1.8.391-2.275l8.256-3.939c.997-.475 2.438-.228 3.219.553l30.565 30.567c.781.781.606 1.8-.391 2.276z" fill="#f7e9df"/><path d="m603.023 206.967c-.997.476-2.438.228-3.219-.553l-37.619-37.622c-.781-.782-.606-1.8.391-2.276l8.256-3.938c.997-.476 2.438-.228 3.219.553l37.619 37.622c.781.782.606 1.8-.391 2.276z" fill="#f7e9df"/></g><ellipse fill="#e9d5c6" rx="27.9201" ry="27.9209" transform="matrix(.90257 -.430543 .707074 .707139 54.6041 247.374)"/><rect fill="#fbf2eb" height="42.2219" rx="8" transform="matrix(.90257 -.430543 .707074 .707139 495.465 505.791)" width="528.439"/><path clip-rule="evenodd" d="m560.33 492.585c-.781-.781-.606-1.8.391-2.275l70.146-33.461c.997-.475 2.438-.228 3.219.553l6.802 6.803c.781.781.606 1.8-.391 2.275l-70.146 33.461c-.996.476-2.438.228-3.219-.553z" fill="#ead6c7" fill-rule="evenodd"/><ellipse fill="#ead6c7" rx="9.53371" ry="9.534" transform="matrix(.90257 -.430543 .707074 .707139 534.229 510.06)"/><rect fill="#fbf2eb" height="42.2219" rx="8" transform="matrix(.90257 -.430543 .707074 .707139 456.943 467.266)" width="528.439"/><path clip-rule="evenodd" d="m521.809 454.06c-.781-.781-.606-1.8.391-2.275l38.184-18.215c.997-.475 2.439-.228 3.22.553l6.802 6.803c.781.781.606 1.8-.391 2.275l-38.185 18.215c-.997.476-2.438.228-3.219-.553z" fill="#ead6c7" fill-rule="evenodd"/><ellipse fill="#ead6c7" rx="9.53371" ry="9.53398" transform="matrix(.90257 -.430543 .707074 .707139 495.707 471.535)"/><rect fill="#fbf2eb" height="42.2219" rx="8" transform="matrix(.90257 -.430543 .707074 .707139 418.422 428.741)" width="528.439"/><path clip-rule="evenodd" d="m483.287 415.536c-.781-.781-.606-1.8.391-2.276l54.165-25.838c.997-.475 2.438-.227 3.219.554l6.803 6.802c.781.781.605 1.8-.391 2.276l-54.165 25.837c-.997.476-2.439.228-3.22-.553z" fill="#ead6c7" fill-rule="evenodd"/><path clip-rule="evenodd" d="m649.238 336.374c-.781-.781-.606-1.8.391-2.275l188.155-89.753c.997-.476 2.438-.228 3.219.553l6.802 6.802c.781.781.606 1.8-.391 2.276l-188.154 89.753c-.997.476-2.439.228-3.22-.553z" fill="#ead6c7" fill-rule="evenodd"/><ellipse fill="#ead6c7" rx="9.53371" ry="9.53397" transform="matrix(.90257 -.430543 .707074 .707139 457.186 433.01)"/><g filter="url(#b)" opacity=".3"><rect fill="#12b361" height="42.2219" rx="8" transform="matrix(.90257 -.430543 .707074 .707139 417.64 380.749)" width="505.286"/></g><rect fill="#12b361" height="42.2219" rx="8" transform="matrix(.90257 -.430543 .707074 .707139 386.517 371.413)" width="528.439"/><path clip-rule="evenodd" d="m451.382 358.207c-.781-.781-.606-1.8.391-2.275l79.979-38.152c.997-.476 2.439-.228 3.22.553l6.802 6.803c.781.781.606 1.8-.391 2.275l-79.98 38.152c-.997.475-2.438.228-3.219-.553z" fill="#22df7f" fill-rule="evenodd"/><path clip-rule="evenodd" d="m617.333 279.045c-.781-.781-.606-1.799.391-2.275l119.316-56.916c.997-.476 2.438-.228 3.219.553l6.802 6.803c.781.781.606 1.8-.391 2.275l-119.316 56.916c-.997.476-2.438.228-3.219-.553z" fill="#22df7f" fill-rule="evenodd"/><ellipse fill="#22df7f" rx="9.53371" ry="9.53397" transform="matrix(.90257 -.430543 .707074 .707139 425.281 375.682)"/><path d="m54.7379 246.599-.0005.001c2.9242-1.395 3.3549-4.467.9618-6.86-2.3936-2.394-6.7046-3.203-9.6293-1.809-2.925 1.395-3.3552 4.466-.9626 6.86h-.0003c2.3926 2.393 6.7041 3.203 9.6283 1.808zm1.2382 1.239c-3.2821 1.565-8.175 6.35-4.8815 9.644l2.4763 2.476 19.6682-9.382-2.4763-2.476c-3.2935-3.294-11.5046-1.828-14.7867-.262z" fill="#fbf2eb"/></g></svg>