<svg fill="none" height="558" viewBox="0 0 681 558" width="681" xmlns="http://www.w3.org/2000/svg" xmlns:xlink="http://www.w3.org/1999/xlink"><filter id="a" color-interpolation-filters="sRGB" filterUnits="userSpaceOnUse" height="883.214" width="1280.2" x="259.162" y="73.8069"><feFlood flood-opacity="0" result="BackgroundImageFix"/><feColorMatrix in="SourceAlpha" type="matrix" values="0 0 0 0 0 0 0 0 0 0 0 0 0 0 0 0 0 0 127 0"/><feMorphology in="SourceAlpha" operator="erode" radius="10" result="effect1_dropShadow"/><feOffset dy="25"/><feGaussianBlur stdDeviation="25"/><feColorMatrix type="matrix" values="0 0 0 0 0.777778 0 0 0 0 0.881482 0 0 0 0 0.933333 0 0 0 1 0"/><feBlend in2="BackgroundImageFix" mode="normal" result="effect1_dropShadow"/><feBlend in="SourceGraphic" in2="effect1_dropShadow" mode="normal" result="shape"/></filter><filter id="b" color-interpolation-filters="sRGB" filterUnits="userSpaceOnUse" height="883.214" width="1280.2" x="-365.043" y="-355.156"><feFlood flood-opacity="0" result="BackgroundImageFix"/><feColorMatrix in="SourceAlpha" type="matrix" values="0 0 0 0 0 0 0 0 0 0 0 0 0 0 0 0 0 0 127 0"/><feMorphology in="SourceAlpha" operator="erode" radius="10" result="effect1_dropShadow"/><feOffset dy="25"/><feGaussianBlur stdDeviation="25"/><feColorMatrix type="matrix" values="0 0 0 0 0.777778 0 0 0 0 0.881482 0 0 0 0 0.933333 0 0 0 1 0"/><feBlend in2="BackgroundImageFix" mode="normal" result="effect1_dropShadow"/><feBlend in="SourceGraphic" in2="effect1_dropShadow" mode="normal" result="shape"/></filter><filter id="c" color-interpolation-filters="sRGB" filterUnits="userSpaceOnUse" height="306.456" width="546.369" x="197.789" y="-84.0454"><feFlood flood-opacity="0" result="BackgroundImageFix"/><feBlend in="SourceGraphic" in2="BackgroundImageFix" mode="normal" result="shape"/><feGaussianBlur result="effect1_foregroundBlur" stdDeviation="15"/></filter><mask id="d" height="558" maskUnits="userSpaceOnUse" width="681" x="0" y="0"><path d="m.9375 0h680v558h-680z" fill="#ead9cc"/></mask><path d="m.9375 0h680v558h-680z" fill="#ddedf5"/><g mask="url(#d)"><g filter="url(#a)"><rect fill="#fff" height="635.279" rx="24" transform="matrix(.90257 -.430543 .707074 .707139 288.049 450.222)" width="856.702"/></g><rect fill="#fbf2eb" height="399.99" rx="8" transform="matrix(.90257 -.430543 .707074 .707139 463.78 568.771)" width="189.609"/><rect fill="#fbf2eb" height="305.875" rx="8" transform="matrix(.90257 -.430543 .707074 .707139 567.241 360.409)" width="536.996"/><rect fill="#fbf2eb" height="109.34" rx="8" transform="matrix(.90257 -.430543 .707074 .707139 356.132 461.112)" width="189.609"/><path clip-rule="evenodd" d="m515.35 581.596c-1.562-1.562-1.212-3.599.782-4.551l110.201-52.568c1.994-.951 4.876-.455 6.438 1.107l9.023 9.023c1.562 1.563 1.212 3.6-.782 4.551l-110.201 52.568c-1.994.951-4.876.456-6.438-1.106z" fill="#ead6c7" fill-rule="evenodd"/><path clip-rule="evenodd" d="m622.828 369.872c-1.562-1.562-1.212-3.6.782-4.551l348.792-166.38c1.994-.951 4.877-.456 6.439 1.106l9.022 9.024c1.562 1.562 1.212 3.599-.782 4.551l-348.791 166.38c-1.994.951-4.877.456-6.439-1.106z" fill="#ead6c7" fill-rule="evenodd"/><path clip-rule="evenodd" d="m645.88 392.926c-.781-.781-.606-1.8.391-2.276l254.967-121.624c.997-.475 2.438-.228 3.219.553l6.958 6.959c.781.781.606 1.8-.391 2.275l-254.967 121.625c-.997.475-2.438.227-3.219-.554z" fill="#fff" fill-rule="evenodd"/><path clip-rule="evenodd" d="m665.452 412.5c-.781-.781-.606-1.8.391-2.275l120.057-57.27c.997-.476 2.439-.228 3.22.553l6.958 6.959c.781.781.606 1.8-.391 2.275l-120.058 57.27c-.996.475-2.438.228-3.219-.553z" fill="#fff" fill-rule="evenodd"/><ellipse fill="#e9d5c6" rx="28.3722" ry="28.373" transform="matrix(.90257 -.430543 .707074 .707139 479.377 457.975)"/><path d="m479.512 457.188c2.971-1.418 3.409-4.539.977-6.971-2.432-2.433-6.813-3.255-9.785-1.838-2.973 1.418-3.41 4.539-.978 6.971h-.001c2.432 2.432 6.813 3.255 9.784 1.837zm1.258 1.258c-3.335 1.591-8.307 6.453-4.96 9.8l2.516 2.517 19.987-9.534-2.517-2.517c-3.346-3.347-11.69-1.857-15.026-.266z" fill="#fbf2eb"/><g filter="url(#b)"><rect fill="#fff" height="635.279" rx="24" transform="matrix(.90257 -.430543 .707074 .707139 -336.156 21.26)" width="856.702"/></g><rect fill="#fbf2eb" height="399.99" rx="8" transform="matrix(.90257 -.430543 .707074 .707139 -160.425 139.808)" width="189.609"/><rect fill="#fbf2eb" height="305.875" rx="8" transform="matrix(.90257 -.430543 .707074 .707139 -56.9639 -68.5537)" width="536.996"/><rect fill="#fff" height="116.26" rx="8" transform="matrix(.90257 -.430543 .707074 .707139 89.4727 33.6123)" width="304.482"/><path clip-rule="evenodd" d="m-20.2615 204.333c-1.5621-1.562-1.212-3.6.7819-4.551l67.7294-32.308c1.9939-.951 4.8766-.456 6.4386 1.106l4.1297 4.13c1.562 1.562 1.2119 3.6-.782 4.551l-67.72941 32.308c-1.99389.951-4.87659.456-6.43859-1.106z" fill="#ead6c7" fill-rule="evenodd"/><path clip-rule="evenodd" d="m127.511 352.119c-1.562-1.562-1.212-3.6.782-4.551l67.729-32.308c1.994-.951 4.877-.456 6.439 1.106l4.13 4.13c1.562 1.562 1.211 3.6-.782 4.551l-67.73 32.308c-1.994.951-4.876.456-6.438-1.106z" fill="#ead6c7" fill-rule="evenodd"/><path clip-rule="evenodd" d="m107.939 332.545c-1.562-1.563-1.212-3.6.782-4.551l67.729-32.308c1.994-.951 4.877-.456 6.439 1.106l4.129 4.13c1.562 1.562 1.212 3.6-.782 4.551l-67.729 32.308c-1.994.951-4.877.456-6.439-1.106z" fill="#ead6c7" fill-rule="evenodd"/><path clip-rule="evenodd" d="m-.688304 223.907c-1.562026-1.562-1.211916-3.599.7819821-4.551l67.7294219-32.308c1.9939-.951 4.8765-.456 6.4386 1.107l4.1296 4.13c1.5621 1.562 1.212 3.599-.7819 4.55l-67.72944 32.309c-1.99391.951-4.87656.455-6.43859-1.107z" fill="#ead6c7" fill-rule="evenodd"/><path clip-rule="evenodd" d="m147.084 371.693c-1.562-1.562-1.212-3.599.782-4.55l67.73-32.309c1.993-.951 4.876-.455 6.438 1.107l4.13 4.13c1.562 1.562 1.212 3.599-.782 4.551l-67.73 32.308c-1.993.951-4.876.456-6.438-1.107z" fill="#ead6c7" fill-rule="evenodd"/><rect fill="#ead6c7" height="13.8405" rx="5" transform="matrix(.90257 -.430543 .707074 .707139 99.7002 361.208)" width="13.8401"/><rect fill="#ead6c7" height="13.8405" rx="5" transform="matrix(.90257 -.430543 .707074 .707139 80.127 341.634)" width="13.8401"/><rect fill="#ead6c7" height="13.8405" rx="5" transform="matrix(.90257 -.430543 .707074 .707139 119.272 380.782)" width="13.8401"/><g clip-rule="evenodd" fill-rule="evenodd"><path d="m-108.855 152.634c-1.562-1.562-1.212-3.6.782-4.551l110.20074-52.568c1.9939-.9512 4.87654-.4558 6.43856 1.1064l9.0228 9.0236c1.562 1.562 1.2119 3.6-.782 4.551l-110.201 52.568c-1.9939.951-4.8766.456-6.4386-1.107z" fill="#ead6c7"/><path d="m-.663 260.836c-.78101-.781-.60596-1.8.390991-2.276l62.595509-29.859c.997-.476 2.4383-.228 3.2193.553l6.958 6.959c.781.781.6059 1.8-.391 2.275l-62.59553 29.859c-.99696.476-2.43828.228-3.21929-.553z" fill="#fff"/><path d="m36.5245 298.027c-.781-.781-.606-1.8.391-2.276l87.5785-41.776c.997-.476 2.439-.228 3.22.553l6.958 6.958c.781.782.606 1.8-.391 2.276l-87.5792 41.777c-.997.475-2.4383.228-3.2193-.554z" fill="#fff"/><path d="m-68.1884 193.304c-.781-.781-.606-1.8.391-2.275l85.0805-40.585c.997-.476 2.4383-.228 3.2193.553l6.958 6.959c.781.781.6059 1.799-.391 2.275l-85.0805 40.585c-.997.476-2.4383.228-3.2193-.553z" fill="#fff"/><path d="m17.9307 279.431c-.781-.781-.6059-1.799.391-2.275l108.8143-51.907c.997-.475 2.439-.228 3.22.553l6.958 6.959c.781.781.606 1.8-.391 2.275l-108.815 51.907c-.997.476-2.4383.228-3.2193-.553z" fill="#fff"/><path d="m180.914 98.4087c-.997.4756-2.439.2279-3.22-.5532l-8.642-8.6429c-.781-.7811-.606-1.7998.391-2.2754l8.449-4.0301c.997-.4756 2.438-.2279 3.219.5532l8.642 8.6429c.781.7811.606 1.7998-.391 2.2754z" fill="#f7e9df"/><path d="m258.089 61.594c-.997.4756-2.438.2279-3.219-.5532l-8.642-8.6429c-.781-.7811-.606-1.7998.391-2.2754l8.448-4.0301c.997-.4755 2.439-.2279 3.22.5532l8.642 8.6429c.781.7811.606 1.7998-.391 2.2754z" fill="#f7e9df"/><path d="m335.265 24.7798c-.997.4755-2.438.2279-3.219-.5532l-26.804-26.80606c-.781-.78109-.606-1.7998.391-2.27537l8.449-4.03011c.997-.47557 2.438-.22789 3.219.55319l26.804 26.80605c.781.7811.606 1.7998-.391 2.2754z" fill="#f7e9df"/><path d="m200.207 89.2051c-.996.4755-2.438.2279-3.219-.5532l-16.289-16.2906c-.781-.7811-.606-1.7998.391-2.2753l8.449-4.0301c.997-.4756 2.438-.2279 3.219.5532l16.289 16.2905c.781.7811.606 1.7998-.391 2.2754z" fill="#f7e9df"/><path d="m277.384 52.3901c-.997.4756-2.438.2279-3.219-.5532l-20.113-20.1143c-.781-.7811-.606-1.7998.391-2.2754l8.449-4.0301c.997-.4756 2.438-.2279 3.219.5532l20.113 20.1144c.781.7811.606 1.7998-.391 2.2753z" fill="#f7e9df"/><path d="m354.56 15.5759c-.997.4756-2.438.2279-3.219-.5532l-16.289-16.29052c-.781-.78108-.606-1.7998.391-2.27536l8.448-4.03012c.997-.47556 2.438-.22789 3.219.55319l16.29 16.29056c.781.78105.606 1.79975-.391 2.27535z" fill="#f7e9df"/><path d="m219.501 80.0012c-.997.4756-2.438.2279-3.219-.5532l-8.642-8.6429c-.781-.7811-.606-1.7998.391-2.2753l8.449-4.0301c.996-.4756 2.438-.2279 3.219.5531l8.642 8.643c.781.781.606 1.7998-.391 2.2753z" fill="#f7e9df"/><path d="m296.678 43.1865c-.997.4756-2.438.2279-3.219-.5532l-14.855-14.8566c-.781-.7811-.606-1.7998.391-2.2753l8.448-4.0302c.997-.4755 2.438-.2278 3.219.5532l14.856 14.8567c.781.781.606 1.7998-.391 2.2753z" fill="#f7e9df"/><path d="m373.853 6.37256c-.997.47556-2.438.22789-3.219-.5532l-24.414-24.41616c-.781-.7811-.606-1.7998.391-2.2754l8.448-4.03c.997-.4756 2.439-.2279 3.22.5531l24.413 24.4162017c.781.7810843.606 1.7997983-.391 2.2753683z" fill="#f7e9df"/><path d="m238.795 70.7978c-.997.4756-2.438.2279-3.219-.5531l-25.37-25.3722c-.781-.7811-.606-1.7998.391-2.2753l8.449-4.0301c.997-.4756 2.438-.2279 3.219.5531l25.37 25.3722c.781.7811.606 1.7998-.391 2.2753z" fill="#f7e9df"/><path d="m315.971 33.9834c-.997.4756-2.438.2279-3.219-.5532l-31.105-31.10784c-.781-.78108-.606-1.7998.391-2.2753649l8.448-4.0301051c.997-.47556 2.439-.22789 3.22.5532l31.105 31.10781c.781.7811.606 1.7998-.391 2.2754z" fill="#f7e9df"/></g><rect fill="#fbf2eb" height="42.9056" rx="8" transform="matrix(.90257 -.430543 .707074 .707139 303.17 291.614)" width="536.996"/><path clip-rule="evenodd" d="m369.064 278.171c-.781-.781-.606-1.799.391-2.275l71.339-34.03c.997-.476 2.439-.228 3.22.553l6.958 6.958c.781.781.605 1.8-.391 2.276l-71.34 34.03c-.997.476-2.438.228-3.219-.553z" fill="#ead6c7" fill-rule="evenodd"/><path clip-rule="evenodd" d="m537.7 197.728c-.781-.781-.606-1.8.391-2.275l141.293-67.4c.997-.475 2.439-.228 3.22.553l6.958 6.959c.781.781.605 1.8-.391 2.275l-141.293 67.4c-.997.475-2.439.228-3.22-.553z" fill="#ead6c7" fill-rule="evenodd"/><ellipse fill="#ead6c7" rx="9.68808" ry="9.68839" transform="matrix(.90257 -.430543 .707074 .707139 342.562 295.952)"/><rect fill="#fbf2eb" height="42.9056" rx="8" transform="matrix(.90257 -.430543 .707074 .707139 264.025 252.465)" width="536.996"/><path clip-rule="evenodd" d="m329.919 239.023c-.781-.781-.606-1.8.391-2.276l38.861-18.537c.997-.476 2.439-.228 3.22.553l6.958 6.958c.781.782.606 1.8-.391 2.276l-38.862 18.537c-.997.476-2.438.228-3.219-.553z" fill="#ead6c7" fill-rule="evenodd"/><path clip-rule="evenodd" d="m498.556 158.579c-.781-.781-.606-1.799.391-2.275l80.084-38.202c.997-.475 2.438-.227 3.219.554l6.958 6.958c.781.781.606 1.8-.391 2.276l-80.084 38.201c-.997.476-2.438.228-3.219-.553z" fill="#ead6c7" fill-rule="evenodd"/><ellipse fill="#ead6c7" rx="9.68808" ry="9.68837" transform="matrix(.90257 -.430543 .707074 .707139 303.418 256.803)"/><rect fill="#fbf2eb" height="42.9055" rx="8" transform="matrix(.90257 -.430543 .707074 .707139 224.88 213.316)" width="536.996"/><path clip-rule="evenodd" d="m290.774 199.874c-.781-.781-.606-1.8.391-2.275l55.1-26.284c.997-.476 2.438-.228 3.219.553l6.958 6.958c.781.781.606 1.8-.391 2.276l-55.1 26.284c-.997.475-2.438.228-3.22-.553z" fill="#ead6c7" fill-rule="evenodd"/><path clip-rule="evenodd" d="m459.41 119.431c-.781-.781-.606-1.8.391-2.276l191.26-91.2343c.997-.4755 2.438-.2279 3.219.5532l6.958 6.9586c.781.7811.606 1.7998-.391 2.2754l-191.259 91.2341c-.997.476-2.439.228-3.22-.553z" fill="#ead6c7" fill-rule="evenodd"/><ellipse fill="#ead6c7" rx="9.68808" ry="9.68835" transform="matrix(.90257 -.430543 .707074 .707139 264.272 217.654)"/><g filter="url(#c)" opacity=".3"><rect fill="#5772ff" height="42.9056" rx="8" transform="matrix(.90257 -.430543 .707074 .707139 224.085 164.547)" width="513.468"/></g><rect fill="#5772ff" height="42.9055" rx="8" transform="matrix(.90257 -.430543 .707074 .707139 192.458 155.06)" width="536.996"/><path clip-rule="evenodd" d="m258.352 141.617c-.781-.781-.606-1.8.391-2.275l81.333-38.798c.997-.475 2.438-.228 3.219.553l6.958 6.959c.781.781.606 1.8-.391 2.275l-81.333 38.798c-.997.475-2.438.228-3.219-.553z" fill="#95a6ff" fill-rule="evenodd"/><path clip-rule="evenodd" d="m426.988 61.1738c-.781-.7811-.606-1.7998.391-2.2754l121.307-57.86543c.997-.475561 2.438-.22789 3.219.55319l6.958 6.95862c.781.78108.606 1.79982-.391 2.27532l-121.306 57.8655c-.997.4756-2.439.2279-3.22-.5532z" fill="#95a6ff" fill-rule="evenodd"/><ellipse fill="#95a6ff" rx="9.68808" ry="9.68835" transform="matrix(.90257 -.430543 .707074 .707139 231.85 159.397)"/></g></svg>