<svg fill="none" height="480" viewBox="0 0 1200 480" width="1200" xmlns="http://www.w3.org/2000/svg" xmlns:xlink="http://www.w3.org/1999/xlink"><filter id="a" color-interpolation-filters="sRGB" filterUnits="userSpaceOnUse" height="866.116" width="1254.76" x="-184.887" y="-167.569"><feFlood flood-opacity="0" result="BackgroundImageFix"/><feColorMatrix in="SourceAlpha" type="matrix" values="0 0 0 0 0 0 0 0 0 0 0 0 0 0 0 0 0 0 127 0"/><feMorphology in="SourceAlpha" operator="erode" radius="10" result="effect1_dropShadow"/><feOffset dy="25"/><feGaussianBlur stdDeviation="25"/><feColorMatrix type="matrix" values="0 0 0 0 0.913725 0 0 0 0 0.85098 0 0 0 0 0.647059 0 0 0 0.35 0"/><feBlend in2="BackgroundImageFix" mode="normal" result="effect1_dropShadow"/><feBlend in="SourceGraphic" in2="effect1_dropShadow" mode="normal" result="shape"/></filter><filter id="b" color-interpolation-filters="sRGB" filterUnits="userSpaceOnUse" height="301.201" width="536.093" x="366.285" y="97.458"><feFlood flood-opacity="0" result="BackgroundImageFix"/><feBlend in="SourceGraphic" in2="BackgroundImageFix" mode="normal" result="shape"/><feGaussianBlur result="effect1_foregroundBlur" stdDeviation="15"/></filter><filter id="c" color-interpolation-filters="sRGB" filterUnits="userSpaceOnUse" height="866.116" width="1254.76" x="641.113" y="142.432"><feFlood flood-opacity="0" result="BackgroundImageFix"/><feColorMatrix in="SourceAlpha" type="matrix" values="0 0 0 0 0 0 0 0 0 0 0 0 0 0 0 0 0 0 127 0"/><feMorphology in="SourceAlpha" operator="erode" radius="10" result="effect1_dropShadow"/><feOffset dy="25"/><feGaussianBlur stdDeviation="25"/><feColorMatrix type="matrix" values="0 0 0 0 0.913725 0 0 0 0 0.85098 0 0 0 0 0.647059 0 0 0 0.35 0"/><feBlend in2="BackgroundImageFix" mode="normal" result="effect1_dropShadow"/><feBlend in="SourceGraphic" in2="effect1_dropShadow" mode="normal" result="shape"/></filter><filter id="d" color-interpolation-filters="sRGB" filterUnits="userSpaceOnUse" height="301.201" width="536.093" x="1192.29" y="407.458"><feFlood flood-opacity="0" result="BackgroundImageFix"/><feBlend in="SourceGraphic" in2="BackgroundImageFix" mode="normal" result="shape"/><feGaussianBlur result="effect1_foregroundBlur" stdDeviation="15"/></filter><filter id="e" color-interpolation-filters="sRGB" filterUnits="userSpaceOnUse" height="866.116" width="1254.76" x="620.113" y="-558.569"><feFlood flood-opacity="0" result="BackgroundImageFix"/><feColorMatrix in="SourceAlpha" type="matrix" values="0 0 0 0 0 0 0 0 0 0 0 0 0 0 0 0 0 0 127 0"/><feMorphology in="SourceAlpha" operator="erode" radius="10" result="effect1_dropShadow"/><feOffset dy="25"/><feGaussianBlur stdDeviation="25"/><feColorMatrix type="matrix" values="0 0 0 0 0.9125 0 0 0 0 0.852012 0 0 0 0 0.646354 0 0 0 1 0"/><feBlend in2="BackgroundImageFix" mode="normal" result="effect1_dropShadow"/><feBlend in="SourceGraphic" in2="effect1_dropShadow" mode="normal" result="shape"/></filter><filter id="f" color-interpolation-filters="sRGB" filterUnits="userSpaceOnUse" height="301.201" width="536.093" x="1171.29" y="-293.542"><feFlood flood-opacity="0" result="BackgroundImageFix"/><feBlend in="SourceGraphic" in2="BackgroundImageFix" mode="normal" result="shape"/><feGaussianBlur result="effect1_foregroundBlur" stdDeviation="15"/></filter><mask id="g" height="480" maskUnits="userSpaceOnUse" width="1200" x="0" y="0"><path d="m0 0h1200v480h-1200z" fill="#ead9cc"/></mask><path d="m0 0h1200v480h-1200z" fill="#f3e9c7"/><g mask="url(#g)"><g filter="url(#a)"><rect fill="#fff" height="622.029" rx="24" transform="matrix(.902585 -.430511 .707107 .707107 -156 201.138)" width="838.858"/></g><rect fill="#fbf2eb" height="391.648" rx="8" transform="matrix(.902585 -.430511 .707107 .707107 16.0742 317.208)" width="185.66"/><rect fill="#fbf2eb" height="299.495" rx="8" transform="matrix(.902585 -.430511 .707107 .707107 117.382 113.201)" width="525.811"/><rect fill="#fff" height="113.835" rx="8" transform="matrix(.902585 -.430511 .707107 .707107 260.771 213.232)" width="298.14"/><rect fill="#fbf2eb" height="107.059" rx="8" transform="matrix(.902585 -.430511 .707107 .707107 -89.334 211.799)" width="185.66"/><path clip-rule="evenodd" d="m153.379 380.443c-1.562-1.562-1.212-3.6.782-4.551l66.17-31.561c1.993-.951 4.876-.456 6.438 1.106l3.926 3.926c1.562 1.562 1.212 3.6-.782 4.551l-66.169 31.561c-1.994.951-4.877.456-6.439-1.107z" fill="#ead6c7" fill-rule="evenodd"/><path clip-rule="evenodd" d="m278.911 505.975c-1.562-1.562-1.212-3.6.782-4.551l66.17-31.561c1.994-.951 4.876-.455 6.439 1.107l3.925 3.925c1.562 1.562 1.212 3.6-.782 4.551l-66.169 31.561c-1.994.951-4.877.456-6.439-1.106z" fill="#ead6c7" fill-rule="evenodd"/><path clip-rule="evenodd" d="m172.545 399.608c-1.562-1.562-1.212-3.599.782-4.55l66.17-31.561c1.993-.952 4.876-.456 6.438 1.106l3.926 3.926c1.562 1.562 1.212 3.599-.782 4.55l-66.169 31.561c-1.994.951-4.877.456-6.439-1.106z" fill="#ead6c7" fill-rule="evenodd"/><path clip-rule="evenodd" d="m666.784 124.239c-1.563-1.562-1.213-3.599.781-4.55l66.17-31.5613c1.994-.9511 4.876-.4558 6.439 1.1063l3.925 3.9258c1.562 1.5621 1.212 3.5994-.782 4.5505l-66.169 31.5607c-1.994.952-4.877.456-6.439-1.106z" fill="#ead6c7" fill-rule="evenodd"/><path clip-rule="evenodd" d="m645.701 103.158c-1.562-1.563-1.212-3.5999.782-4.5509l66.17-31.5612c1.994-.9511 4.876-.4557 6.439 1.1064l3.925 3.9257c1.562 1.5621 1.212 3.5994-.782 4.5505l-66.169 31.5615c-1.994.951-4.877.455-6.439-1.107z" fill="#ead6c7" fill-rule="evenodd"/><path clip-rule="evenodd" d="m625.578 83.0342c-1.562-1.5621-1.212-3.5994.782-4.5504l66.17-31.5612c1.994-.9511 4.876-.4557 6.439 1.1064l3.925 3.9257c1.562 1.5621 1.212 3.5994-.782 4.5505l-66.169 31.5612c-1.994.951-4.877.4557-6.439-1.1064z" fill="#ead6c7" fill-rule="evenodd"/><path clip-rule="evenodd" d="m605.454 62.9107c-1.562-1.5621-1.212-3.5994.782-4.5505l66.17-31.5612c1.994-.951 4.876-.4557 6.438 1.1064l3.926 3.9258c1.562 1.5621 1.212 3.5994-.782 4.5504l-66.169 31.5612c-1.994.9511-4.877.4557-6.439-1.1064z" fill="#ead6c7" fill-rule="evenodd"/><rect fill="#ead6c7" height="13.5518" rx="5" transform="matrix(.902585 -.430511 .707107 .707107 126.088 389.283)" width="13.5518"/><rect fill="#ead6c7" height="13.5518" rx="5" transform="matrix(.902585 -.430511 .707107 .707107 145.253 408.448)" width="13.5518"/><rect fill="#ead6c7" height="13.5518" rx="5" transform="matrix(.902585 -.430511 .707107 .707107 639.491 133.079)" width="13.5519"/><rect fill="#ead6c7" height="13.5518" rx="5" transform="matrix(.902585 -.430511 .707107 .707107 618.409 111.998)" width="13.5519"/><rect fill="#ead6c7" height="13.5518" rx="5" transform="matrix(.902585 -.430511 .707107 .707107 598.286 91.8743)" width="13.5519"/><rect fill="#ead6c7" height="13.5518" rx="5" transform="matrix(.902585 -.430511 .707107 .707107 578.163 71.7507)" width="13.5519"/><g clip-rule="evenodd" fill-rule="evenodd"><path d="m66.6292 329.825c-1.5621-1.563-1.212-3.6.7819-4.551l107.7569-51.397c1.994-.952 4.877-.456 6.439 1.106l8.717 8.717c1.562 1.562 1.212 3.599-.782 4.55l-107.757 51.398c-1.9939.951-4.8767.456-6.4388-1.106z" fill="#ead6c7"/><path d="m171.87 122.526c-1.562-1.562-1.212-3.6.782-4.551l341.383-162.8308c1.994-.951 4.876-.4557 6.438 1.1064l8.717 8.7171c1.562 1.5621 1.212 3.5994-.782 4.5504l-341.382 162.8309c-1.994.951-4.876.456-6.439-1.106z" fill="#ead6c7"/><path d="m89.172 352.367c-.781-.781-.606-1.8.391-2.275l61.218-29.2c.997-.475 2.438-.228 3.219.554l6.754 6.754c.781.781.606 1.799-.391 2.275l-61.2174 29.199c-.997.476-2.4384.228-3.2194-.553z" fill="#fff"/><path d="m194.413 145.068c-.781-.781-.606-1.8.391-2.275l249.586-119.0464c.997-.4755 2.438-.2278 3.219.5532l6.754 6.7542c.781.781.606 1.7997-.391 2.2752l-249.585 119.0458c-.997.476-2.439.228-3.22-.553z" fill="#fff"/><path d="m213.578 164.233c-.781-.781-.606-1.8.391-2.275l117.484-56.037c.996-.475 2.438-.228 3.219.553l6.754 6.755c.781.781.606 1.799-.391 2.275l-117.483 56.036c-.997.476-2.439.228-3.22-.553z" fill="#fff"/><path d="m172.54 435.735c-.781-.781-.606-1.8.391-2.275l61.218-29.199c.997-.476 2.438-.228 3.219.553l6.754 6.754c.781.781.606 1.8-.391 2.275l-61.217 29.199c-.997.476-2.439.228-3.22-.553z" fill="#fff"/><path d="m208.954 472.149c-.781-.781-.606-1.8.391-2.275l85.681-40.868c.997-.475 2.438-.228 3.22.553l6.754 6.755c.781.781.606 1.799-.391 2.275l-85.681 40.867c-.997.476-2.439.228-3.22-.553z" fill="#fff"/><path d="m106.42 369.615c-.781-.781-.606-1.799.391-2.275l83.235-39.701c.997-.475 2.438-.228 3.219.553l6.754 6.755c.781.781.606 1.799-.391 2.275l-83.234 39.701c-.997.475-2.439.228-3.22-.553z" fill="#fff"/><path d="m190.747 453.942c-.781-.781-.606-1.8.391-2.275l106.475-50.786c.997-.476 2.438-.228 3.219.553l6.755 6.754c.781.781.606 1.8-.391 2.276l-106.475 50.785c-.997.476-2.439.228-3.22-.553z" fill="#fff"/><path d="m350.346 276.656c-.997.476-2.438.228-3.219-.553l-8.403-8.403c-.782-.781-.606-1.8.39-2.276l8.198-3.91c.997-.475 2.438-.227 3.219.554l8.404 8.403c.781.781.606 1.8-.391 2.275z" fill="#f7e9df"/><path d="m425.916 240.611c-.996.475-2.438.228-3.219-.554l-8.403-8.403c-.781-.781-.606-1.799.391-2.275l8.197-3.91c.997-.476 2.439-.228 3.22.553l8.403 8.403c.781.781.606 1.8-.391 2.276z" fill="#f7e9df"/><path d="m501.486 204.566c-.997.476-2.439.228-3.22-.553l-26.186-26.187c-.781-.781-.606-1.799.391-2.275l8.197-3.91c.997-.475 2.438-.228 3.219.553l26.187 26.187c.781.781.606 1.8-.391 2.275z" fill="#f7e9df"/><path d="m369.238 267.645c-.997.475-2.439.228-3.22-.553l-15.891-15.891c-.781-.781-.606-1.8.391-2.276l8.198-3.91c.997-.475 2.438-.227 3.219.554l15.891 15.891c.781.781.606 1.799-.391 2.275z" fill="#f7e9df"/><path d="m444.809 231.599c-.997.476-2.438.228-3.219-.553l-19.635-19.635c-.781-.781-.606-1.799.391-2.275l8.197-3.91c.997-.476 2.439-.228 3.22.553l19.635 19.635c.781.781.606 1.8-.391 2.275z" fill="#f7e9df"/><path d="m520.378 195.555c-.997.475-2.438.227-3.219-.554l-15.891-15.891c-.781-.781-.606-1.799.391-2.275l8.197-3.91c.997-.476 2.439-.228 3.22.553l15.891 15.891c.781.781.606 1.8-.391 2.275z" fill="#f7e9df"/><path d="m388.131 258.634c-.997.475-2.438.227-3.219-.554l-8.403-8.403c-.781-.781-.606-1.8.391-2.275l8.197-3.91c.997-.476 2.438-.228 3.219.553l8.404 8.403c.781.781.606 1.8-.391 2.276z" fill="#f7e9df"/><path d="m463.702 222.588c-.997.476-2.439.228-3.22-.553l-14.487-14.487c-.781-.781-.606-1.8.391-2.275l8.198-3.91c.997-.476 2.438-.228 3.219.553l14.487 14.487c.781.781.606 1.8-.391 2.275z" fill="#f7e9df"/><path d="m539.27 186.544c-.997.475-2.438.228-3.219-.553l-23.847-23.847c-.781-.781-.606-1.8.391-2.275l8.197-3.91c.997-.476 2.439-.228 3.22.553l23.846 23.847c.781.781.606 1.799-.391 2.275z" fill="#f7e9df"/><path d="m558.164 177.532c-.997.476-2.439.228-3.22-.553l-28.527-28.527c-.781-.781-.606-1.8.391-2.275l8.198-3.91c.997-.476 2.438-.228 3.219.553l28.527 28.527c.781.781.606 1.8-.391 2.275z" fill="#f7e9df"/><path d="m407.023 249.622c-.997.476-2.438.228-3.219-.553l-24.783-24.783c-.781-.781-.606-1.799.391-2.275l8.197-3.91c.997-.475 2.439-.228 3.22.553l24.782 24.783c.781.781.606 1.8-.391 2.275z" fill="#f7e9df"/><path d="m482.592 213.577c-.997.476-2.438.228-3.219-.553l-30.399-30.398c-.781-.781-.606-1.8.391-2.276l8.198-3.91c.997-.475 2.438-.227 3.219.554l30.399 30.398c.781.781.606 1.8-.391 2.275z" fill="#f7e9df"/><path d="m577.055 168.521c-.997.475-2.438.228-3.219-.553l-37.419-37.419c-.781-.781-.606-1.8.391-2.275l8.198-3.91c.997-.476 2.438-.228 3.219.553l37.419 37.419c.781.781.606 1.799-.391 2.275z" fill="#f7e9df"/></g><ellipse fill="#e9d5c6" rx="27.7812" ry="27.7812" transform="matrix(.902585 -.430511 .707107 .707107 31.3462 208.728)"/><rect fill="#fbf2eb" height="42.0107" rx="8" transform="matrix(.902585 -.430511 .707107 .707107 470.021 465.84)" width="525.811"/><path clip-rule="evenodd" d="m534.571 452.708c-.781-.781-.606-1.8.391-2.275l69.78-33.283c.997-.476 2.438-.228 3.22.553l6.754 6.754c.781.781.606 1.8-.391 2.275l-69.78 33.284c-.997.475-2.438.227-3.219-.554z" fill="#ead6c7" fill-rule="evenodd"/><path clip-rule="evenodd" d="m699.699 373.946c-.781-.781-.606-1.799.391-2.275l138.277-65.955c.997-.475 2.439-.227 3.22.554l6.754 6.754c.781.781.606 1.799-.391 2.275l-138.277 65.955c-.997.475-2.438.228-3.219-.553z" fill="#ead6c7" fill-rule="evenodd"/><ellipse fill="#ead6c7" rx="9.48628" ry="9.4863" transform="matrix(.902585 -.430511 .707107 .707107 508.593 470.087)"/><rect fill="#fbf2eb" height="42.0107" rx="8" transform="matrix(.902585 -.430511 .707107 .707107 431.69 427.51)" width="525.811"/><path clip-rule="evenodd" d="m496.241 414.378c-.781-.781-.606-1.8.391-2.275l37.978-18.114c.997-.476 2.438-.228 3.219.553l6.754 6.754c.781.781.606 1.8-.391 2.275l-37.977 18.114c-.997.476-2.438.228-3.22-.553z" fill="#ead6c7" fill-rule="evenodd"/><path clip-rule="evenodd" d="m661.369 335.616c-.781-.781-.606-1.799.391-2.275l78.342-37.367c.997-.476 2.438-.228 3.22.553l6.754 6.754c.781.781.606 1.8-.391 2.276l-78.342 37.367c-.997.475-2.439.228-3.22-.554z" fill="#ead6c7" fill-rule="evenodd"/><circle fill="#ead6c7" r="9.48628" transform="matrix(.902585 -.430511 .707107 .707107 470.263 431.757)"/><rect fill="#fbf2eb" height="42.0107" rx="8" transform="matrix(.902585 -.430511 .707107 .707107 393.36 389.18)" width="525.811"/><path clip-rule="evenodd" d="m457.911 376.048c-.781-.782-.606-1.8.391-2.276l53.879-25.698c.997-.476 2.438-.228 3.219.553l6.754 6.754c.781.781.606 1.8-.391 2.275l-53.878 25.699c-.997.475-2.438.228-3.22-.553z" fill="#ead6c7" fill-rule="evenodd"/><path clip-rule="evenodd" d="m623.039 297.286c-.781-.781-.606-1.8.391-2.275l187.204-89.292c.997-.476 2.438-.228 3.219.553l6.755 6.754c.781.781.606 1.8-.391 2.275l-187.204 89.292c-.997.476-2.439.228-3.22-.553z" fill="#ead6c7" fill-rule="evenodd"/><ellipse fill="#ead6c7" rx="9.48628" ry="9.48627" transform="matrix(.902585 -.430511 .707107 .707107 431.933 393.427)"/><g filter="url(#b)" opacity=".3"><rect fill="#ff6501" height="42.0107" rx="8" transform="matrix(.902585 -.430511 .707107 .707107 392.581 341.43)" width="502.773"/></g><rect fill="#ff6501" height="42.0107" rx="8" transform="matrix(.902585 -.430511 .707107 .707107 361.613 332.141)" width="525.811"/><path clip-rule="evenodd" d="m426.164 319.008c-.781-.781-.606-1.799.391-2.275l79.565-37.95c.997-.476 2.439-.228 3.22.553l6.754 6.754c.781.781.606 1.8-.391 2.275l-79.565 37.951c-.997.475-2.439.228-3.22-.553z" fill="#ffb585" fill-rule="evenodd"/><path clip-rule="evenodd" d="m591.292 240.247c-.781-.781-.606-1.8.391-2.276l118.707-56.62c.997-.475 2.438-.227 3.219.554l6.754 6.754c.781.781.606 1.799-.391 2.275l-118.706 56.62c-.997.476-2.439.228-3.22-.553z" fill="#ffb585" fill-rule="evenodd"/><ellipse fill="#ffb585" rx="9.48628" ry="9.48627" transform="matrix(.902585 -.430511 .707107 .707107 400.186 336.388)"/><path d="m31.4782 207.957h-.0005c2.9098-1.388 3.3383-4.444.957-6.825-2.3816-2.382-6.6714-3.187-9.5815-1.799-2.9106 1.388-3.3386 4.443-.9578 6.825h-.0004c2.3808 2.381 6.6709 3.187 9.5806 1.799zm1.2321 1.232c-3.2659 1.558-8.1345 6.318-4.8573 9.596l2.464 2.464 19.5707-9.335-2.464-2.464c-3.2772-3.277-11.4476-1.819-14.7134-.261z" fill="#fbf2eb"/><path d="m588.291 305.731c20.445 37.831 3.167 80.422-33.273 107.572" stroke="#ff6501" stroke-dasharray="6 6" stroke-linecap="round" stroke-width="2"/><path d="m578.597 306.67c1.645-4.3 3.336-8.124-.061-13.753 2.922 2.429 9.614 5.618 17.683 8.501" stroke="#ff6501" stroke-dasharray="6 6" stroke-linecap="round" stroke-width="2"/><g filter="url(#c)"><rect fill="#fff" height="622.029" rx="24" transform="matrix(.902585 -.430511 .707107 .707107 670 511.138)" width="838.858"/></g><rect fill="#fbf2eb" height="299.495" rx="8" transform="matrix(.902585 -.430511 .707107 .707107 943.382 423.201)" width="525.811"/><rect fill="#fff" height="113.835" rx="8" transform="matrix(.902585 -.430511 .707107 .707107 1086.77 523.232)" width="298.14"/><rect fill="#fbf2eb" height="107.059" rx="8" transform="matrix(.902585 -.430511 .707107 .707107 736.666 521.799)" width="185.66"/><path clip-rule="evenodd" d="m997.87 432.526c-1.562-1.562-1.212-3.6.782-4.551l341.378-162.831c2-.951 4.88-.455 6.44 1.107l8.72 8.717c1.56 1.562 1.21 3.599-.78 4.55l-341.38 162.831c-2 .951-4.88.456-6.44-1.106z" fill="#ead6c7" fill-rule="evenodd"/><path clip-rule="evenodd" d="m1020.41 455.068c-.78-.781-.6-1.8.39-2.275l249.59-119.046c1-.476 2.44-.228 3.22.553l6.75 6.754c.78.781.61 1.8-.39 2.275l-249.58 119.046c-1 .476-2.44.228-3.22-.553z" fill="#fff" fill-rule="evenodd"/><path clip-rule="evenodd" d="m1039.58 474.233c-.78-.781-.61-1.8.39-2.275l117.48-56.037c1-.475 2.44-.228 3.22.553l6.76 6.755c.78.781.6 1.799-.39 2.275l-117.49 56.036c-1 .476-2.44.228-3.22-.553z" fill="#fff" fill-rule="evenodd"/><g filter="url(#d)" opacity=".3"/><rect fill="#ff6501" height="42.0107" rx="8" transform="matrix(.902585 -.430511 .707107 .707107 1187.61 642.141)" width="525.811"/><g filter="url(#e)"><rect fill="#fff" height="622.029" rx="24" transform="matrix(.902585 -.430511 .707107 .707107 649 -189.862)" width="838.858"/></g><rect fill="#fbf2eb" height="391.648" rx="8" transform="matrix(.902585 -.430511 .707107 .707107 821.074 -73.792)" width="185.66"/><path clip-rule="evenodd" d="m1103.08 134.14c-1.57-1.562-1.22-3.599.78-4.551l66.17-31.5607c1.99-.9511 4.87-.4557 6.44 1.1064l3.92 3.9253c1.56 1.563 1.21 3.6-.78 4.551l-66.17 31.561c-1.99.951-4.88.456-6.44-1.106z" fill="#ead6c7" fill-rule="evenodd"/><path clip-rule="evenodd" d="m1083.91 114.975c-1.56-1.562-1.21-3.6.78-4.551l66.17-31.561c2-.9511 4.88-.4557 6.44 1.1064l3.93 3.9257c1.56 1.5621 1.21 3.5994-.78 4.5505l-66.17 31.5614c-2 .951-4.88.455-6.44-1.107z" fill="#ead6c7" fill-rule="evenodd"/><path clip-rule="evenodd" d="m977.545 8.60797c-1.562-1.5621-1.212-3.59941.782-4.55047l66.173-31.5612c1.99-.9511 4.87-.4557 6.44 1.1064l3.92 3.9257c1.56 1.5621 1.21 3.5994-.78 4.5505l-66.17 31.5612c-1.994.9511-4.877.4557-6.439-1.1064z" fill="#ead6c7" fill-rule="evenodd"/><path clip-rule="evenodd" d="m1122.24 153.305c-1.56-1.562-1.21-3.599.78-4.55l66.17-31.562c2-.951 4.88-.455 6.44 1.107l3.93 3.925c1.56 1.563 1.21 3.6-.78 4.551l-66.17 31.561c-2 .951-4.88.456-6.44-1.106z" fill="#ead6c7" fill-rule="evenodd"/><rect fill="#ead6c7" height="13.5518" rx="5" transform="matrix(.902585 -.430511 .707107 .707107 931.088 -1.71729)" width="13.5518"/><rect fill="#ead6c7" height="13.5519" rx="5" transform="matrix(.902585 -.430511 .707107 .707107 1075.79 142.98)" width="13.5518"/><rect fill="#ead6c7" height="13.5518" rx="5" transform="matrix(.902585 -.430511 .707107 .707107 1056.62 123.815)" width="13.5518"/><rect fill="#ead6c7" height="13.5518" rx="5" transform="matrix(.902585 -.430511 .707107 .707107 950.253 17.448)" width="13.5518"/><rect fill="#ead6c7" height="13.5518" rx="5" transform="matrix(.902585 -.430511 .707107 .707107 1094.95 162.145)" width="13.5518"/><path clip-rule="evenodd" d="m977.54 44.7353c-.781-.7811-.606-1.7997.391-2.2753l61.219-29.1993c1-.4755 2.44-.2278 3.22.5532l6.75 6.7542c.78.7811.61 1.7997-.39 2.2753l-61.216 29.1992c-.997.4756-2.439.2279-3.22-.5532z" fill="#fff" fill-rule="evenodd"/><path clip-rule="evenodd" d="m1013.95 81.1491c-.78-.7811-.6-1.7997.4-2.2753l85.68-40.8677c.99-.4755 2.43-.2278 3.22.5532l6.75 6.7542c.78.7811.61 1.7997-.39 2.2752l-85.68 40.8677c-1 .4756-2.44.2279-3.22-.5531z" fill="#fff" fill-rule="evenodd"/><path clip-rule="evenodd" d="m995.747 62.942c-.781-.781-.606-1.7997.391-2.2752l106.472-50.78586c1-.47553 2.44-.22785 3.22.55316l6.76 6.7542c.78.781.6 1.7997-.39 2.2752l-106.48 50.7859c-1 .4755-2.44.2279-3.22-.5532z" fill="#fff" fill-rule="evenodd"/><rect fill="#fbf2eb" height="42.0107" rx="8" transform="matrix(.902585 -.430511 .707107 .707107 1198.36 -1.82031)" width="525.811"/><g filter="url(#f)" opacity=".3"/></g></svg>