<svg fill="none" height="376" viewBox="0 0 632 376" width="632" xmlns="http://www.w3.org/2000/svg" xmlns:xlink="http://www.w3.org/1999/xlink"><filter id="a" color-interpolation-filters="sRGB" filterUnits="userSpaceOnUse" height="712.133" width="1055.23" x="-344.083" y="-74.7285"><feFlood flood-opacity="0" result="BackgroundImageFix"/><feColorMatrix in="SourceAlpha" type="matrix" values="0 0 0 0 0 0 0 0 0 0 0 0 0 0 0 0 0 0 127 0"/><feMorphology in="SourceAlpha" operator="erode" radius="10" result="effect1_dropShadow"/><feOffset dy="25"/><feGaussianBlur stdDeviation="25"/><feColorMatrix type="matrix" values="0 0 0 0 0.8875 0 0 0 0 0.812701 0 0 0 0 0.558385 0 0 0 1 0"/><feBlend in2="BackgroundImageFix" mode="normal" result="effect1_dropShadow"/><feBlend in="SourceGraphic" in2="effect1_dropShadow" mode="normal" result="shape"/></filter><mask id="b" height="376" maskUnits="userSpaceOnUse" width="632" x="0" y="0"><path d="m0 0h632v376h-632z" fill="#ead9cc"/></mask><path d="m0 0h632v376h-632z" fill="#f3e9c7"/><g mask="url(#b)"><g filter="url(#a)"><rect fill="#fff" height="458.277" rx="24" transform="matrix(.90205 -.431632 .705976 .708235 -315.184 255.285)" width="747.076"/></g><rect fill="#fbf2eb" height="288.545" rx="8" transform="matrix(.90205 -.431632 .705976 .708235 -188.611 340.936)" width="266.314"/><rect fill="#fbf2eb" height="220.652" rx="8" transform="matrix(.90205 -.431632 .705976 .708235 2.87402 134.426)" width="387.003"/><rect fill="#fff" height="107.83" rx="8" transform="matrix(.90205 -.431632 .705976 .708235 -52.1245 445.863)" width="219.435"/><rect fill="#fff" height="83.8676" rx="8" transform="matrix(.90205 -.431632 .705976 .708235 108.346 208.24)" width="219.435"/><rect fill="#fbf2eb" height="78.8755" rx="8" transform="matrix(.90205 -.431632 .705976 .708235 -266.146 263.152)" width="266.314"/><path clip-rule="evenodd" d="m407.742 143.315c-1.559-1.564-1.208-3.606.784-4.559l46.768-22.378c1.993-.954 4.872-.459 6.432 1.106l1.401 1.405c1.559 1.565 1.208 3.606-.784 4.56l-46.768 22.378c-1.993.954-4.872.458-6.432-1.106z" fill="#ead6c7" fill-rule="evenodd"/><path clip-rule="evenodd" d="m392.235 127.759c-1.559-1.565-1.208-3.606.785-4.56l46.767-22.378c1.993-.9536 4.873-.458 6.432 1.106l1.401 1.406c1.56 1.564 1.208 3.606-.784 4.559l-46.768 22.378c-1.993.954-4.872.459-6.432-1.106z" fill="#ead6c7" fill-rule="evenodd"/><path clip-rule="evenodd" d="m377.433 112.909c-1.56-1.564-1.208-3.606.784-4.559l46.768-22.3787c1.993-.9535 4.872-.4582 6.432 1.1064l1.401 1.4053c1.559 1.5646 1.208 3.606-.785 4.5595l-46.767 22.3785c-1.993.953-4.873.458-6.432-1.107z" fill="#ead6c7" fill-rule="evenodd"/><path clip-rule="evenodd" d="m362.631 98.0595c-1.56-1.5646-1.209-3.6059.784-4.5595l46.768-22.3783c1.992-.9535 4.872-.4582 6.432 1.1064l1.401 1.4053c1.559 1.5646 1.208 3.6059-.785 4.5595l-46.767 22.3781c-1.993.954-4.873.458-6.432-1.1062z" fill="#ead6c7" fill-rule="evenodd"/><rect fill="#ead6c7" height="9.98425" rx="4.98715" transform="matrix(.90205 -.431632 .705976 .708235 386.924 149.093)" width="9.9743"/><rect fill="#ead6c7" height="9.98424" rx="4.98715" transform="matrix(.90205 -.431632 .705976 .708235 371.417 133.536)" width="9.9743"/><rect fill="#ead6c7" height="9.98424" rx="4.98715" transform="matrix(.90205 -.431632 .705976 .708235 356.615 118.687)" width="9.9743"/><rect fill="#ead6c7" height="9.98424" rx="4.98715" transform="matrix(.90205 -.431632 .705976 .708235 341.812 103.838)" width="9.9743"/><g clip-rule="evenodd" fill-rule="evenodd"><path d="m43.6984 142.053c-1.5596-1.565-1.2084-3.606.7843-4.56l249.2073-119.246c1.993-.9535 4.872-.4581 6.432 1.1065l4.925 4.9409c1.56 1.5646 1.209 3.6059-.784 4.5594l-249.2073 119.2462c-1.9928.954-4.8725.458-6.4321-1.106z" fill="#ead6c7"/><path d="m59.908 158.314c-.7798-.782-.6042-1.803.3922-2.28l182.6368-87.3916c.996-.4768 2.436-.2291 3.216.5532l4.224 4.2382c.78.7823.605 1.803-.392 2.2797l-182.6362 87.3915c-.9964.477-2.4362.229-3.216-.553z" fill="#fff"/><path d="m74.0052 172.457c-.7798-.783-.6042-1.803.3922-2.28l85.4656-40.896c.996-.476 2.436-.229 3.216.554l4.224 4.238c.78.782.605 1.803-.392 2.28l-85.465 40.895c-.9964.477-2.4363.229-3.2161-.553z" fill="#fff"/><path d="m197.92 429.612c-.997.477-2.436.229-3.216-.553l-57.795-57.979c-.779-.783-.604-1.803.393-2.28l5.077-2.429c.996-.477 2.436-.23 3.216.553l57.794 57.979c.78.782.605 1.803-.392 2.28z" fill="#f7e9df"/><path d="m174.712 254.814c-.997.477-2.436.23-3.216-.553l-5.438-5.455c-.78-.782-.604-1.803.392-2.28l5.077-2.429c.997-.477 2.437-.229 3.217.553l5.437 5.455c.78.783.605 1.803-.392 2.28z" fill="#f7e9df"/><path d="m230.299 228.216c-.996.477-2.436.229-3.216-.553l-5.438-5.456c-.779-.782-.604-1.802.393-2.279l5.077-2.43c.996-.477 2.436-.229 3.216.553l5.438 5.456c.78.782.604 1.803-.392 2.279z" fill="#f7e9df"/><path d="m285.886 201.617c-.996.477-2.436.229-3.216-.553l-18.519-18.578c-.779-.782-.604-1.803.393-2.28l5.077-2.429c.996-.477 2.436-.229 3.216.553l18.519 18.578c.779.782.604 1.803-.393 2.28z" fill="#f7e9df"/><path d="m188.608 248.165c-.996.477-2.436.229-3.216-.553l-10.945-10.981c-.78-.782-.605-1.803.392-2.279l5.077-2.43c.997-.477 2.436-.229 3.216.553l10.946 10.981c.78.782.604 1.803-.392 2.28z" fill="#f7e9df"/><path d="m244.196 221.565c-.996.477-2.436.23-3.216-.553l-13.699-13.743c-.78-.782-.605-1.803.392-2.28l5.077-2.429c.997-.477 2.436-.229 3.216.553l13.7 13.743c.779.782.604 1.803-.392 2.28z" fill="#f7e9df"/><path d="m299.783 194.968c-.996.477-2.436.229-3.216-.553l-10.945-10.981c-.78-.782-.605-1.803.392-2.28l5.077-2.429c.996-.477 2.436-.229 3.216.553l10.946 10.981c.779.782.604 1.802-.393 2.279z" fill="#f7e9df"/><path d="m202.505 241.515c-.996.476-2.436.229-3.216-.554l-5.438-5.455c-.779-.782-.604-1.803.393-2.279l5.077-2.43c.996-.477 2.436-.229 3.216.553l5.438 5.455c.78.783.604 1.803-.392 2.28z" fill="#f7e9df"/><path d="m258.093 214.916c-.996.477-2.436.229-3.216-.553l-9.913-9.945c-.779-.782-.604-1.803.392-2.279l5.078-2.43c.996-.477 2.436-.229 3.216.553l9.913 9.945c.779.782.604 1.803-.393 2.28z" fill="#f7e9df"/><path d="m313.68 188.317c-.997.477-2.436.229-3.216-.553l-16.798-16.851c-.78-.782-.604-1.803.392-2.28l5.078-2.429c.996-.477 2.436-.229 3.216.553l16.797 16.851c.78.782.605 1.803-.392 2.28z" fill="#f7e9df"/><path d="m327.577 181.668c-.997.477-2.436.229-3.216-.553l-20.24-20.305c-.78-.782-.604-1.803.392-2.28l5.077-2.429c.997-.477 2.437-.229 3.216.553l20.24 20.305c.78.782.605 1.803-.392 2.279z" fill="#f7e9df"/><path d="m216.402 234.865c-.997.477-2.436.229-3.216-.553l-17.486-17.542c-.78-.782-.605-1.803.392-2.28l5.077-2.429c.997-.477 2.436-.229 3.216.553l17.486 17.542c.78.782.604 1.803-.392 2.28z" fill="#f7e9df"/><path d="m271.989 208.267c-.996.476-2.436.229-3.216-.554l-21.617-21.686c-.78-.782-.604-1.803.392-2.279l5.078-2.43c.996-.477 2.436-.229 3.216.553l21.616 21.686c.78.783.605 1.803-.392 2.28z" fill="#f7e9df"/><path d="m341.474 175.019c-.997.476-2.437.229-3.217-.554l-26.78-26.866c-.78-.782-.604-1.803.392-2.279l5.078-2.43c.996-.477 2.436-.229 3.216.553l26.78 26.866c.78.783.604 1.803-.392 2.28z" fill="#f7e9df"/></g><rect fill="#fbf2eb" height="30.9511" rx="8" transform="matrix(.90205 -.431632 .705976 .708235 262.264 394.646)" width="387.003"/><path clip-rule="evenodd" d="m310.118 385.328c-.78-.783-.604-1.803.392-2.28l50.376-24.105c.996-.477 2.436-.229 3.216.553l4.224 4.238c.78.783.605 1.803-.392 2.28l-50.375 24.105c-.997.477-2.437.229-3.217-.553z" fill="#ead6c7" fill-rule="evenodd"/><path clip-rule="evenodd" d="m431.582 327.207c-.78-.782-.605-1.802.392-2.279l100.761-48.214c.996-.477 2.436-.23 3.216.553l4.224 4.238c.78.782.605 1.803-.392 2.28l-100.761 48.214c-.996.477-2.436.229-3.216-.553z" fill="#ead6c7" fill-rule="evenodd"/><rect fill="#fbf2eb" height="30.9512" rx="8" transform="matrix(.90205 -.431632 .705976 .708235 234.069 366.361)" width="387.003"/><path clip-rule="evenodd" d="m281.923 357.043c-.779-.782-.604-1.803.393-2.279l26.982-12.912c.997-.476 2.436-.229 3.216.554l4.225 4.238c.78.782.604 1.803-.392 2.28l-26.983 12.911c-.996.477-2.436.229-3.216-.553z" fill="#ead6c7" fill-rule="evenodd"/><path clip-rule="evenodd" d="m403.387 298.923c-.78-.782-.604-1.803.392-2.279l56.674-27.119c.996-.477 2.436-.229 3.216.553l4.225 4.238c.78.783.604 1.803-.392 2.28l-56.674 27.119c-.997.477-2.436.229-3.216-.553z" fill="#ead6c7" fill-rule="evenodd"/><ellipse fill="#ead6c7" rx="6.98201" ry="6.98897" transform="matrix(.90205 -.431632 .705976 .708235 262.442 369.496)"/><rect fill="#fbf2eb" height="30.9511" rx="8" transform="matrix(.90205 -.431632 .705976 .708235 205.875 338.076)" width="387.003"/><path clip-rule="evenodd" d="m253.728 328.758c-.779-.782-.604-1.803.393-2.279l38.679-18.509c.996-.476 2.436-.229 3.216.554l4.225 4.238c.779.782.604 1.803-.393 2.28l-38.679 18.508c-.996.477-2.436.229-3.216-.553z" fill="#ead6c7" fill-rule="evenodd"/><path clip-rule="evenodd" d="m375.192 270.638c-.78-.782-.604-1.803.392-2.28l136.75-65.435c.997-.477 2.437-.229 3.216.553l4.225 4.239c.78.782.604 1.803-.392 2.279l-136.75 65.436c-.996.476-2.436.229-3.216-.554z" fill="#ead6c7" fill-rule="evenodd"/><ellipse fill="#ead6c7" rx="6.98201" ry="6.98897" transform="matrix(.90205 -.431632 .705976 .708235 234.247 341.211)"/><rect fill="#fbf2eb" height="30.9511" rx="8" transform="matrix(.90205 -.431632 .705976 .708235 177.68 309.792)" width="387.003"/><path clip-rule="evenodd" d="m225.534 300.474c-.78-.782-.604-1.803.392-2.28l57.574-27.549c.996-.476 2.436-.229 3.216.553l4.225 4.239c.779.782.604 1.803-.393 2.279l-57.573 27.55c-.997.476-2.436.229-3.216-.554z" fill="#ead6c7" fill-rule="evenodd"/><path clip-rule="evenodd" d="m346.998 242.354c-.78-.782-.604-1.803.392-2.28l86.365-41.326c.996-.476 2.436-.229 3.216.554l4.225 4.238c.78.782.604 1.803-.392 2.28l-86.365 41.325c-.997.477-2.437.23-3.216-.553z" fill="#ead6c7" fill-rule="evenodd"/><ellipse fill="#ead6c7" rx="6.98201" ry="6.98897" transform="matrix(.90205 -.431632 .705976 .708235 206.053 312.926)"/></g></svg>