<svg fill="none" height="376" viewBox="0 0 632 376" width="632" xmlns="http://www.w3.org/2000/svg" xmlns:xlink="http://www.w3.org/1999/xlink"><filter id="a" color-interpolation-filters="sRGB" filterUnits="userSpaceOnUse" height="473.196" width="610.015" x="52.9597" y="-109.394"><feFlood flood-opacity="0" result="BackgroundImageFix"/><feColorMatrix in="SourceAlpha" type="matrix" values="0 0 0 0 0 0 0 0 0 0 0 0 0 0 0 0 0 0 127 0"/><feMorphology in="SourceAlpha" operator="erode" radius="10" result="effect1_dropShadow"/><feOffset dy="25"/><feGaussianBlur stdDeviation="25"/><feColorMatrix type="matrix" values="0 0 0 0 0.839216 0 0 0 0 0.721569 0 0 0 0 0.627451 0 0 0 0.35 0"/><feBlend in2="BackgroundImageFix" mode="normal" result="effect1_dropShadow"/><feBlend in="SourceGraphic" in2="effect1_dropShadow" mode="normal" result="shape"/></filter><filter id="b" color-interpolation-filters="sRGB" filterUnits="userSpaceOnUse" height="805.109" width="1249.58" x="-511.87" y="45.0098"><feFlood flood-opacity="0" result="BackgroundImageFix"/><feColorMatrix in="SourceAlpha" type="matrix" values="0 0 0 0 0 0 0 0 0 0 0 0 0 0 0 0 0 0 127 0"/><feMorphology in="SourceAlpha" operator="erode" radius="10" result="effect1_dropShadow"/><feOffset dy="25"/><feGaussianBlur stdDeviation="25"/><feColorMatrix type="matrix" values="0 0 0 0 0.8375 0 0 0 0 0.722344 0 0 0 0 0.628125 0 0 0 1 0"/><feBlend in2="BackgroundImageFix" mode="normal" result="effect1_dropShadow"/><feBlend in="SourceGraphic" in2="effect1_dropShadow" mode="normal" result="shape"/></filter><mask id="c" height="376" maskUnits="userSpaceOnUse" width="632" x="0" y="0"><path d="m0 0h632v376h-632z" fill="#ead9cc"/></mask><path d="m0 0h632v376h-632z" fill="#f2e7de"/><g mask="url(#c)"><g filter="url(#a)"><rect fill="#fff" height="388.387" rx="24" transform="matrix(.902056 -.43162 .705989 .708223 81.8594 31.1865)" width="308.206"/></g><g clip-rule="evenodd" fill-rule="evenodd"><path d="m287.57 69.578c-1.56-1.5646-1.209-3.6059.784-4.5594l116.947-55.95753c1.993-.95351 4.873-.45815 6.432 1.10643l4.926 4.9408c1.559 1.5646 1.208 3.6059-.785 4.5594l-116.947 55.9575c-1.993.9536-4.873.4582-6.432-1.1064z" fill="#ead6c7"/><path d="m303.78 85.8393c-.78-.7823-.605-1.8029.392-2.2797l66.571-31.8534c.997-.4767 2.436-.229 3.216.5532l4.225 4.2382c.78.7823.604 1.803-.392 2.2797l-66.571 31.8534c-.997.4767-2.437.2291-3.217-.5532z" fill="#fbf2eb"/><path d="m313.648 95.7387c-.78-.7823-.604-1.8029.392-2.2797l116.057-55.5315c.996-.4767 2.436-.229 3.216.5532l4.225 4.2382c.78.7823.604 1.8029-.392 2.2797l-116.057 55.5314c-.997.477-2.437.229-3.216-.5531z" fill="#fbf2eb"/><path d="m323.516 105.638c-.78-.782-.604-1.803.392-2.28l90.865-43.4768c.996-.4767 2.436-.229 3.216.5533l4.225 4.2381c.779.7823.604 1.803-.393 2.2797l-90.864 43.4777c-.996.476-2.436.229-3.216-.554z" fill="#fbf2eb"/></g><rect fill="#fbf2eb" height="67.8928" rx="8" transform="matrix(.902056 -.43162 .705989 .708223 197.861 106.229)" width="75.8047"/><path d="m256.559 101.121-17.996 8.61-.001.001c-1.986.952-2.334 2.988-.779 4.55l11.278 11.314-.001-.001c1.558 1.561 4.429 2.056 6.417 1.107l17.996-8.611h-.001c1.986-.952 2.334-2.988.78-4.55l-11.278-11.313c-1.559-1.561-4.43-2.056-6.419-1.107zm-1.68 4.981c1.489-.713 3.646-.342 4.813.83 1.168 1.171.906 2.699-.584 3.413-1.491.713-3.647.341-4.814-.83h-.001c-1.166-1.172-.904-2.699.584-3.413zm-.809 19.185-.001.001c-.994.475-2.431.227-3.209-.554l-2.98-2.989 1.62-6.277v-.001c.325-1.255 1.982-1.994 3.784-1.686l6.507 1.116-1.428 8.335zm18.385-10.886c.779.781.604 1.8-.39 2.276l-11.155 5.337 1.479-8.633c.333-1.145 1.795-1.849 3.459-1.666l4.397.469z" fill="#e9d5c6"/><path clip-rule="evenodd" d="m346.074 128.267c-1.559-1.564-1.208-3.605.784-4.559l116.948-55.9575c1.993-.9535 4.872-.4581 6.432 1.1064l4.925 4.9408c1.56 1.5646 1.209 3.6059-.784 4.5594l-116.947 55.9579c-1.993.953-4.873.458-6.433-1.107z" fill="#ead6c7" fill-rule="evenodd"/><path clip-rule="evenodd" d="m362.284 144.529c-.78-.783-.604-1.803.392-2.28l66.572-31.853c.996-.477 2.436-.229 3.216.553l4.225 4.238c.779.782.604 1.803-.392 2.28l-66.572 31.853c-.996.477-2.436.229-3.216-.553z" fill="#fbf2eb" fill-rule="evenodd"/><path clip-rule="evenodd" d="m372.152 154.428c-.779-.782-.604-1.803.393-2.28l116.057-55.531c.996-.4768 2.436-.2291 3.216.5532l4.224 4.2378c.78.783.605 1.803-.392 2.28l-116.057 55.532c-.996.476-2.436.229-3.216-.554z" fill="#fbf2eb" fill-rule="evenodd"/><path clip-rule="evenodd" d="m382.021 164.328c-.78-.783-.604-1.803.392-2.28l90.864-43.477c.997-.477 2.437-.229 3.216.553l4.225 4.238c.78.782.604 1.803-.392 2.28l-90.864 43.477c-.997.477-2.437.229-3.216-.553z" fill="#fbf2eb" fill-rule="evenodd"/><rect fill="#fbf2eb" height="67.8928" rx="8" transform="matrix(.902056 -.43162 .705989 .708223 256.365 164.919)" width="75.8047"/><path d="m315.063 159.81-17.995 8.611h-.001c-1.986.952-2.335 2.988-.78 4.551l11.278 11.313h-.001c1.558 1.56 4.43 2.055 6.418 1.106l17.996-8.61h-.001c1.985-.952 2.334-2.988.78-4.551l-11.278-11.313c-1.559-1.561-4.43-2.056-6.419-1.107zm-1.679 4.981h-.001c1.49-.713 3.646-.341 4.814.83s.906 2.7-.585 3.413c-1.49.713-3.646.341-4.814-.83v.001c-1.166-1.172-.905-2.699.584-3.413zm-.809 19.186h-.001c-.995.475-2.431.228-3.21-.554l-2.979-2.988 1.62-6.278h-.001c.326-1.256 1.983-1.995 3.784-1.687l6.508 1.117-1.428 8.334zm18.385-10.886c.778.781.604 1.8-.39 2.275l-11.155 5.338 1.479-8.633-.001-.001c.333-1.145 1.796-1.849 3.46-1.665l4.397.469z" fill="#e9d5c6"/><path clip-rule="evenodd" d="m404.579 186.957c-1.56-1.565-1.209-3.606.784-4.559l116.947-55.958c1.993-.954 4.873-.458 6.433 1.106l4.925 4.941c1.56 1.565 1.208 3.606-.784 4.56l-116.948 55.957c-1.993.954-4.872.458-6.432-1.106z" fill="#ead6c7" fill-rule="evenodd"/><path clip-rule="evenodd" d="m420.789 203.218c-.78-.782-.604-1.803.392-2.279l66.571-31.854c.997-.477 2.437-.229 3.216.553l4.225 4.239c.78.782.605 1.802-.392 2.279l-66.571 31.854c-.997.476-2.436.229-3.216-.554z" fill="#fbf2eb" fill-rule="evenodd"/><path clip-rule="evenodd" d="m430.657 213.118c-.78-.783-.604-1.803.392-2.28l116.057-55.532c.997-.476 2.436-.229 3.216.554l4.225 4.238c.78.782.604 1.803-.392 2.279l-116.057 55.532c-.996.477-2.436.229-3.216-.553z" fill="#fbf2eb" fill-rule="evenodd"/><path clip-rule="evenodd" d="m440.526 223.017c-.78-.782-.605-1.803.392-2.28l90.864-43.477c.996-.477 2.436-.229 3.216.553l4.225 4.239c.78.782.604 1.802-.392 2.279l-90.865 43.477c-.996.477-2.436.229-3.216-.553z" fill="#fbf2eb" fill-rule="evenodd"/><rect fill="#fbf2eb" height="67.8928" rx="8" transform="matrix(.902056 -.43162 .705989 .708223 314.87 223.608)" width="75.8047"/><path d="m373.568 218.5-17.996 8.61v.001c-1.986.952-2.335 2.987-.78 4.55l11.278 11.313h-.001c1.558 1.561 4.429 2.056 6.418 1.107l17.995-8.611c1.985-.952 2.334-2.988.779-4.55l-11.277-11.313c-1.559-1.561-4.431-2.056-6.419-1.107zm-1.68 4.981c1.49-.714 3.646-.342 4.814.83 1.167 1.171.905 2.699-.585 3.412-1.491.714-3.646.342-4.814-.829-1.167-1.172-.905-2.699.583-3.413zm-.809 19.185c-.995.476-2.431.228-3.21-.553l-2.979-2.989 1.619-6.277v-.001c.325-1.255 1.983-1.994 3.784-1.686l6.507 1.116-1.428 8.335zm18.386-10.886c.778.781.603 1.8-.39 2.276l-11.156 5.337 1.479-8.633c.333-1.145 1.795-1.849 3.459-1.666l4.397.469z" fill="#e9d5c6"/><path clip-rule="evenodd" d="m192.835 19.8681c-1.56-1.5646-1.209-3.6059.784-4.5594l106.151-50.7915c1.992-.9535 4.872-.4581 6.432 1.1064l4.925 4.9409c1.56 1.5645 1.208 3.6058-.784 4.5593l-106.151 50.7915c-1.993.9535-4.872.4581-6.432-1.1064z" fill="#ead6c7" fill-rule="evenodd"/><path clip-rule="evenodd" d="m212.615 49.0424c-.78-.7823-.604-1.8029.392-2.2797l121.455-58.1145c.997-.4768 2.437-.2291 3.216.5532l5.635 5.65237c.78.78228.604 1.80293-.392 2.27968l-121.455 58.11455c-.997.4768-2.437.2291-3.217-.5532z" fill="#fbf2eb" fill-rule="evenodd"/><path clip-rule="evenodd" d="m184.437 44.7709c-.78-.7822-.605-1.8029.392-2.2796l153.846-73.613c.996-.4768 2.436-.2291 3.216.5532l5.634 5.6524c.78.7822.605 1.8029-.392 2.2797l-153.846 73.6129c-.996.4768-2.436.2291-3.216-.5532z" fill="#fbf2eb" fill-rule="evenodd"/><g filter="url(#b)"><rect fill="#fff" height="458.277" rx="24" transform="matrix(.902056 -.43162 .705989 .708223 -482.97 468.005)" width="962.521"/></g><path clip-rule="evenodd" d="m243.47 335.563c-1.56-1.564-1.209-3.606.784-4.559l215.919-103.314c1.993-.953 4.872-.458 6.432 1.107l4.925 4.94c1.56 1.565 1.209 3.606-.784 4.56l-215.919 103.314c-1.992.953-4.872.458-6.432-1.107z" fill="#ead6c7" fill-rule="evenodd"/><path clip-rule="evenodd" d="m259.68 351.825c-.78-.783-.604-1.803.392-2.28l98.962-47.352c.996-.477 2.436-.229 3.216.553l4.225 4.239c.78.782.604 1.802-.392 2.279l-98.962 47.352c-.997.477-2.437.229-3.216-.553z" fill="#fbf2eb" fill-rule="evenodd"/><path clip-rule="evenodd" d="m269.548 361.724c-.78-.782-.604-1.803.392-2.28l178.139-85.236c.997-.477 2.436-.229 3.216.553l4.225 4.238c.78.782.604 1.803-.392 2.28l-178.139 85.236c-.996.477-2.436.23-3.216-.553z" fill="#fbf2eb" fill-rule="evenodd"/><rect fill="#fbf2eb" height="157.751" rx="8" transform="matrix(.902056 -.43162 .705989 .708223 119.407 211.108)" width="288.258"/><rect fill="#fbf2eb" height="157.751" rx="8" transform="matrix(.902056 -.43162 .705989 .708223 -164.91 347.149)" width="288.257"/><path d="m305.929 180.348-34.063 16.298-.001.001c-3.76 1.802-4.39 5.686-1.409 8.68l21.616 21.685-.002-.001c2.986 2.991 8.451 3.958 12.215 2.162l34.063-16.299-.001.001c3.758-1.803 4.388-5.686 1.409-8.681l-21.616-21.684c-2.988-2.991-8.453-3.958-12.217-2.162zm-3.112 9.495-.001.001c2.82-1.351 6.924-.625 9.162 1.621 2.238 2.244 1.765 5.161-1.056 6.51-2.822 1.351-6.925.624-9.163-1.621l-.001.001c-2.235-2.246-1.762-5.159 1.055-6.511zm-1.23 36.619h-.001c-1.883.9-4.616.416-6.109-1.081l-5.71-5.729 2.977-11.971-.001-.001c.599-2.394 3.737-3.792 7.165-3.19l12.386 2.181-2.58 15.9zm34.768-20.639c1.492 1.496 1.176 3.44-.705 4.34l-21.116 10.104 2.673-16.469-.001-.001c.615-2.183 3.383-3.516 6.548-3.153l8.364.929z" fill="#e9d5c6"/><path d="m21.6116 316.39-34.063 16.298-.0011.001c-3.7593 1.802-4.3894 5.686-1.4087 8.68l21.61569 21.685-.00191-.001c2.98632 2.991 8.45132 3.958 12.21542 2.162l34.0631-16.299-.0011.001c3.7574-1.803 4.3876-5.686 1.4087-8.681l-21.6157-21.684c-2.9882-2.991-8.4532-3.958-12.2173-2.162zm-3.1118 9.495-.0011.001c2.82-1.351 6.924-.625 9.1624 1.621 2.2376 2.244 1.7643 5.161-1.0565 6.51-2.8219 1.351-6.9248.624-9.1624-1.621l-.0011.001c-2.2354-2.246-1.7626-5.159 1.0546-6.511zm-1.2297 36.619h-.0011c-1.8829.9-4.6163.416-6.1091-1.081l-5.71045-5.729 2.97747-11.971-.00085-.001c.59868-2.394 3.73653-3.792 7.16463-3.19l12.386 2.181-2.5801 15.9zm34.7674-20.639c1.492 1.496 1.1766 3.44-.7044 4.34l-21.1158 10.104 2.6725-16.469-.0008-.001c.6144-2.183 3.3825-3.516 6.5479-3.153l8.3644.929z" fill="#e9d5c6"/><rect fill="#fbf2eb" height="30.9511" rx="8" transform="matrix(.902056 -.43162 .705989 .708223 94.4846 607.364)" width="603.446"/><rect fill="#fbf2eb" height="30.9511" rx="8" transform="matrix(.902056 -.43162 .705989 .708223 66.2896 579.08)" width="603.446"/><path clip-rule="evenodd" d="m437.15 415.209c-.78-.782-.604-1.803.392-2.279l77.368-37.02c.997-.477 2.436-.229 3.216.553l4.225 4.239c.78.782.604 1.802-.392 2.279l-77.368 37.02c-.997.477-2.437.229-3.216-.553z" fill="#ead6c7" fill-rule="evenodd"/><rect fill="#fbf2eb" height="30.9511" rx="8" transform="matrix(.902056 -.43162 .705989 .708223 38.0945 550.796)" width="603.446"/><path clip-rule="evenodd" d="m408.955 386.925c-.78-.782-.605-1.803.392-2.279l41.378-19.8c.997-.476 2.437-.229 3.217.554l4.224 4.238c.78.782.605 1.803-.392 2.28l-41.378 19.799c-.997.476-2.437.229-3.217-.554z" fill="#ead6c7" fill-rule="evenodd"/><rect fill="#fbf2eb" height="30.9512" rx="8" transform="matrix(.902056 -.43162 .705989 .708223 9.89941 522.512)" width="603.446"/><path clip-rule="evenodd" d="m380.76 358.641c-.78-.782-.605-1.803.392-2.28l142.149-68.016c.996-.477 2.436-.229 3.216.553l4.225 4.238c.78.783.604 1.803-.392 2.28l-142.149 68.016c-.997.477-2.437.23-3.217-.553z" fill="#ead6c7" fill-rule="evenodd"/></g></svg>