<svg fill="none" height="376" viewBox="0 0 632 376" width="632" xmlns="http://www.w3.org/2000/svg" xmlns:xlink="http://www.w3.org/1999/xlink"><filter id="a" color-interpolation-filters="sRGB" filterUnits="userSpaceOnUse" height="473.196" width="610.015" x="-104.21" y="69.6494"><feFlood flood-opacity="0" result="BackgroundImageFix"/><feColorMatrix in="SourceAlpha" type="matrix" values="0 0 0 0 0 0 0 0 0 0 0 0 0 0 0 0 0 0 127 0"/><feMorphology in="SourceAlpha" operator="erode" radius="10" result="effect1_dropShadow"/><feOffset dy="25"/><feGaussianBlur stdDeviation="25"/><feColorMatrix type="matrix" values="0 0 0 0 0.886275 0 0 0 0 0.811765 0 0 0 0 0.556863 0 0 0 0.35 0"/><feBlend in2="BackgroundImageFix" mode="normal" result="effect1_dropShadow"/><feBlend in="SourceGraphic" in2="effect1_dropShadow" mode="normal" result="shape"/></filter><filter id="b" color-interpolation-filters="sRGB" filterUnits="userSpaceOnUse" height="805.109" width="1249.58" x="162.651" y="-234.228"><feFlood flood-opacity="0" result="BackgroundImageFix"/><feColorMatrix in="SourceAlpha" type="matrix" values="0 0 0 0 0 0 0 0 0 0 0 0 0 0 0 0 0 0 127 0"/><feMorphology in="SourceAlpha" operator="erode" radius="10" result="effect1_dropShadow"/><feOffset dy="25"/><feGaussianBlur stdDeviation="25"/><feColorMatrix type="matrix" values="0 0 0 0 0.8875 0 0 0 0 0.812701 0 0 0 0 0.558385 0 0 0 1 0"/><feBlend in2="BackgroundImageFix" mode="normal" result="effect1_dropShadow"/><feBlend in="SourceGraphic" in2="effect1_dropShadow" mode="normal" result="shape"/></filter><mask id="c" height="376" maskUnits="userSpaceOnUse" width="632" x="0" y="0"><path d="m0 0h632v376h-632z" fill="#ead9cc"/></mask><path d="m0 0h632v376h-632z" fill="#f3e9c7"/><g mask="url(#c)"><g filter="url(#a)"><rect fill="#fff" height="388.387" rx="24" transform="matrix(.902056 -.43162 .705989 .708223 -75.3105 210.229)" width="308.206"/></g><path clip-rule="evenodd" d="m130.4 248.621c-1.56-1.565-1.209-3.606.784-4.559l116.947-55.958c1.993-.953 4.873-.458 6.432 1.106l4.926 4.941c1.559 1.565 1.208 3.606-.785 4.56l-116.947 55.957c-1.993.954-4.872.458-6.432-1.106z" fill="#ead6c7" fill-rule="evenodd"/><path clip-rule="evenodd" d="m146.61 264.882c-.78-.782-.605-1.803.392-2.279l66.571-31.854c.997-.477 2.436-.229 3.216.553l4.225 4.239c.78.782.604 1.803-.392 2.279l-66.571 31.854c-.997.476-2.437.229-3.216-.554z" fill="#fbf2eb" fill-rule="evenodd"/><path clip-rule="evenodd" d="m156.478 274.782c-.78-.783-.604-1.803.392-2.28l116.057-55.532c.996-.476 2.436-.229 3.216.554l4.225 4.238c.78.782.604 1.803-.392 2.28l-116.057 55.531c-.997.477-2.436.229-3.216-.553z" fill="#fbf2eb" fill-rule="evenodd"/><path clip-rule="evenodd" d="m166.346 284.681c-.78-.782-.604-1.803.392-2.28l90.865-43.477c.996-.477 2.436-.229 3.216.553l4.225 4.239c.779.782.604 1.803-.393 2.279l-90.864 43.477c-.996.477-2.436.23-3.216-.553z" fill="#fbf2eb" fill-rule="evenodd"/><rect fill="#fbf2eb" height="67.8928" rx="8" transform="matrix(.902056 -.43162 .705989 .708223 40.6909 285.272)" width="75.8047"/><path d="m99.3887 280.164-17.9956 8.61-.0006.001c-1.986.952-2.3348 2.987-.7796 4.55l11.2777 11.313h-.001c1.5581 1.561 4.4294 2.056 6.418 1.107l17.9954-8.611c1.985-.952 2.333-2.988.779-4.55l-11.277-11.313c-1.56-1.561-4.431-2.056-6.4195-1.107zm-1.6795 4.981h-.0005c1.4898-.714 3.6463-.342 4.8143.83 1.167 1.171.905 2.699-.585 3.413-1.491.713-3.6467.341-4.8141-.83h-.0006c-1.1663-1.172-.9046-2.699.5838-3.413zm-.8092 19.185h-.0006c-.9947.476-2.4309.228-3.2097-.553l-2.9794-2.989 1.6197-6.277-.0004-.001c.3256-1.255 1.9829-1.994 3.784-1.686l6.5074 1.116-1.428 8.335zm18.385-10.886c.779.781.604 1.8-.389 2.276l-11.156 5.337 1.479-8.633c.333-1.145 1.795-1.849 3.459-1.666l4.397.469z" fill="#e9d5c6"/><path clip-rule="evenodd" d="m188.904 307.31c-1.559-1.564-1.208-3.605.785-4.559l116.947-55.958c1.993-.953 4.872-.458 6.432 1.107l4.925 4.941c1.56 1.564 1.209 3.606-.784 4.559l-116.947 55.958c-1.993.953-4.873.458-6.432-1.107z" fill="#ead6c7" fill-rule="evenodd"/><path clip-rule="evenodd" d="m205.114 323.572c-.779-.783-.604-1.803.393-2.28l66.571-31.853c.996-.477 2.436-.229 3.216.553l4.225 4.238c.78.782.604 1.803-.392 2.28l-66.572 31.853c-.996.477-2.436.229-3.216-.553z" fill="#fbf2eb" fill-rule="evenodd"/><path clip-rule="evenodd" d="m214.983 333.471c-.78-.782-.605-1.803.392-2.28l116.057-55.531c.996-.477 2.436-.229 3.216.553l4.225 4.238c.779.783.604 1.803-.393 2.28l-116.057 55.532c-.996.476-2.436.229-3.216-.554z" fill="#fbf2eb" fill-rule="evenodd"/><path clip-rule="evenodd" d="m224.851 343.371c-.78-.783-.604-1.803.392-2.28l90.864-43.477c.997-.477 2.437-.229 3.216.553l4.225 4.238c.78.782.604 1.803-.392 2.28l-90.864 43.477c-.997.477-2.436.229-3.216-.553z" fill="#fbf2eb" fill-rule="evenodd"/><rect fill="#fbf2eb" height="67.8928" rx="8" transform="matrix(.902056 -.43162 .705989 .708223 99.1956 343.962)" width="75.8047"/><path d="m157.893 338.853-17.995 8.611h-.001c-1.986.952-2.335 2.988-.779 4.551l11.277 11.313h-.001c1.558 1.56 4.43 2.055 6.418 1.106l17.996-8.61h-.001c1.985-.953 2.334-2.988.78-4.551l-11.278-11.313c-1.559-1.561-4.43-2.056-6.419-1.107zm-1.679 4.981h-.001c1.49-.713 3.646-.341 4.814.83s.906 2.7-.585 3.413c-1.49.713-3.646.341-4.813-.83l-.001.001c-1.166-1.172-.905-2.699.584-3.413zm-.809 19.186h-.001c-.995.475-2.431.228-3.21-.554l-2.979-2.988 1.62-6.278h-.001c.326-1.256 1.983-1.995 3.784-1.687l6.508 1.117-1.428 8.334zm18.385-10.886c.778.781.604 1.8-.39 2.275l-11.155 5.338 1.479-8.633-.001-.001c.333-1.145 1.796-1.849 3.46-1.665l4.397.469z" fill="#e9d5c6"/><path clip-rule="evenodd" d="m247.409 366c-1.56-1.565-1.209-3.606.784-4.559l116.948-55.958c1.992-.954 4.872-.458 6.432 1.106l4.925 4.941c1.56 1.565 1.208 3.606-.784 4.56l-116.948 55.957c-1.992.954-4.872.458-6.432-1.106z" fill="#ead6c7" fill-rule="evenodd"/><path clip-rule="evenodd" d="m263.619 382.261c-.78-.782-.604-1.803.392-2.28l66.571-31.853c.997-.477 2.437-.229 3.217.553l4.224 4.238c.78.783.605 1.803-.392 2.28l-66.571 31.854c-.996.476-2.436.229-3.216-.554z" fill="#fbf2eb" fill-rule="evenodd"/><path clip-rule="evenodd" d="m273.487 392.161c-.78-.783-.604-1.803.392-2.28l116.057-55.532c.997-.476 2.437-.229 3.216.554l4.225 4.238c.78.782.604 1.803-.392 2.279l-116.057 55.532c-.996.477-2.436.229-3.216-.553z" fill="#fbf2eb" fill-rule="evenodd"/><path clip-rule="evenodd" d="m283.356 402.06c-.78-.782-.605-1.803.392-2.28l90.864-43.477c.996-.477 2.436-.229 3.216.553l4.225 4.238c.78.783.604 1.803-.392 2.28l-90.865 43.477c-.996.477-2.436.229-3.216-.553z" fill="#fbf2eb" fill-rule="evenodd"/><rect fill="#fbf2eb" height="67.8928" rx="8" transform="matrix(.902056 -.43162 .705989 .708223 157.7 402.651)" width="75.8047"/><path clip-rule="evenodd" d="m35.6648 198.911c-1.5596-1.565-1.2085-3.606.7842-4.559l106.151-50.792c1.992-.953 4.872-.458 6.432 1.107l4.925 4.94c1.56 1.565 1.209 3.606-.784 4.56l-106.1508 50.791c-1.9928.954-4.8726.458-6.4322-1.106z" fill="#ead6c7" fill-rule="evenodd"/><path clip-rule="evenodd" d="m55.4449 228.085c-.7798-.782-.6042-1.803.3922-2.279l121.4549-58.115c.997-.477 2.437-.229 3.217.553l5.634 5.653c.78.782.604 1.803-.392 2.279l-121.4554 58.115c-.9964.477-2.4363.229-3.2161-.553z" fill="#fbf2eb" fill-rule="evenodd"/><path clip-rule="evenodd" d="m27.2667 223.814c-.7798-.782-.6042-1.803.3921-2.28l153.8462-73.613c.996-.477 2.436-.229 3.216.553l5.634 5.653c.78.782.605 1.803-.392 2.28l-153.8456 73.612c-.9964.477-2.4363.23-3.2161-.553z" fill="#fbf2eb" fill-rule="evenodd"/><g filter="url(#b)"><rect fill="#fff" height="458.277" rx="24" transform="matrix(.902056 -.43162 .705989 .708223 191.55 188.768)" width="962.521"/></g><path clip-rule="evenodd" d="m633.673 192.367c-1.56-1.564-1.209-3.606.784-4.559l174.531-83.511c1.992-.953 4.872-.458 6.432 1.107l4.925 4.941c1.56 1.564 1.209 3.606-.784 4.559l-174.531 83.51c-1.993.954-4.872.458-6.432-1.106z" fill="#ead6c7" fill-rule="evenodd"/><rect fill="#fbf2eb" height="157.751" rx="8" transform="matrix(.902056 -.43162 .705989 .708223 509.61 67.9121)" width="288.257"/><rect fill="#fbf2eb" height="288.545" rx="8" transform="matrix(.902056 -.43162 .705989 .708223 318.125 274.417)" width="266.314"/><rect fill="#fff" height="107.83" rx="8" transform="matrix(.902056 -.43162 .705989 .708223 454.613 379.343)" width="219.435"/><rect fill="#fbf2eb" height="78.8755" rx="8" transform="matrix(.902056 -.43162 .705989 .708223 240.588 196.635)" width="266.314"/><path clip-rule="evenodd" d="m423.466 320.102c-1.56-1.564-1.208-3.605.784-4.559l46.768-22.378c1.993-.953 4.873-.458 6.432 1.107l1.401 1.405c1.56 1.565 1.209 3.606-.784 4.559l-46.768 22.378c-1.993.954-4.872.458-6.432-1.106z" fill="#ead6c7" fill-rule="evenodd"/><path clip-rule="evenodd" d="m437.564 334.244c-1.56-1.565-1.209-3.606.784-4.559l46.768-22.378c1.993-.954 4.872-.458 6.432 1.106l1.401 1.406c1.559 1.564 1.208 3.606-.784 4.559l-46.768 22.378c-1.993.953-4.873.458-6.432-1.107z" fill="#ead6c7" fill-rule="evenodd"/><rect fill="#ead6c7" height="9.98424" rx="4.98715" transform="matrix(.902056 -.43162 .705989 .708223 402.647 325.879)" width="9.9743"/><rect fill="#ead6c7" height="9.98427" rx="4.98715" transform="matrix(.902056 -.43162 .705989 .708223 416.745 340.021)" width="9.9743"/><g clip-rule="evenodd" fill-rule="evenodd"><path d="m359.654 282.75c-1.559-1.565-1.208-3.606.785-4.559l131.343-62.846c1.993-.954 4.872-.458 6.432 1.106l4.925 4.941c1.56 1.565 1.209 3.606-.784 4.559l-131.343 62.846c-1.993.954-4.873.458-6.432-1.106z" fill="#ead6c7"/><path d="m335.008 180.706c-1.56-1.565-1.209-3.606.784-4.559l131.343-62.846c1.993-.954 4.873-.458 6.432 1.106l4.926 4.941c1.559 1.565 1.208 3.606-.785 4.559l-131.343 62.846c-1.993.954-4.872.458-6.432-1.106z" fill="#ead6c7"/><path d="m375.864 299.011c-.779-.782-.604-1.803.393-2.28l74.668-35.727c.997-.477 2.437-.23 3.217.553l4.224 4.238c.78.782.605 1.803-.392 2.28l-74.669 35.728c-.996.476-2.436.229-3.216-.554z" fill="#fff"/><path d="m348.398 194.139c-.78-.782-.604-1.803.392-2.28l74.669-35.728c.997-.476 2.436-.229 3.216.554l4.225 4.238c.78.782.604 1.803-.392 2.279l-74.669 35.728c-.996.477-2.436.23-3.216-.553z" fill="#fff"/><path d="m388.552 311.74c-.78-.783-.604-1.803.392-2.28l101.661-48.643c.997-.477 2.437-.229 3.216.553l4.225 4.238c.78.782.605 1.803-.392 2.28l-101.661 48.643c-.996.477-2.436.229-3.216-.553z" fill="#fff"/><path d="m649.072 389.69c-.996.477-2.436.23-3.216-.553l-40.878-41.007c-.78-.783-.605-1.803.392-2.28l5.077-2.43c.997-.476 2.436-.229 3.216.554l40.879 41.007c.779.783.604 1.803-.392 2.28z" fill="#f7e9df"/><path d="m607.382 409.639c-.997.476-2.437.229-3.216-.553l-31.01-31.109c-.78-.782-.605-1.803.392-2.279l5.077-2.43c.996-.477 2.436-.229 3.216.553l31.01 31.109c.78.782.604 1.803-.392 2.279z" fill="#f7e9df"/><path d="m621.279 402.989c-.997.477-2.437.229-3.216-.553l-23.257-23.33c-.78-.782-.604-1.803.392-2.28l5.078-2.429c.996-.477 2.436-.229 3.216.553l23.256 23.33c.78.782.604 1.803-.392 2.28z" fill="#f7e9df"/><path d="m635.175 396.34c-.996.477-2.436.229-3.216-.553l-47.222-47.372c-.78-.782-.604-1.803.392-2.28l5.077-2.429c.997-.477 2.437-.229 3.216.553l47.223 47.372c.78.782.604 1.803-.392 2.279z" fill="#f7e9df"/></g><ellipse fill="#e9d5c6" rx="20.4473" ry="20.4677" transform="matrix(.902056 -.43162 .705989 .708223 310.974 205.254)"/><path d="m311.071 204.686c2.14-1.024 2.455-3.279.704-5.037-1.752-1.757-4.908-2.351-7.048-1.327-2.141 1.024-2.456 3.279-.705 5.036 1.751 1.757 4.907 2.351 7.047 1.327zm.906.909c-2.402 1.149-5.983 4.662-3.572 7.08l1.812 1.819 14.396-6.889-1.813-1.818c-2.41-2.418-8.42-1.342-10.823-.192z" fill="#fbf2eb"/></g></svg>