<svg fill="none" height="376" viewBox="0 0 632 376" width="632" xmlns="http://www.w3.org/2000/svg" xmlns:xlink="http://www.w3.org/1999/xlink"><filter id="a" color-interpolation-filters="sRGB" filterUnits="userSpaceOnUse" height="805.109" width="1249.58" x="-624.016" y="-253.601"><feFlood flood-opacity="0" result="BackgroundImageFix"/><feColorMatrix in="SourceAlpha" type="matrix" values="0 0 0 0 0 0 0 0 0 0 0 0 0 0 0 0 0 0 127 0"/><feMorphology in="SourceAlpha" operator="erode" radius="10" result="effect1_dropShadow"/><feOffset dy="25"/><feGaussianBlur stdDeviation="25"/><feColorMatrix type="matrix" values="0 0 0 0 0.921569 0 0 0 0 0.741176 0 0 0 0 0.784314 0 0 0 0.35 0"/><feBlend in2="BackgroundImageFix" mode="normal" result="effect1_dropShadow"/><feBlend in="SourceGraphic" in2="effect1_dropShadow" mode="normal" result="shape"/></filter><filter id="b" color-interpolation-filters="sRGB" filterUnits="userSpaceOnUse" height="473.227" width="609.992" x="162.387" y="46.5811"><feFlood flood-opacity="0" result="BackgroundImageFix"/><feColorMatrix in="SourceAlpha" type="matrix" values="0 0 0 0 0 0 0 0 0 0 0 0 0 0 0 0 0 0 127 0"/><feMorphology in="SourceAlpha" operator="erode" radius="10" result="effect1_dropShadow"/><feOffset dy="25"/><feGaussianBlur stdDeviation="25"/><feColorMatrix type="matrix" values="0 0 0 0 0.920833 0 0 0 0 0.740503 0 0 0 0 0.78422 0 0 0 1 0"/><feBlend in2="BackgroundImageFix" mode="normal" result="effect1_dropShadow"/><feBlend in="SourceGraphic" in2="effect1_dropShadow" mode="normal" result="shape"/></filter><mask id="c" height="376" maskUnits="userSpaceOnUse" width="632" x="0" y="0"><path d="m0 0h632v376h-632z" fill="#ead9cc"/></mask><path d="m0 0h632v376h-632z" fill="#fbdbe3"/><g mask="url(#c)"><g filter="url(#a)"><rect fill="#fff" height="458.277" rx="24" transform="matrix(.902056 -.43162 .705989 .708223 -595.117 169.395)" width="962.521"/></g><path clip-rule="evenodd" d="m131.323 36.953c-1.56-1.5646-1.209-3.6059.784-4.5594l215.919-103.3137c1.993-.9535 4.872-.4582 6.432 1.1064l4.925 4.9408c1.56 1.5646 1.209 3.6059-.784 4.5594l-215.919 103.3137c-1.992.9536-4.872.4582-6.432-1.1064z" fill="#ead6c7" fill-rule="evenodd"/><path clip-rule="evenodd" d="m-152.994 172.994c-1.56-1.565-1.208-3.606.784-4.559l174.531-83.5106c1.9927-.9535 4.8725-.4582 6.4322 1.1064l4.9252 4.9408c1.5596 1.5646 1.2085 3.6059-.7843 4.5594l-174.5311 83.51c-1.992.954-4.872.458-6.432-1.106z" fill="#ead6c7" fill-rule="evenodd"/><path clip-rule="evenodd" d="m147.533 53.2143c-.78-.7823-.604-1.8029.392-2.2797l98.962-47.35176c.996-.47676 2.436-.22908 3.216.5532l4.225 4.23818c.78.78228.604 1.80288-.392 2.27968l-98.962 47.3518c-.996.4767-2.436.2291-3.216-.5532z" fill="#fbf2eb" fill-rule="evenodd"/><path clip-rule="evenodd" d="m157.401 63.1137c-.78-.7823-.604-1.8029.392-2.2797l178.139-85.2367c.997-.4768 2.436-.2291 3.216.5532l4.225 4.2382c.78.7822.604 1.8029-.392 2.2796l-178.139 85.2368c-.996.4768-2.436.2291-3.216-.5532z" fill="#fbf2eb" fill-rule="evenodd"/><path clip-rule="evenodd" d="m-126.916 199.155c-.78-.783-.604-1.803.392-2.28l134.05167-64.142c.99639-.476 2.43628-.229 3.21613.554l4.2248 4.238c.7798.782.6042 1.803-.3922 2.279l-134.0514 64.142c-.997.477-2.437.229-3.216-.553z" fill="#fbf2eb" fill-rule="evenodd"/><rect fill="#fbf2eb" height="157.751" rx="8" transform="matrix(.902056 -.43162 .705989 .708223 7.26025 -87.5029)" width="288.258"/><rect fill="#fbf2eb" height="157.751" rx="8" transform="matrix(.902056 -.43162 .705989 .708223 -277.057 48.5391)" width="288.258"/><rect fill="#fbf2eb" height="30.9511" rx="8" transform="matrix(.902056 -.43162 .705989 .708223 -17.6621 308.754)" width="603.446"/><path clip-rule="evenodd" d="m30.1923 299.437c-.7799-.782-.6043-1.803.3921-2.28l50.376-24.104c.9964-.477 2.4363-.229 3.2161.553l4.2248 4.238c.7798.783.6043 1.803-.3921 2.28l-50.3761 24.104c-.9963.477-2.4362.229-3.2161-.553z" fill="#ead6c7" fill-rule="evenodd"/><path clip-rule="evenodd" d="m151.657 241.318c-.78-.782-.604-1.803.392-2.28l100.762-48.213c.996-.476 2.436-.229 3.216.554l4.225 4.238c.779.782.604 1.803-.393 2.279l-100.761 48.213c-.996.477-2.436.229-3.216-.553z" fill="#ead6c7" fill-rule="evenodd"/><path clip-rule="evenodd" d="m353.198 144.883c-.78-.782-.604-1.803.392-2.279l100.762-48.2133c.996-.4767 2.436-.229 3.216.5532l4.225 4.2382c.779.7823.604 1.8029-.393 2.2799l-100.761 48.213c-.996.476-2.436.229-3.216-.554z" fill="#ead6c7" fill-rule="evenodd"/><ellipse fill="#ead6c7" rx="6.98201" ry="6.98898" transform="matrix(.902056 -.43162 .705989 .708223 10.7108 311.888)"/><rect fill="#fbf2eb" height="30.9512" rx="8" transform="matrix(.902056 -.43162 .705989 .708223 -45.8574 280.47)" width="603.446"/><path clip-rule="evenodd" d="m1.99694 271.153c-.77981-.783-.60425-1.803.39213-2.28l26.98293-12.911c.9963-.477 2.4362-.229 3.216.553l4.2248 4.239c.7798.782.6043 1.802-.3921 2.279l-26.98288 12.911c-.99638.477-2.43627.229-3.21609-.553z" fill="#ead6c7" fill-rule="evenodd"/><path clip-rule="evenodd" d="m123.462 213.034c-.78-.783-.604-1.803.392-2.28l56.674-27.118c.997-.477 2.436-.229 3.216.553l4.225 4.239c.78.782.604 1.802-.392 2.279l-56.674 27.118c-.997.477-2.437.229-3.216-.553z" fill="#ead6c7" fill-rule="evenodd"/><path clip-rule="evenodd" d="m325.003 116.599c-.78-.782-.604-1.803.392-2.28l77.368-37.0192c.997-.4767 2.436-.2291 3.216.5532l4.225 4.2382c.78.7823.604 1.8029-.392 2.2797l-77.368 37.0191c-.997.477-2.437.23-3.216-.553z" fill="#ead6c7" fill-rule="evenodd"/><rect fill="#fbf2eb" height="30.9511" rx="8" transform="matrix(.902056 -.43162 .705989 .708223 -74.0522 252.186)" width="603.446"/><path clip-rule="evenodd" d="m-26.1979 242.869c-.7798-.783-.6042-1.803.3921-2.28l38.6795-18.508c.9964-.476 2.4363-.229 3.2161.554l4.2248 4.238c.7798.782.6043 1.803-.3921 2.279l-38.6795 18.508c-.9964.477-2.4363.229-3.2161-.553z" fill="#ead6c7" fill-rule="evenodd"/><path clip-rule="evenodd" d="m95.267 184.749c-.7799-.782-.6043-1.802.3921-2.279l136.7509-65.433c.996-.477 2.436-.23 3.216.553l4.225 4.238c.78.782.604 1.803-.392 2.28l-136.751 65.433c-.997.477-2.436.229-3.2162-.553z" fill="#ead6c7" fill-rule="evenodd"/><path clip-rule="evenodd" d="m296.808 88.3149c-.78-.7823-.604-1.8029.392-2.2797l41.379-19.7991c.996-.4767 2.436-.2291 3.216.5532l4.225 4.2382c.78.7823.604 1.8029-.392 2.2797l-41.379 19.7991c-.997.4767-2.436.229-3.216-.5532z" fill="#ead6c7" fill-rule="evenodd"/><rect fill="#fbf2eb" height="30.9511" rx="8" transform="matrix(.902056 -.43162 .705989 .708223 -102.248 223.901)" width="603.446"/><path clip-rule="evenodd" d="m-54.3932 214.584c-.7798-.782-.6042-1.803.3921-2.279l57.57402-27.549c.99638-.476 2.43628-.229 3.21609.554l4.22479 4.238c.7798.782.6043 1.803-.3921 2.28l-57.574 27.548c-.9964.477-2.4363.229-3.2161-.553z" fill="#ead6c7" fill-rule="evenodd"/><path clip-rule="evenodd" d="m67.0716 156.465c-.7798-.782-.6042-1.803.3922-2.279l86.3652-41.325c.997-.477 2.437-.229 3.216.553l4.225 4.238c.78.783.605 1.803-.392 2.28l-86.3655 41.325c-.9963.476-2.4362.229-3.216-.554z" fill="#ead6c7" fill-rule="evenodd"/><path clip-rule="evenodd" d="m268.613 60.0307c-.78-.7823-.605-1.8029.392-2.2797l142.149-68.0163c.997-.4768 2.436-.2291 3.216.55321l4.225 4.23818c.78.78228.604 1.80293-.392 2.27969l-142.149 68.01632c-.997.4768-2.437.2291-3.217-.5532z" fill="#ead6c7" fill-rule="evenodd"/><g filter="url(#b)"><rect fill="#fff" height="388.387" rx="24" transform="matrix(.902034 -.431666 .705943 .708269 191.287 187.174)" width="308.206"/></g><g clip-rule="evenodd" fill-rule="evenodd"><path d="m322.088 277.075c-1.56-1.564-1.208-3.606.784-4.559l119.644-57.256c1.993-.953 4.872-.458 6.432 1.107l3.515 3.527c1.56 1.564 1.209 3.606-.784 4.559l-119.644 57.256c-1.993.953-4.872.458-6.432-1.107z" fill="#ead6c7"/><path d="m447.548 402.948c-1.56-1.564-1.209-3.606.784-4.559l176.326-84.381c1.993-.953 4.872-.458 6.432 1.107l3.515 3.527c1.56 1.564 1.208 3.606-.784 4.559l-176.326 84.381c-1.993.953-4.873.458-6.432-1.107z" fill="#ead6c7"/><path d="m335.478 290.509c-.78-.782-.605-1.803.392-2.28l139.447-66.731c.996-.477 2.436-.23 3.215.553l2.815 2.824c.78.782.605 1.803-.392 2.28l-139.447 66.732c-.996.476-2.436.229-3.216-.554z" fill="#fbf2eb"/><path d="m460.937 416.382c-.779-.782-.604-1.803.392-2.28l156.542-74.912c.996-.477 2.436-.229 3.216.553l2.815 2.824c.779.783.604 1.803-.393 2.28l-156.541 74.913c-.996.476-2.436.229-3.216-.554z" fill="#fbf2eb"/><path d="m343.936 298.995c-.78-.783-.605-1.803.392-2.28l187.131-89.552c.997-.476 2.437-.229 3.216.554l2.815 2.824c.78.782.605 1.803-.392 2.28l-187.132 89.551c-.996.477-2.436.229-3.216-.553z" fill="#fbf2eb"/><path d="m469.395 424.868c-.779-.783-.604-1.803.392-2.28l111.556-53.385c.996-.477 2.436-.229 3.216.553l2.815 2.825c.78.782.604 1.803-.392 2.279l-111.556 53.385c-.996.477-2.436.229-3.216-.553z" fill="#fbf2eb"/></g><rect fill="#fbf2eb" height="105.833" rx="8" transform="matrix(.902034 -.431666 .705943 .708269 236.799 191.506)" width="246.365"/><rect fill="#fbf2eb" height="105.833" rx="8" transform="matrix(.902034 -.431666 .705943 .708269 362.259 317.379)" width="246.365"/><path d="m386.471 155.394-28.278 13.532h-.001c-3.121 1.497-3.654 4.711-1.191 7.185l17.855 17.914h-.002c2.467 2.471 6.994 3.264 10.119 1.773l28.278-13.533-.001.001c3.119-1.497 3.652-4.711 1.192-7.185l-17.856-17.914c-2.468-2.472-6.995-3.264-10.12-1.773zm-2.605 7.861-.001.001c2.341-1.122 5.74-.526 7.589 1.329 1.849 1.854 1.448 4.268-.894 5.388-2.342 1.121-5.741.526-7.589-1.329l-.001.001c-1.847-1.856-1.447-4.267.892-5.389zm-1.122 30.303h-.001c-1.563.747-3.827.351-5.06-.887l-4.717-4.732 2.501-9.91-.001-.001c.503-1.982 3.108-3.142 5.948-2.649l10.259 1.788-2.182 13.16zm28.874-17.125c1.233 1.236.966 2.845-.596 3.592l-17.53 8.389 2.262-13.631-.001-.001c.515-1.807 2.813-2.914 5.436-2.618l6.93.758z" fill="#e9d5c6"/><path d="m511.931 281.267-28.278 13.532h-.001c-3.121 1.497-3.654 4.711-1.192 7.185l17.855 17.914h-.001c2.467 2.471 6.994 3.264 10.118 1.773l28.278-13.533v.001c3.119-1.497 3.652-4.711 1.191-7.185l-17.855-17.914c-2.468-2.472-6.995-3.264-10.12-1.773zm-2.606 7.861-.001.001c2.341-1.122 5.741-.526 7.59 1.329 1.848 1.854 1.448 4.268-.894 5.388-2.343 1.121-5.741.526-7.589-1.329l-.001.001c-1.847-1.855-1.447-4.267.892-5.389zm-1.121 30.303h-.001c-1.563.747-3.827.351-5.06-.887l-4.717-4.732 2.501-9.91h-.001c.503-1.983 3.108-3.143 5.947-2.65l10.26 1.788-2.183 13.16zm28.874-17.125c1.232 1.236.965 2.845-.596 3.592l-17.53 8.389 2.261-13.631v-.001c.515-1.807 2.813-2.914 5.435-2.618l6.931.758z" fill="#e9d5c6"/></g></svg>