<svg fill="none" height="376" viewBox="0 0 632 376" width="632" xmlns="http://www.w3.org/2000/svg" xmlns:xlink="http://www.w3.org/1999/xlink"><filter id="a" color-interpolation-filters="sRGB" filterUnits="userSpaceOnUse" height="473.204" width="610.009" x="-63.2673" y="105.742"><feFlood flood-opacity="0" result="BackgroundImageFix"/><feColorMatrix in="SourceAlpha" type="matrix" values="0 0 0 0 0 0 0 0 0 0 0 0 0 0 0 0 0 0 127 0"/><feMorphology in="SourceAlpha" operator="erode" radius="10" result="effect1_dropShadow"/><feOffset dy="25"/><feGaussianBlur stdDeviation="25"/><feColorMatrix type="matrix" values="0 0 0 0 0.656753 0 0 0 0 0.799473 0 0 0 0 0.870833 0 0 0 1 0"/><feBlend in2="BackgroundImageFix" mode="normal" result="effect1_dropShadow"/><feBlend in="SourceGraphic" in2="effect1_dropShadow" mode="normal" result="shape"/></filter><filter id="b" color-interpolation-filters="sRGB" filterUnits="userSpaceOnUse" height="473.196" width="610.015" x="172.393" y="-110.994"><feFlood flood-opacity="0" result="BackgroundImageFix"/><feColorMatrix in="SourceAlpha" type="matrix" values="0 0 0 0 0 0 0 0 0 0 0 0 0 0 0 0 0 0 127 0"/><feMorphology in="SourceAlpha" operator="erode" radius="10" result="effect1_dropShadow"/><feOffset dy="25"/><feGaussianBlur stdDeviation="25"/><feColorMatrix type="matrix" values="0 0 0 0 0.654902 0 0 0 0 0.8 0 0 0 0 0.870588 0 0 0 0.35 0"/><feBlend in2="BackgroundImageFix" mode="normal" result="effect1_dropShadow"/><feBlend in="SourceGraphic" in2="effect1_dropShadow" mode="normal" result="shape"/></filter><mask id="c" height="376" maskUnits="userSpaceOnUse" width="632" x="0" y="0"><path d="m0 0h632v376h-632z" fill="#ead9cc"/></mask><path d="m0 0h632v376h-632z" fill="#ddedf5"/><g mask="url(#c)"><g filter="url(#a)"><rect fill="#fff" height="388.387" rx="24" transform="matrix(.90205 -.431632 .705976 .708235 -34.3674 246.325)" width="308.206"/></g><path clip-rule="evenodd" d="m171.341 284.717c-1.56-1.565-1.209-3.606.784-4.56l116.946-55.959c1.993-.953 4.873-.458 6.433 1.106l4.925 4.941c1.559 1.565 1.208 3.606-.785 4.56l-116.946 55.959c-1.993.954-4.873.458-6.432-1.106z" fill="#ead6c7" fill-rule="evenodd"/><path clip-rule="evenodd" d="m187.55 300.978c-.78-.782-.604-1.803.392-2.28l66.571-31.854c.997-.477 2.436-.229 3.216.553l4.225 4.238c.78.783.604 1.803-.392 2.28l-66.571 31.854c-.996.477-2.436.23-3.216-.553z" fill="#fbf2eb" fill-rule="evenodd"/><path clip-rule="evenodd" d="m197.418 310.877c-.779-.782-.604-1.803.392-2.279l116.057-55.533c.996-.477 2.436-.23 3.216.553l4.224 4.238c.78.782.605 1.803-.392 2.28l-116.056 55.533c-.996.477-2.436.229-3.216-.553z" fill="#fbf2eb" fill-rule="evenodd"/><path clip-rule="evenodd" d="m207.286 320.778c-.78-.782-.604-1.803.392-2.28l90.864-43.478c.996-.477 2.436-.229 3.216.553l4.225 4.238c.78.782.604 1.803-.392 2.28l-90.864 43.478c-.996.477-2.436.229-3.216-.553z" fill="#fbf2eb" fill-rule="evenodd"/><rect fill="#fbf2eb" height="67.8928" rx="8" transform="matrix(.90205 -.431632 .705976 .708235 81.6323 321.369)" width="75.8047"/><path d="m140.329 316.26-17.995 8.611h-.001c-1.986.953-2.334 2.988-.779 4.551l11.277 11.313h-.001c1.558 1.561 4.43 2.056 6.418 1.107l17.996-8.611h-.001c1.985-.952 2.334-2.988.78-4.55l-11.278-11.314c-1.559-1.561-4.43-2.056-6.419-1.107zm-1.679 4.981h-.001c1.49-.713 3.646-.341 4.814.83s.906 2.7-.585 3.413c-1.49.713-3.646.342-4.813-.83l-.001.001c-1.166-1.172-.905-2.699.584-3.413zm-.809 19.186h-.001c-.995.476-2.431.228-3.21-.553l-2.979-2.989 1.62-6.278h-.001c.326-1.256 1.983-1.995 3.784-1.687l6.508 1.117-1.428 8.334zm18.385-10.886c.778.781.604 1.8-.39 2.275l-11.155 5.338 1.479-8.633h-.001c.333-1.145 1.796-1.85 3.46-1.666l4.397.469z" fill="#e9d5c6"/><path clip-rule="evenodd" d="m229.844 343.407c-1.559-1.564-1.208-3.606.784-4.559l116.947-55.959c1.993-.954 4.873-.459 6.432 1.106l4.925 4.941c1.56 1.564 1.209 3.606-.784 4.559l-116.947 55.959c-1.992.954-4.872.459-6.432-1.106z" fill="#ead6c7" fill-rule="evenodd"/><path clip-rule="evenodd" d="m246.054 359.668c-.78-.782-.604-1.803.392-2.279l66.571-31.855c.996-.476 2.436-.229 3.216.554l4.225 4.238c.779.782.604 1.803-.393 2.28l-66.57 31.854c-.997.477-2.437.229-3.216-.553z" fill="#fbf2eb" fill-rule="evenodd"/><path clip-rule="evenodd" d="m255.922 369.568c-.78-.782-.604-1.803.392-2.28l116.056-55.533c.997-.477 2.437-.229 3.216.553l4.225 4.238c.78.783.604 1.803-.392 2.28l-116.056 55.533c-.997.477-2.437.229-3.216-.553z" fill="#fbf2eb" fill-rule="evenodd"/><path clip-rule="evenodd" d="m265.79 379.468c-.78-.782-.604-1.803.392-2.28l90.864-43.478c.996-.477 2.436-.229 3.216.553l4.225 4.238c.78.783.604 1.803-.392 2.28l-90.864 43.479c-.996.476-2.436.229-3.216-.554z" fill="#fbf2eb" fill-rule="evenodd"/><rect fill="#fbf2eb" height="67.8928" rx="8" transform="matrix(.90205 -.431632 .705976 .708235 140.136 380.06)" width="75.8047"/><path d="m198.833 374.951-17.995 8.61-.001.001c-1.986.952-2.335 2.988-.78 4.55l11.278 11.314h-.001c1.558 1.56 4.429 2.055 6.418 1.106l17.995-8.611v.001c1.985-.953 2.334-2.989.779-4.551l-11.277-11.314c-1.559-1.56-4.43-2.055-6.419-1.106zm-1.679 4.981h-.001c1.49-.714 3.646-.342 4.814.83 1.167 1.171.905 2.699-.585 3.413-1.491.713-3.646.341-4.814-.83-1.167-1.172-.905-2.699.584-3.413zm-.81 19.186c-.995.475-2.431.228-3.21-.554l-2.979-2.989 1.619-6.277v-.001c.326-1.255 1.983-1.994 3.784-1.686l6.508 1.116-1.429 8.335zm18.386-10.887c.778.781.603 1.8-.39 2.276l-11.156 5.338 1.479-8.634c.333-1.145 1.795-1.849 3.459-1.666l4.397.469z" fill="#e9d5c6"/><path clip-rule="evenodd" d="m288.348 402.099c-1.56-1.565-1.209-3.606.784-4.56l116.947-55.959c1.993-.954 4.872-.458 6.432 1.106l4.925 4.941c1.56 1.565 1.208 3.606-.784 4.56l-116.947 55.959c-1.993.953-4.872.458-6.432-1.107z" fill="#ead6c7" fill-rule="evenodd"/><path clip-rule="evenodd" d="m314.426 428.259c-.78-.782-.605-1.803.392-2.279l116.056-55.534c.996-.476 2.436-.229 3.216.554l4.225 4.238c.78.782.604 1.803-.392 2.28l-116.057 55.533c-.996.476-2.436.229-3.216-.553z" fill="#fbf2eb" fill-rule="evenodd"/><path clip-rule="evenodd" d="m76.6071 235.007c-1.5596-1.565-1.2085-3.606.7843-4.56l106.1496-50.793c1.993-.953 4.873-.458 6.432 1.107l4.926 4.941c1.559 1.564 1.208 3.606-.785 4.559l-106.1496 50.793c-1.9928.954-4.8725.458-6.4321-1.106z" fill="#ead6c7" fill-rule="evenodd"/><path clip-rule="evenodd" d="m96.3866 264.181c-.7798-.782-.6043-1.803.3921-2.28l121.4543-58.116c.997-.477 2.437-.229 3.216.553l5.635 5.653c.78.782.604 1.803-.392 2.28l-121.455 58.116c-.996.477-2.436.229-3.216-.553z" fill="#fbf2eb" fill-rule="evenodd"/><path clip-rule="evenodd" d="m68.2088 259.91c-.7798-.783-.6042-1.803.3922-2.28l153.845-73.615c.996-.477 2.436-.229 3.216.553l5.634 5.653c.78.782.605 1.802-.392 2.279l-153.8447 73.615c-.9963.477-2.4362.229-3.216-.553z" fill="#fbf2eb" fill-rule="evenodd"/><g filter="url(#b)"><rect fill="#fff" height="388.387" rx="24" transform="matrix(.902056 -.43162 .705989 .708223 201.293 29.5859)" width="308.206"/></g><g clip-rule="evenodd" fill-rule="evenodd"><path d="m332.101 119.482c-1.56-1.564-1.208-3.606.784-4.559l119.647-57.2492c1.993-.9535 4.872-.4581 6.432 1.1064l3.516 3.5266c1.559 1.5646 1.208 3.6059-.785 4.5594l-119.646 57.2488c-1.993.954-4.873.458-6.432-1.106z" fill="#ead6c7"/><path d="m457.569 245.348c-1.56-1.565-1.209-3.606.784-4.56l176.33-84.371c1.993-.954 4.873-.458 6.432 1.106l3.516 3.527c1.559 1.564 1.208 3.606-.784 4.559l-176.331 84.372c-1.992.953-4.872.458-6.432-1.107z" fill="#ead6c7"/><path d="m345.491 132.914c-.779-.782-.604-1.802.392-2.279l139.451-66.725c.996-.4767 2.436-.229 3.216.5532l2.815 2.824c.78.7823.604 1.8029-.392 2.2797l-139.451 66.7251c-.996.476-2.436.229-3.216-.554z" fill="#fbf2eb"/><path d="m470.959 258.78c-.779-.783-.604-1.803.392-2.28l156.546-74.904c.996-.477 2.436-.23 3.216.553l2.815 2.824c.78.782.604 1.803-.392 2.279l-156.546 74.905c-.996.477-2.436.229-3.216-.553z" fill="#fbf2eb"/><path d="m353.95 141.4c-.78-.782-.604-1.803.392-2.28l187.136-89.5417c.997-.4768 2.436-.2291 3.216.5532l2.815 2.824c.78.7822.605 1.8029-.392 2.2796l-187.136 89.5419c-.996.477-2.436.229-3.216-.553z" fill="#fbf2eb"/><path d="m479.418 267.265c-.78-.782-.604-1.803.392-2.28l111.558-53.379c.997-.476 2.436-.229 3.216.554l2.815 2.824c.78.782.605 1.803-.392 2.279l-111.558 53.379c-.996.477-2.436.229-3.216-.553z" fill="#fbf2eb"/></g><rect fill="#fbf2eb" height="105.833" rx="8" transform="matrix(.902056 -.43162 .705989 .708223 246.806 33.918)" width="246.365"/><rect fill="#fbf2eb" height="105.833" rx="8" transform="matrix(.902056 -.43162 .705989 .708223 372.274 159.783)" width="246.365"/><path d="m396.483-2.18972-28.278 13.53092-.001.0005c-3.121 1.4964-3.654 4.7103-1.192 7.1844l17.856 17.9129-.001-.0003c2.467 2.4709 6.994 3.2636 10.119 1.7725l28.279-13.531-.001.0004c3.119-1.4967 3.652-4.7106 1.191-7.1844l-17.856-17.91289c-2.469-2.47113-6.996-3.26384-10.121-1.77274zm-2.605 7.86097-.001.00042c2.341-1.12123 5.741-.52594 7.59 1.32903 1.848 1.85426 1.448 4.2678-.894 5.3883-2.343 1.121-5.741.5253-7.59-1.329l-.001.0004c-1.846-1.8551-1.446-4.26638.892-5.38858zm-1.121 30.30025-.001.0003c-1.563.7469-3.827.3504-5.06-.8867l-4.718-4.7322 2.501-9.9089v-.0007c.502-1.982 3.107-3.1426 5.947-2.6494l10.26 1.7886-2.182 13.1587zm28.875-17.1232c1.232 1.2364.965 2.8451-.596 3.5922l-17.53 8.388 2.26-13.6302v-.0007c.515-1.8072 2.813-2.914 5.436-2.6176l6.93.7578z" fill="#e9d5c6"/><path d="m521.951 123.676-28.279 13.53-.001.001c-3.12 1.496-3.654 4.71-1.191 7.184l17.856 17.913h-.001c2.467 2.471 6.994 3.264 10.119 1.772l28.278-13.531-.001.001c3.12-1.497 3.653-4.711 1.192-7.185l-17.856-17.912c-2.469-2.472-6.996-3.264-10.121-1.773zm-2.605 7.86-.001.001c2.341-1.121 5.74-.526 7.59 1.329 1.848 1.854 1.448 4.268-.894 5.388-2.343 1.121-5.742.525-7.59-1.329l-.001.001c-1.847-1.855-1.447-4.267.892-5.389zm-1.121 30.301h-.001c-1.563.747-3.827.35-5.061-.887l-4.717-4.732 2.501-9.909h-.001c.503-1.982 3.108-3.143 5.948-2.65l10.26 1.789-2.183 13.158zm28.874-17.123c1.233 1.236.966 2.845-.595 3.592l-17.531 8.388 2.261-13.63v-.001c.515-1.807 2.813-2.914 5.436-2.618l6.93.758z" fill="#e9d5c6"/></g></svg>