<svg fill="none" height="376" viewBox="0 0 632 376" width="632" xmlns="http://www.w3.org/2000/svg" xmlns:xlink="http://www.w3.org/1999/xlink"><filter id="a" color-interpolation-filters="sRGB" filterUnits="userSpaceOnUse" height="581.902" width="854.473" x="-95.856" y="-79.6445"><feFlood flood-opacity="0" result="BackgroundImageFix"/><feColorMatrix in="SourceAlpha" type="matrix" values="0 0 0 0 0 0 0 0 0 0 0 0 0 0 0 0 0 0 127 0"/><feMorphology in="SourceAlpha" operator="erode" radius="10" result="effect1_dropShadow"/><feOffset dy="25"/><feGaussianBlur stdDeviation="25"/><feColorMatrix type="matrix" values="0 0 0 0 0.521719 0 0 0 0 0.7875 0 0 0 0 0.576083 0 0 0 1 0"/><feBlend in2="BackgroundImageFix" mode="normal" result="effect1_dropShadow"/><feBlend in="SourceGraphic" in2="effect1_dropShadow" mode="normal" result="shape"/></filter><mask id="b" height="376" maskUnits="userSpaceOnUse" width="632" x="0" y="0"><path d="m0 0h632v376h-632z" fill="#ead9cc"/></mask><path d="m0 0h632v376h-632z" fill="#bfebc8"/><g mask="url(#b)"><g filter="url(#a)"><rect fill="#fff" height="366.037" rx="24" transform="matrix(.90205 -.431632 .705976 .708236 -66.9561 185.466)" width="596.707"/></g><rect fill="#fbf2eb" height="230.468" rx="8" transform="matrix(.90205 -.431632 .705976 .708236 34.1406 253.877)" width="212.711"/><rect fill="#fbf2eb" height="176.24" rx="8" transform="matrix(.90205 -.431632 .705976 .708236 187.084 88.9326)" width="309.109"/><rect fill="#fff" height="86.1263" rx="8" transform="matrix(.90205 -.431632 .705976 .708236 143.156 337.686)" width="175.268"/><rect fill="#fff" height="66.9871" rx="8" transform="matrix(.90205 -.431632 .705976 .708236 271.327 147.891)" width="175.268"/><rect fill="#fbf2eb" height="62.9998" rx="8" transform="matrix(.90205 -.431632 .705976 .708236 -27.7886 191.75)" width="212.711"/><path clip-rule="evenodd" d="m118.837 290.928c-1.554-1.559-1.204-3.594.782-4.545l35.925-17.19c1.986-.95 4.857-.456 6.412 1.103 1.554 1.56 1.204 3.595-.782 4.545l-35.925 17.19c-1.986.951-4.857.457-6.412-1.103z" fill="#ead6c7" fill-rule="evenodd"/><path clip-rule="evenodd" d="m130.097 302.224c-1.554-1.559-1.204-3.594.782-4.545l35.925-17.19c1.986-.95 4.857-.456 6.411 1.103 1.555 1.56 1.205 3.595-.781 4.545l-35.925 17.19c-1.987.951-4.857.457-6.412-1.103z" fill="#ead6c7" fill-rule="evenodd"/><path clip-rule="evenodd" d="m511.022 96.5945c-1.555-1.5597-1.205-3.5945.781-4.5451l35.925-17.19c1.987-.9505 4.857-.4567 6.412 1.1029 1.554 1.5596 1.204 3.5945-.782 4.545l-35.925 17.1901c-1.986.9505-4.857.4567-6.411-1.1029z" fill="#ead6c7" fill-rule="evenodd"/><path clip-rule="evenodd" d="m498.636 84.1687c-1.555-1.5596-1.205-3.5945.782-4.545l35.924-17.1901c1.987-.9505 4.857-.4567 6.412 1.1029 1.555 1.5596 1.205 3.5945-.782 4.545l-35.925 17.1901c-1.986.9505-4.857.4567-6.411-1.1029z" fill="#ead6c7" fill-rule="evenodd"/><path clip-rule="evenodd" d="m486.813 72.3083c-1.555-1.5596-1.205-3.5945.782-4.545l35.925-17.1901c1.986-.9505 4.857-.4567 6.411 1.103 1.555 1.5596 1.205 3.5945-.782 4.545l-35.924 17.19c-1.987.9506-4.857.4568-6.412-1.1029z" fill="#ead6c7" fill-rule="evenodd"/><path clip-rule="evenodd" d="m474.99 60.447c-1.554-1.5596-1.204-3.5945.782-4.545l35.925-17.1901c1.986-.9505 4.857-.4567 6.412 1.1029 1.554 1.5597 1.204 3.5945-.782 4.545l-35.925 17.1901c-1.986.9505-4.857.4567-6.412-1.1029z" fill="#ead6c7" fill-rule="evenodd"/><rect fill="#ead6c7" height="7.97466" rx="3.98336" transform="matrix(.90205 -.431632 .705976 .708236 101.65 294.982)" width="7.96672"/><rect fill="#ead6c7" height="7.97466" rx="3.98336" transform="matrix(.90205 -.431632 .705976 .708236 112.91 306.278)" width="7.96672"/><rect fill="#ead6c7" height="7.97467" rx="3.98335" transform="matrix(.90205 -.431632 .705976 .708236 493.834 100.647)" width="7.96671"/><rect fill="#ead6c7" height="7.97466" rx="3.98335" transform="matrix(.90205 -.431632 .705976 .708236 481.448 88.2227)" width="7.96671"/><rect fill="#ead6c7" height="7.97464" rx="3.98335" transform="matrix(.90205 -.431632 .705976 .708236 469.625 76.3613)" width="7.96671"/><rect fill="#ead6c7" height="7.97465" rx="3.98335" transform="matrix(.90205 -.431632 .705976 .708236 457.802 64.501)" width="7.96671"/><g clip-rule="evenodd" fill-rule="evenodd"><path d="m67.8793 261.103c-1.5596-1.564-1.2084-3.605.7843-4.559l103.4534-49.503c1.993-.953 4.873-.458 6.433 1.107l2.797 2.806c1.559 1.564 1.208 3.605-.785 4.559l-103.4535 49.503c-1.9928.953-4.8725.458-6.4321-1.107z" fill="#ead6c7"/><path d="m220.26 95.5947c-1.56-1.5646-1.209-3.606.784-4.5595l197.596-94.54979c1.992-.95354 4.872-.45818 6.432 1.10642l2.797 2.806008c1.559 1.564592 1.208 3.605932-.785 4.559472l-197.595 94.54979c-1.993.9539-4.872.4582-6.432-1.1064z" fill="#ead6c7"/><path d="m48.194 179.597c-1.5596-1.565-1.2084-3.606.7843-4.56l103.4537-49.503c1.993-.953 4.873-.458 6.432 1.107l2.797 2.806c1.56 1.564 1.209 3.606-.784 4.559l-103.4538 49.503c-1.9928.954-4.8725.458-6.4321-1.106z" fill="#ead6c7"/><path d="m80.5421 273.807c-.7798-.782-.6043-1.803.3921-2.28l58.9138-28.19c.996-.477 2.436-.229 3.216.553l2.806 2.815c.779.783.604 1.803-.393 2.28l-58.9129 28.19c-.9963.477-2.4362.229-3.216-.553z" fill="#fff"/><path d="m232.923 108.297c-.78-.782-.605-1.803.392-2.279l145.15-69.4549c.996-.4767 2.436-.2291 3.216.5532l2.806 2.815c.78.7823.604 1.803-.392 2.2798l-145.15 69.4549c-.997.476-2.436.229-3.216-.554z" fill="#fff"/><path d="m244.182 119.593c-.779-.782-.604-1.803.393-2.28l67.537-32.3161c.996-.4767 2.436-.229 3.216.5533l2.806 2.8149c.779.7823.604 1.803-.393 2.2798l-67.536 32.3161c-.997.477-2.437.23-3.217-.553z" fill="#fff"/><path d="m58.6051 190.04c-.7798-.782-.6043-1.802.3921-2.279l58.9138-28.19c.996-.477 2.436-.229 3.216.553l2.806 2.815c.779.782.604 1.803-.393 2.28l-58.9129 28.19c-.9964.476-2.4362.229-3.216-.554z" fill="#fff"/><path d="m90.6759 283.973c-.7798-.782-.6043-1.803.3921-2.28l80.472-38.506c.997-.477 2.437-.229 3.216.553l2.807 2.815c.779.783.604 1.803-.393 2.28l-80.4721 38.506c-.9963.477-2.4362.229-3.216-.553z" fill="#fff"/><path d="m210.038 388.267c-.996.476-2.436.229-3.216-.554l-10.688-10.722c-.78-.782-.604-1.803.392-2.279l3.329-1.593c.997-.477 2.437-.23 3.216.553l10.688 10.722c.78.782.605 1.803-.392 2.28z" fill="#f7e9df"/><path d="m254.437 367.022c-.996.476-2.436.229-3.216-.554l-10.688-10.722c-.78-.782-.604-1.803.392-2.28l3.33-1.593c.996-.476 2.436-.229 3.216.554l10.687 10.722c.78.782.605 1.803-.392 2.279z" fill="#f7e9df"/><path d="m298.836 345.776c-.997.477-2.436.229-3.216-.553l-32.082-32.184c-.78-.782-.604-1.803.392-2.28l3.329-1.593c.997-.477 2.437-.229 3.217.553l32.081 32.185c.78.782.604 1.803-.392 2.279z" fill="#f7e9df"/><path d="m221.138 382.955c-.997.477-2.437.229-3.216-.553l-19.696-19.759c-.78-.782-.604-1.803.392-2.28l3.329-1.593c.996-.476 2.436-.229 3.216.554l19.696 19.758c.78.783.604 1.803-.392 2.28z" fill="#f7e9df"/><path d="m265.537 361.71c-.996.477-2.436.229-3.216-.553l-24.2-24.277c-.78-.783-.604-1.803.392-2.28l3.33-1.593c.996-.477 2.436-.229 3.216.553l24.199 24.277c.78.783.605 1.803-.392 2.28z" fill="#f7e9df"/><path d="m309.936 340.466c-.997.477-2.437.229-3.216-.553l-19.696-19.759c-.78-.782-.604-1.803.392-2.28l3.329-1.593c.997-.477 2.436-.229 3.216.553l19.696 19.759c.78.782.604 1.803-.392 2.28z" fill="#f7e9df"/><path d="m232.238 377.644c-.997.476-2.437.229-3.216-.554l-10.688-10.722c-.78-.782-.604-1.803.392-2.279l3.329-1.593c.996-.477 2.436-.23 3.216.553l10.688 10.722c.78.782.604 1.803-.392 2.28z" fill="#f7e9df"/><path d="m276.637 356.399c-.997.477-2.436.23-3.216-.553l-18.007-18.064c-.78-.782-.604-1.803.392-2.28l3.329-1.593c.997-.477 2.437-.229 3.216.553l18.007 18.065c.78.782.604 1.803-.392 2.279z" fill="#f7e9df"/><path d="m321.035 335.154c-.996.477-2.436.229-3.216-.553l-29.266-29.36c-.78-.782-.605-1.803.392-2.28l3.329-1.593c.996-.477 2.436-.229 3.216.553l29.267 29.361c.779.782.604 1.803-.393 2.279z" fill="#f7e9df"/><path d="m332.135 329.843c-.996.477-2.436.229-3.216-.553l-34.896-35.009c-.78-.782-.604-1.803.392-2.279l3.329-1.593c.996-.477 2.436-.229 3.216.553l34.897 35.008c.779.782.604 1.803-.392 2.28z" fill="#f7e9df"/><path d="m243.337 372.333c-.996.477-2.436.229-3.216-.553l-30.392-30.49c-.78-.782-.605-1.803.392-2.28l3.329-1.593c.996-.477 2.436-.229 3.216.553l30.393 30.49c.779.783.604 1.803-.393 2.28z" fill="#f7e9df"/><path d="m287.736 351.088c-.996.477-2.436.229-3.216-.553l-37.149-37.268c-.779-.782-.604-1.803.393-2.279l3.329-1.593c.996-.477 2.436-.23 3.216.553l37.148 37.267c.78.782.605 1.803-.392 2.28z" fill="#f7e9df"/><path d="m343.235 324.531c-.996.477-2.436.229-3.216-.553l-45.593-45.739c-.78-.783-.605-1.803.392-2.28l3.329-1.593c.996-.477 2.436-.229 3.216.553l45.593 45.74c.78.782.605 1.802-.392 2.279z" fill="#f7e9df"/><path d="m324.698 184.916c-.996.477-2.436.229-3.216-.553l-3.775-3.787c-.779-.782-.604-1.803.393-2.28l3.329-1.593c.996-.477 2.436-.229 3.216.553l3.775 3.787c.78.783.604 1.803-.392 2.28z" fill="#f7e9df"/><path d="m369.097 163.671c-.996.477-2.436.229-3.216-.553l-3.775-3.787c-.779-.783-.604-1.803.393-2.28l3.329-1.593c.996-.477 2.436-.229 3.216.553l3.775 3.787c.779.782.604 1.803-.393 2.28z" fill="#f7e9df"/><path d="m413.496 142.426c-.996.477-2.436.229-3.216-.553l-14.223-14.269c-.78-.782-.604-1.803.392-2.28l3.329-1.593c.997-.476 2.437-.229 3.216.554l14.223 14.268c.78.782.605 1.803-.392 2.28z" fill="#f7e9df"/><path d="m335.798 179.605c-.997.476-2.437.229-3.216-.554l-8.174-8.2c-.78-.782-.605-1.803.392-2.28l3.329-1.593c.996-.476 2.436-.229 3.216.554l8.174 8.2c.78.782.604 1.803-.392 2.279z" fill="#f7e9df"/><path d="m380.197 158.359c-.996.477-2.436.229-3.216-.553l-10.374-10.407c-.779-.782-.604-1.803.393-2.279l3.329-1.593c.996-.477 2.436-.23 3.216.553l10.373 10.407c.78.782.605 1.803-.392 2.279z" fill="#f7e9df"/><path d="m424.596 137.114c-.997.477-2.436.229-3.216-.553l-8.174-8.2c-.78-.782-.604-1.803.392-2.28l3.329-1.593c.996-.477 2.436-.229 3.216.553l8.174 8.201c.78.782.604 1.802-.392 2.279z" fill="#f7e9df"/><path d="m346.898 174.293c-.997.477-2.436.229-3.216-.553l-3.775-3.787c-.78-.782-.604-1.803.392-2.28l3.329-1.593c.997-.477 2.436-.229 3.216.553l3.775 3.787c.78.783.604 1.803-.392 2.28z" fill="#f7e9df"/><path d="m391.297 153.048c-.996.477-2.436.229-3.216-.553l-7.349-7.373c-.78-.782-.604-1.803.392-2.28l3.329-1.593c.997-.477 2.437-.229 3.216.553l7.35 7.373c.779.782.604 1.803-.393 2.28z" fill="#f7e9df"/><path d="m435.695 131.804c-.996.476-2.436.229-3.216-.553l-12.848-12.89c-.78-.782-.604-1.803.392-2.28l3.33-1.593c.996-.476 2.436-.229 3.216.554l12.848 12.889c.78.782.604 1.803-.392 2.28z" fill="#f7e9df"/><path d="m446.796 126.492c-.997.477-2.437.229-3.216-.553l-15.598-15.648c-.78-.782-.604-1.803.392-2.279l3.329-1.593c.996-.477 2.436-.229 3.216.553l15.598 15.647c.78.783.604 1.803-.392 2.28z" fill="#f7e9df"/><path d="m357.997 168.982c-.996.477-2.436.23-3.216-.553l-13.398-13.441c-.779-.782-.604-1.803.392-2.279l3.33-1.593c.996-.477 2.436-.23 3.216.553l13.398 13.441c.78.782.604 1.803-.392 2.279z" fill="#f7e9df"/><path d="m402.396 147.737c-.996.477-2.436.229-3.216-.553l-16.697-16.751c-.78-.782-.605-1.803.392-2.28l3.329-1.593c.996-.476 2.436-.229 3.216.554l16.697 16.751c.78.782.605 1.803-.392 2.279z" fill="#f7e9df"/><path d="m457.895 121.181c-.996.476-2.436.229-3.216-.554l-20.822-20.8879c-.78-.7823-.604-1.803.392-2.2797l3.329-1.5931c.997-.4767 2.437-.2291 3.217.5532l20.821 20.8885c.78.782.604 1.803-.392 2.28z" fill="#f7e9df"/></g><ellipse fill="#e9d5c6" rx="16.3318" ry="16.348" transform="matrix(.90205 -.431632 .705976 .708236 28.4292 198.633)"/><rect fill="#fbf2eb" height="24.7214" rx="8" transform="matrix(.90205 -.431632 .705976 .708236 394.265 296.776)" width="309.109"/><path clip-rule="evenodd" d="m432.771 289.62c-.779-.783-.604-1.803.392-2.28l39.511-18.906c.996-.477 2.436-.229 3.216.553l2.806 2.815c.779.783.604 1.803-.393 2.28l-39.51 18.906c-.996.477-2.436.229-3.216-.553z" fill="#ead6c7" fill-rule="evenodd"/><path clip-rule="evenodd" d="m529.787 243.197c-.779-.783-.604-1.803.393-2.28l79.753-38.162c.997-.477 2.437-.229 3.216.553l2.806 2.815c.78.782.605 1.803-.392 2.28l-79.754 38.162c-.996.477-2.436.229-3.216-.553z" fill="#ead6c7" fill-rule="evenodd"/><ellipse fill="#ead6c7" rx="5.57671" ry="5.58226" transform="matrix(.90205 -.431632 .705976 .708236 416.927 299.28)"/><rect fill="#fbf2eb" height="24.7214" rx="8" transform="matrix(.90205 -.431632 .705976 .708236 371.745 274.185)" width="309.109"/><path clip-rule="evenodd" d="m410.252 267.028c-.78-.782-.605-1.803.392-2.28l20.825-9.965c.997-.477 2.436-.229 3.216.553l2.806 2.815c.78.783.604 1.803-.392 2.28l-20.825 9.965c-.997.477-2.437.229-3.216-.553z" fill="#ead6c7" fill-rule="evenodd"/><path clip-rule="evenodd" d="m507.268 220.605c-.78-.782-.605-1.803.392-2.28l44.54-21.313c.997-.476 2.437-.229 3.216.554l2.806 2.815c.78.782.605 1.803-.392 2.279l-44.54 21.313c-.997.477-2.437.229-3.216-.553z" fill="#ead6c7" fill-rule="evenodd"/><ellipse fill="#ead6c7" rx="5.57671" ry="5.58226" transform="matrix(.90205 -.431632 .705976 .708236 394.407 276.688)"/><rect fill="#fbf2eb" height="24.7214" rx="8" transform="matrix(.90205 -.431632 .705976 .708236 349.226 251.593)" width="309.109"/><path clip-rule="evenodd" d="m387.732 244.436c-.78-.782-.604-1.803.392-2.28l30.168-14.435c.996-.477 2.436-.229 3.216.553l2.806 2.815c.78.782.604 1.803-.392 2.28l-30.168 14.435c-.996.477-2.436.229-3.216-.553z" fill="#ead6c7" fill-rule="evenodd"/><path clip-rule="evenodd" d="m484.748 198.013c-.78-.782-.604-1.803.392-2.28l108.5-51.917c.996-.477 2.436-.229 3.216.553l2.806 2.815c.78.783.604 1.803-.392 2.28l-108.5 51.917c-.996.477-2.436.229-3.216-.553z" fill="#ead6c7" fill-rule="evenodd"/><ellipse fill="#ead6c7" rx="5.57671" ry="5.58226" transform="matrix(.90205 -.431632 .705976 .708236 371.888 254.096)"/><rect fill="#fbf2eb" height="24.7214" rx="8" transform="matrix(.90205 -.431632 .705976 .708236 326.706 229.001)" width="309.109"/><path clip-rule="evenodd" d="m365.212 221.844c-.78-.782-.604-1.803.392-2.28l45.26-21.656c.996-.477 2.436-.229 3.216.553l2.806 2.815c.779.782.604 1.803-.393 2.28l-45.259 21.656c-.996.477-2.436.229-3.216-.553z" fill="#ead6c7" fill-rule="evenodd"/><path clip-rule="evenodd" d="m462.228 175.421c-.779-.782-.604-1.803.393-2.279l68.255-32.661c.996-.477 2.436-.229 3.216.553l2.806 2.815c.78.783.604 1.803-.392 2.28l-68.256 32.661c-.996.476-2.436.229-3.216-.554z" fill="#ead6c7" fill-rule="evenodd"/><ellipse fill="#ead6c7" rx="5.57671" ry="5.58225" transform="matrix(.90205 -.431632 .705976 .708236 349.368 231.504)"/><path d="m28.5073 198.18h-.0003c1.7095-.818 1.9613-2.619.5623-4.023-1.3993-1.403-3.9196-1.878-5.6293-1.06-1.71.818-1.9615 2.619-.5628 4.023l-.0002-.001c1.3987 1.404 3.9193 1.879 5.6288 1.061zm.7238.726c-1.9187.918-4.7791 3.724-2.8537 5.656l1.4476 1.452 11.4982-5.502-1.4476-1.452c-1.9254-1.932-6.7257-1.072-8.6445-.154z" fill="#fbf2eb"/></g></svg>