<svg width="171" height="56" viewBox="0 0 171 56" fill="none" xmlns="http://www.w3.org/2000/svg">
<path d="M20 19.6028C20.7944 19.6028 21.4478 18.9498 21.4478 18.156C21.4478 17.3622 20.7944 16.7092 20 16.7092C19.2057 16.7092 18.5522 17.3622 18.5522 18.156C18.5522 18.9498 19.2057 19.6028 20 19.6028Z" fill="white"/>
<path d="M19.9999 10C18.8596 10 17.9243 10.9346 17.9243 12.0741C17.9243 13.2136 18.8596 14.1482 19.9999 14.1482C21.1401 14.1482 22.0754 13.2136 22.0754 12.0741C22.0754 10.9346 21.1401 10 19.9999 10Z" fill="white"/>
<path d="M20 43.25C20.7944 43.25 21.4478 42.597 21.4478 41.8032C21.4478 41.0094 20.7944 40.3564 20 40.3564C19.2057 40.3564 18.5522 41.0094 18.5522 41.8032C18.5522 42.6098 19.2057 43.25 20 43.25Z" fill="white"/>
<path d="M19.9999 45.8232C18.8596 45.8232 17.9243 46.7579 17.9243 47.8974C17.9243 49.0368 18.8596 49.9715 19.9999 49.9715C21.1401 49.9715 22.0754 49.0368 22.0754 47.8974C22.0754 46.7579 21.1401 45.8232 19.9999 45.8232Z" fill="white"/>
<path d="M30.3877 29.9858C30.3877 30.7796 31.0411 31.4326 31.8354 31.4326C32.6298 31.4326 33.2832 30.7796 33.2832 29.9858C33.2832 29.192 32.6298 28.5391 31.8354 28.5391C31.0283 28.5391 30.3877 29.192 30.3877 29.9858Z" fill="white"/>
<path d="M37.9247 27.9119C36.7844 27.9119 35.8491 28.8465 35.8491 29.986C35.8491 31.1255 36.7844 32.0601 37.9247 32.0601C39.065 32.0601 40.0003 31.1255 40.0003 29.986C40.0003 28.8465 39.065 27.9119 37.9247 27.9119Z" fill="white"/>
<path d="M6.72656 29.9858C6.72656 30.7796 7.37995 31.4326 8.1743 31.4326C8.96865 31.4326 9.62207 30.7796 9.62207 29.9858C9.62207 29.192 8.96865 28.5391 8.1743 28.5391C7.37995 28.5391 6.72656 29.192 6.72656 29.9858Z" fill="white"/>
<path d="M4.15111 29.986C4.15111 28.8465 3.21583 27.9119 2.07555 27.9119C0.935277 27.9119 0 28.8465 0 29.986C0 31.1255 0.935277 32.0601 2.07555 32.0601C3.21583 32.0601 4.15111 31.1255 4.15111 29.986Z" fill="white"/>
<path d="M28.3643 36.8992C27.9927 36.8992 27.6212 37.04 27.3393 37.3217C26.7756 37.885 26.7756 38.794 27.3393 39.3574C27.903 39.9207 28.8255 39.9207 29.3764 39.3574C29.9401 38.794 29.9401 37.885 29.3764 37.3217C29.1074 37.04 28.7358 36.8992 28.3643 36.8992Z" fill="white"/>
<path d="M31.2104 41.1885C30.4032 41.9951 30.4032 43.3139 31.2104 44.1205C32.0175 44.9271 33.3372 44.9271 34.1443 44.1205C34.9515 43.3139 34.9515 41.9951 34.1443 41.1885C33.3372 40.3691 32.0175 40.3691 31.2104 41.1885Z" fill="white"/>
<path d="M12.6578 22.6496C13.2215 22.0863 13.2215 21.1773 12.6578 20.6139C12.3759 20.3322 12.0044 20.1914 11.6328 20.1914C11.2613 20.1914 10.8897 20.3322 10.6079 20.6139C10.0441 21.1773 10.0441 22.0863 10.6079 22.6496C11.1716 23.213 12.094 23.213 12.6578 22.6496Z" fill="white"/>
<path d="M7.32781 19.3974C7.87873 19.3974 8.40402 19.1797 8.8012 18.7956C9.60836 17.989 9.60836 16.6703 8.8012 15.8637C8.40402 15.4668 7.89155 15.262 7.32781 15.262C6.7769 15.262 6.25157 15.4796 5.85439 15.8637C5.04723 16.6703 5.04723 17.989 5.85439 18.7956C6.25157 19.1797 6.7769 19.3974 7.32781 19.3974Z" fill="white"/>
<path d="M12.6577 37.3217C12.3759 37.04 12.0043 36.8992 11.6328 36.8992C11.2613 36.8992 10.8897 37.04 10.6079 37.3217C10.0441 37.885 10.0441 38.794 10.6079 39.3574C11.1716 39.9207 12.094 39.9207 12.645 39.3574C13.2215 38.8068 13.2215 37.885 12.6577 37.3217Z" fill="white"/>
<path d="M7.32781 40.574C6.7769 40.574 6.25157 40.7916 5.85439 41.1757C5.04723 41.9823 5.04723 43.3011 5.85439 44.1077C6.25157 44.5046 6.76408 44.7094 7.32781 44.7094C7.87873 44.7094 8.40402 44.4918 8.8012 44.1077C9.60836 43.3011 9.60836 41.9823 8.8012 41.1757C8.40402 40.7916 7.87873 40.574 7.32781 40.574Z" fill="white"/>
<path d="M27.3385 22.6496C27.9022 23.213 28.8247 23.213 29.3756 22.6496C29.9394 22.0863 29.9394 21.1773 29.3756 20.6139C29.0937 20.3322 28.7222 20.1914 28.3506 20.1914C27.9791 20.1914 27.6075 20.3322 27.3257 20.6139C26.7747 21.1644 26.7748 22.0863 27.3385 22.6496Z" fill="white"/>
<path d="M34.145 18.7832C34.9521 17.9766 34.9521 16.6579 34.145 15.8513C33.735 15.4416 33.2097 15.2495 32.6716 15.2495C32.1335 15.2495 31.6081 15.4544 31.1981 15.8513C30.391 16.6579 30.391 17.9766 31.1981 18.7832C32.0181 19.6026 33.3378 19.6026 34.145 18.7832Z" fill="white"/>
<path d="M15.385 22.2013C15.9872 21.8428 16.6278 21.5484 17.3068 21.3307L13.6042 13.0342C13.3736 12.5093 12.7457 12.266 12.2204 12.4965C11.6951 12.727 11.4517 13.3543 11.6824 13.8792L15.385 22.2013Z" fill="white"/>
<path d="M27.4681 13.4697C27.5706 13.2137 27.5577 12.9192 27.4424 12.6631C27.3271 12.4071 27.1221 12.215 26.8531 12.1126C26.725 12.0614 26.6096 12.0486 26.4815 12.0486C26.3406 12.0486 26.1869 12.0742 26.0587 12.1382C25.8025 12.2534 25.6103 12.4583 25.5078 12.7272L22.2407 21.2285C22.9326 21.4077 23.586 21.651 24.201 21.9711L27.4681 13.4697Z" fill="white"/>
<path d="M28.6609 27.2843L36.9631 23.5841C37.2193 23.4689 37.4116 23.2641 37.5141 22.9952C37.6166 22.7391 37.6037 22.4447 37.4884 22.1886C37.3731 21.9325 37.1681 21.7405 36.8991 21.6381C36.63 21.5356 36.3481 21.5484 36.0919 21.6637L27.7769 25.3638C28.1484 25.9655 28.4431 26.6057 28.6609 27.2843Z" fill="white"/>
<path d="M37.2723 35.4909L28.7651 32.2261C28.5857 32.9174 28.3423 33.5704 28.022 34.185L36.5164 37.437C36.7855 37.5394 37.0673 37.5266 37.3235 37.4114C37.5798 37.2961 37.772 37.0913 37.8745 36.8224C38.0923 36.2975 37.8232 35.6957 37.2723 35.4909Z" fill="white"/>
<path d="M24.6225 37.77C24.0203 38.1285 23.3797 38.423 22.7007 38.6406L26.4033 46.9371C26.634 47.462 27.2618 47.7053 27.7871 47.4748C28.0433 47.3596 28.2355 47.1548 28.338 46.8859C28.4405 46.6298 28.4276 46.3354 28.3123 46.0793L24.6225 37.77Z" fill="white"/>
<path d="M12.53 46.5021C12.4275 46.7581 12.4403 47.0526 12.5556 47.3087C12.6709 47.5647 12.8759 47.7568 13.1449 47.8592C13.4011 47.9616 13.6958 47.9488 13.9521 47.8336C14.2083 47.7184 14.4005 47.5135 14.503 47.2446L17.7701 38.7433C17.0782 38.5641 16.4248 38.3208 15.8098 38.0007L12.53 46.5021Z" fill="white"/>
<path d="M11.3508 32.6875L3.04857 36.3876C2.52327 36.6181 2.27986 37.2454 2.51048 37.7704C2.7411 38.2953 3.36887 38.5386 3.89417 38.3081L12.2092 34.608C11.8505 34.0062 11.5558 33.3661 11.3508 32.6875Z" fill="white"/>
<path d="M2.72931 24.4803L11.2366 27.7451C11.4159 27.0538 11.6594 26.4008 11.9797 25.7863L3.48526 22.5342C2.94715 22.3294 2.33217 22.5983 2.12718 23.136C1.90937 23.6737 2.1912 24.2755 2.72931 24.4803Z" fill="white"/>
<path d="M56.579 41.432C61.583 41.432 64.967 38.084 64.967 33.944C64.967 30.308 62.339 28.184 58.163 27.068L55.031 26.204C51.899 25.376 51.647 23.756 51.647 22.964C51.647 20.696 53.735 19.148 56.075 19.148C58.631 19.148 60.467 20.768 60.467 23.108H64.139C64.139 18.572 60.647 15.764 56.183 15.764C51.791 15.764 47.939 18.68 47.939 23.036C47.939 25.088 48.803 28.22 54.095 29.552L57.263 30.344C59.279 30.884 61.259 31.928 61.259 34.124C61.259 36.176 59.531 38.048 56.579 38.048C53.483 38.048 51.503 35.996 51.431 33.872H47.759C47.759 37.868 51.287 41.432 56.579 41.432ZM77.4393 24.188H73.8393V17.888H70.3113V24.188H67.2873V27.14H70.3113V41H73.8393V27.14H77.4393V24.188ZM96.4945 32.504C96.4945 27.212 92.8585 23.756 88.0705 23.756C83.2825 23.756 79.3945 27.212 79.3945 32.54C79.3945 37.868 83.2105 41.432 88.0705 41.432C91.2745 41.432 94.2985 39.92 95.7745 37.112L92.9665 35.708C92.0305 37.256 90.1945 38.156 88.2145 38.156C85.5145 38.156 83.4985 36.752 83.0305 34.016H96.4225C96.4585 33.476 96.4945 32.972 96.4945 32.504ZM83.0665 31.172C83.5705 28.364 85.5145 27.032 88.1065 27.032C90.6985 27.032 92.6065 28.544 92.9665 31.172H83.0665ZM100.618 41H104.146V15.044H100.618V41ZM109.442 41H112.97V15.044H109.442V41ZM131.335 24.188V26.708C130.255 24.8 127.951 23.756 125.503 23.756C120.751 23.756 117.187 27.572 117.187 32.576C117.187 37.76 120.967 41.432 125.359 41.432C127.951 41.432 130.255 40.1 131.335 38.156V41H134.863V24.188H131.335ZM125.971 38.12C123.019 38.12 120.751 35.6 120.751 32.576C120.751 29.588 123.019 27.068 125.899 27.068C128.599 27.068 131.299 29.336 131.299 32.576C131.299 35.744 128.779 38.12 125.971 38.12ZM149.169 23.756C147.369 23.756 144.669 24.692 143.697 26.78V24.188H140.169V41H143.697V31.964C143.697 28.472 146.361 27.212 148.557 27.212C150.717 27.212 152.373 28.868 152.373 31.604V41H155.901V31.388C155.937 26.6 153.417 23.756 149.169 23.756ZM169.267 24.188H165.667V17.888H162.139V24.188H159.115V27.14H162.139V41H165.667V27.14H169.267V24.188Z" fill="white"/>
</svg>
