<svg fill="none" height="31" viewBox="0 0 31 31" width="31" xmlns="http://www.w3.org/2000/svg"><path d="m22.9625.0630593-5.7248 5.7005707-8.5304 2.42148c-1.6808.44142-2.99511 1.68999-3.55116 3.34219l-5.15614 15.8657 1.80718 1.8035 1.80717 1.8035 15.91075-5.1583c1.6302-.5549 2.8813-1.8665 3.3363-3.5187l2.4264-8.513 5.7122-5.71317-8.1133-8.09683zm0 3.5565507 4.5243 4.51505-3.2732 3.25384-4.5369-4.52764 3.2605-3.26647zm-5.4215 4.67901 5.2572 5.24658-2.3379 8.122c-.2402.845-.872 1.5134-1.6935 1.7909l-13.91397 4.4898 7.31717-7.3149c.2022.0505.4297.0757.6445.0883v-.0012c1.3901-.0127 2.5149-1.1351 2.5149-2.535-.0126-1.4-1.1374-2.5224-2.5275-2.5224v-.0013c-1.4028 0-2.5275 1.1225-2.5275 2.5224 0 .2144.0252.4288.0758.6432l-7.32982 7.3023 4.49898-13.8731c.27803-.845.94782-1.4756 1.80718-1.7026l8.12596-2.32057z" fill="#ff6501"/></svg>