<svg width="14" height="14" viewBox="0 0 14 14" fill="none" xmlns="http://www.w3.org/2000/svg">
<path d="M7 0C5.09707 0 4.85992 0.00918865 4.1152 0.0406926C3.36742 0.0774472 2.86161 0.193399 2.4153 0.366671C1.9482 0.543014 1.52517 0.819109 1.17571 1.17571C0.818115 1.52435 0.541866 1.94761 0.366671 2.4153C0.193399 2.86161 0.0774472 3.36742 0.0406926 4.1152C0.00700088 4.86036 0 5.09708 0 7C0 8.90293 0.00918865 9.14008 0.0406926 9.8848C0.0774472 10.6304 0.193399 11.1384 0.366671 11.5847C0.543014 12.0518 0.819109 12.4748 1.17571 12.8243C1.52435 13.1819 1.94761 13.4581 2.4153 13.6333C2.86161 13.8044 3.36961 13.9226 4.1152 13.9593C4.86036 13.993 5.09707 14 7 14C8.90293 14 9.14008 13.9908 9.8848 13.9593C10.6304 13.9226 11.1384 13.804 11.5847 13.6333C12.0518 13.457 12.4748 13.1809 12.8243 12.8243C13.1823 12.476 13.4587 12.0527 13.6333 11.5847C13.8044 11.1384 13.9226 10.6304 13.9593 9.8848C13.993 9.13964 14 8.90293 14 7C14 5.09708 13.9908 4.85992 13.9593 4.1152C13.9226 3.36961 13.804 2.85898 13.6333 2.4153C13.457 1.9482 13.1809 1.52517 12.8243 1.17571C12.476 0.817654 12.0527 0.541334 11.5847 0.366671C11.1384 0.193399 10.6304 0.0774472 9.8848 0.0406926C9.13964 0.00700088 8.90293 0 7 0ZM7 1.26016C8.8688 1.26016 9.09195 1.26935 9.83054 1.30085C10.5118 1.33279 10.8829 1.44656 11.1292 1.54282C11.4338 1.65524 11.7094 1.83416 11.9361 2.06657C12.1681 2.29227 12.3463 2.56729 12.4576 2.87123C12.5539 3.11758 12.6676 3.48862 12.6996 4.1699C12.7311 4.90849 12.7403 5.13208 12.7403 7.00044C12.7403 8.8688 12.7311 9.09239 12.697 9.83098C12.6602 10.5123 12.5464 10.8833 12.4506 11.1296C12.318 11.4582 12.1701 11.688 11.926 11.9365C11.6986 12.1674 11.4231 12.3455 11.1191 12.4581C10.8759 12.5543 10.4996 12.6681 9.81566 12.7C9.07313 12.7315 8.85436 12.7407 6.98075 12.7407C5.10714 12.7407 4.8888 12.7315 4.14539 12.6974C3.46412 12.6606 3.08826 12.5469 2.84192 12.4511C2.50938 12.3185 2.28141 12.1706 2.03725 11.9264C1.79091 11.6801 1.63427 11.4456 1.5135 11.1196C1.41549 10.8763 1.30348 10.5 1.26716 9.8161C1.24222 9.08232 1.2304 8.8548 1.2304 6.98994C1.2304 5.12595 1.24222 4.89799 1.26716 4.15502C1.30348 3.47112 1.41549 3.0957 1.5135 2.85154C1.63427 2.51857 1.79135 2.29104 2.03725 2.04469C2.28097 1.80098 2.50938 1.64346 2.84192 1.52007C3.08826 1.42424 3.45493 1.31048 4.13883 1.27635C4.88136 1.24966 5.10014 1.24003 6.97112 1.24003L7 1.26016ZM7 3.40724C6.52803 3.40707 6.06065 3.4999 5.62457 3.68044C5.18849 3.86097 4.79227 4.12567 4.45853 4.45941C4.1248 4.79314 3.8601 5.18937 3.67956 5.62545C3.49903 6.06152 3.40619 6.5289 3.40636 7.00088C3.40619 7.47285 3.49903 7.94023 3.67956 8.37631C3.8601 8.81238 4.1248 9.20861 4.45853 9.54235C4.79227 9.87608 5.18849 10.1408 5.62457 10.3213C6.06065 10.5019 6.52803 10.5947 7 10.5945C7.47197 10.5947 7.93935 10.5019 8.37543 10.3213C8.81151 10.1408 9.20774 9.87608 9.54147 9.54235C9.8752 9.20861 10.1399 8.81238 10.3204 8.37631C10.501 7.94023 10.5938 7.47285 10.5936 7.00088C10.5938 6.5289 10.501 6.06152 10.3204 5.62545C10.1399 5.18937 9.8752 4.79314 9.54147 4.45941C9.20774 4.12567 8.81151 3.86097 8.37543 3.68044C7.93935 3.4999 7.47197 3.40707 7 3.40724ZM7 9.33436C5.71009 9.33436 4.66652 8.29079 4.66652 7.00088C4.66652 5.71096 5.71009 4.6674 7 4.6674C8.28991 4.6674 9.33348 5.71096 9.33348 7.00088C9.33348 8.29079 8.28991 9.33436 7 9.33436ZM11.5786 3.26372C11.5783 3.48673 11.4896 3.70052 11.3318 3.85813C11.174 4.01573 10.9602 4.10426 10.7372 4.10426C10.6269 4.10426 10.5177 4.08254 10.4158 4.04035C10.314 3.99815 10.2214 3.9363 10.1434 3.85833C10.0655 3.78036 10.0036 3.6878 9.9614 3.58592C9.91921 3.48405 9.89749 3.37486 9.89749 3.2646C9.89749 3.15433 9.91921 3.04514 9.9614 2.94327C10.0036 2.8414 10.0655 2.74883 10.1434 2.67086C10.2214 2.59289 10.314 2.53104 10.4158 2.48884C10.5177 2.44665 10.6269 2.42493 10.7372 2.42493C11.1997 2.42493 11.5786 2.80123 11.5786 3.26372Z" fill="white"/>
</svg>
