<svg width="13" height="13" viewBox="0 0 13 13" fill="none" xmlns="http://www.w3.org/2000/svg">
<path d="M2.32195 3.79795C3.12755 3.79795 3.78061 3.14488 3.78061 2.33928C3.78061 1.53368 3.12755 0.880615 2.32195 0.880615C1.51635 0.880615 0.863281 1.53368 0.863281 2.33928C0.863281 3.14488 1.51635 3.79795 2.32195 3.79795Z" fill="#FF811F"/>
<path d="M5.15814 4.90337V12.996H7.67081V8.99404C7.67081 7.93804 7.86948 6.91537 9.17881 6.91537C10.4701 6.91537 10.4861 8.1227 10.4861 9.0607V12.9967H13.0001V8.5587C13.0001 6.3787 12.5308 4.70337 9.98281 4.70337C8.75948 4.70337 7.93948 5.3747 7.60414 6.01004H7.57014V4.90337H5.15814V4.90337ZM1.06348 4.90337H3.58014V12.996H1.06348V4.90337Z" fill="#FF811F"/>
</svg>
