<?xml version="1.0" encoding="UTF-8"?>
<svg fill="#FFFFFF" width="100pt" height="100pt" version="1.1" viewBox="0 0 100 100" xmlns="http://www.w3.org/2000/svg">
 <g>
  <path d="m50.047 99.602c-27.305 0-49.52-22.211-49.52-49.52 0-18.93 11.074-36.457 28.215-44.648 1.2188-0.57812 2.6406-0.57031 3.8477 0.039062 1.207 0.60938 2.0664 1.7422 2.3242 3.0664 0.41406 2.1406 2.0859 7.1133 8.5781 7.1133 4.5352 0 6.6953-2.4531 7.7031-4.5156 0.90625-1.8398 2.9688-2.8125 4.9688-2.3164 1.9961 0.49609 3.3789 2.3047 3.3242 4.3594-0.085937 3.3438 0.84375 6.3438 2.4844 8.0312 2.1758 2.2305 5.9414 2.3789 10.953 0.58203 1.832-0.66016 3.8789-0.023438 5.0156 1.5586 1.1406 1.5742 1.0977 3.7148-0.10156 5.25-1.9062 2.4375-2.0859 6.0156-0.46875 9.3359 1.9219 3.9492 5.7734 6.3047 10.305 6.3047 1.9492 0 3.6758-0.42188 5.2734-1.2812 1.3086-0.70313 2.8789-0.69922 4.1836 0.011718 1.3008 0.71875 2.1484 2.043 2.2539 3.5195l0.039062 0.53906c0.074219 1.0117 0.14453 2.0195 0.14453 3.0508-0.003906 27.309-22.215 49.52-49.523 49.52zm-21.777-83.938c-11.68 7.4141-19.004 20.453-19.004 34.414 0 22.488 18.293 40.781 40.781 40.781 21.59 0 39.312-16.863 40.695-38.109-1.0039 0.14844-2.0234 0.22266-3.0703 0.22266-7.832 0-14.789-4.2969-18.16-11.215-1.5898-3.2656-2.2148-6.7305-1.9062-10.02-0.24609 0.007813-0.49219 0.011719-0.73438 0.011719h-0.003906c-4.4609 0-8.3164-1.543-11.152-4.4492-1.3867-1.4297-2.5117-3.1758-3.3359-5.1484-2.5664 1.457-5.582 2.2305-8.8867 2.2305-6.7227 0.003907-12.262-3.2852-15.223-8.7188z"/>
  <path d="m95.93 10.027c0 2.0156-1.6328 3.6406-3.6445 3.6406-2.0117 0-3.6406-1.6289-3.6406-3.6406 0-2.0078 1.6289-3.6406 3.6406-3.6406 2.0117 0 3.6445 1.6328 3.6445 3.6406z"/>
  <path d="m34.875 39.355c0 3.418-2.7695 6.1914-6.1875 6.1914-3.4219 0-6.1914-2.7734-6.1914-6.1914s2.7695-6.1914 6.1914-6.1914c3.418 0 6.1875 2.7734 6.1875 6.1914"/>
  <path d="m39.363 63.672c0 3.418-2.7695 6.1914-6.1875 6.1914s-6.1914-2.7734-6.1914-6.1914 2.7734-6.1914 6.1914-6.1914 6.1875 2.7734 6.1875 6.1914"/>
  <path d="m62.062 71.445c0 3.418-2.7695 6.1875-6.1914 6.1875-3.418 0-6.1875-2.7695-6.1875-6.1875 0-3.4219 2.7695-6.1914 6.1875-6.1914 3.4219 0 6.1914 2.7695 6.1914 6.1914"/>
  <path d="m59.281 46.723c0 3.418-2.7695 6.1914-6.1875 6.1914s-6.1914-2.7734-6.1914-6.1914c0-3.418 2.7734-6.1914 6.1914-6.1914s6.1875 2.7734 6.1875 6.1914"/>
  <path d="m78.324 7.6055c0 3.1445-2.5547 5.6992-5.7031 5.6992-3.1484 0-5.7031-2.5547-5.7031-5.6992 0-3.1523 2.5547-5.707 5.7031-5.707 3.1523-0.003907 5.7031 2.5547 5.7031 5.707z"/>
  <path d="m97.02 29.324c0 5.3438-8.0117 5.3438-8.0117 0 0-5.3398 8.0117-5.3398 8.0117 0"/>
 </g>
</svg>
