<svg fill="none" height="1000" viewBox="0 0 712 1000" width="712" xmlns="http://www.w3.org/2000/svg" xmlns:xlink="http://www.w3.org/1999/xlink"><filter id="a" color-interpolation-filters="sRGB" filterUnits="userSpaceOnUse" height="866.116" width="1254.76" x="-265.887" y="131.431"><feFlood flood-opacity="0" result="BackgroundImageFix"/><feColorMatrix in="SourceAlpha" type="matrix" values="0 0 0 0 0 0 0 0 0 0 0 0 0 0 0 0 0 0 127 0"/><feMorphology in="SourceAlpha" operator="erode" radius="10" result="effect1_dropShadow"/><feOffset dy="25"/><feGaussianBlur stdDeviation="25"/><feColorMatrix type="matrix" values="0 0 0 0 0.879167 0 0 0 0 0.807938 0 0 0 0 0.750955 0 0 0 0.35 0"/><feBlend in2="BackgroundImageFix" mode="normal" result="effect1_dropShadow"/><feBlend in="SourceGraphic" in2="effect1_dropShadow" mode="normal" result="shape"/></filter><filter id="b" color-interpolation-filters="sRGB" filterUnits="userSpaceOnUse" height="301.201" width="536.093" x="285.285" y="396.458"><feFlood flood-opacity="0" result="BackgroundImageFix"/><feBlend in="SourceGraphic" in2="BackgroundImageFix" mode="normal" result="shape"/><feGaussianBlur result="effect1_foregroundBlur" stdDeviation="15"/></filter><filter id="c" color-interpolation-filters="sRGB" filterUnits="userSpaceOnUse" height="866.116" width="1254.76" x="-141.887" y="777.432"><feFlood flood-opacity="0" result="BackgroundImageFix"/><feColorMatrix in="SourceAlpha" type="matrix" values="0 0 0 0 0 0 0 0 0 0 0 0 0 0 0 0 0 0 127 0"/><feMorphology in="SourceAlpha" operator="erode" radius="10" result="effect1_dropShadow"/><feOffset dy="25"/><feGaussianBlur stdDeviation="25"/><feColorMatrix type="matrix" values="0 0 0 0 0.879167 0 0 0 0 0.807938 0 0 0 0 0.750955 0 0 0 0.35 0"/><feBlend in2="BackgroundImageFix" mode="normal" result="effect1_dropShadow"/><feBlend in="SourceGraphic" in2="effect1_dropShadow" mode="normal" result="shape"/></filter><filter id="d" color-interpolation-filters="sRGB" filterUnits="userSpaceOnUse" height="866.116" width="1254.76" x="-331.887" y="-549.569"><feFlood flood-opacity="0" result="BackgroundImageFix"/><feColorMatrix in="SourceAlpha" type="matrix" values="0 0 0 0 0 0 0 0 0 0 0 0 0 0 0 0 0 0 127 0"/><feMorphology in="SourceAlpha" operator="erode" radius="10" result="effect1_dropShadow"/><feOffset dy="25"/><feGaussianBlur stdDeviation="25"/><feColorMatrix type="matrix" values="0 0 0 0 0.879167 0 0 0 0 0.807938 0 0 0 0 0.750955 0 0 0 0.35 0"/><feBlend in2="BackgroundImageFix" mode="normal" result="effect1_dropShadow"/><feBlend in="SourceGraphic" in2="effect1_dropShadow" mode="normal" result="shape"/></filter><filter id="e" color-interpolation-filters="sRGB" filterUnits="userSpaceOnUse" height="301.201" width="536.093" x="219.285" y="-284.542"><feFlood flood-opacity="0" result="BackgroundImageFix"/><feBlend in="SourceGraphic" in2="BackgroundImageFix" mode="normal" result="shape"/><feGaussianBlur result="effect1_foregroundBlur" stdDeviation="15"/></filter><mask id="f" height="1000" maskUnits="userSpaceOnUse" width="712" x="0" y="0"><path d="m0 0h712v1000h-712z" fill="#ead9cc"/></mask><path d="m0 0h712v1000h-712z" fill="#f8ebe2"/><g mask="url(#f)"><g filter="url(#a)"><rect fill="#fff" height="622.029" rx="24" transform="matrix(.902585 -.430511 .707107 .707107 -237 500.138)" width="838.858"/></g><rect fill="#fbf2eb" height="391.648" rx="8" transform="matrix(.902585 -.430511 .707107 .707107 -64.9258 616.208)" width="185.66"/><rect fill="#fbf2eb" height="299.495" rx="8" transform="matrix(.902585 -.430511 .707107 .707107 36.3818 412.201)" width="525.811"/><rect fill="#fff" height="113.835" rx="8" transform="matrix(.902585 -.430511 .707107 .707107 179.771 512.232)" width="298.14"/><rect fill="#fbf2eb" height="107.059" rx="8" transform="matrix(.902585 -.430511 .707107 .707107 -170.334 510.799)" width="185.66"/><path clip-rule="evenodd" d="m72.3792 679.443c-1.5621-1.562-1.212-3.6.7819-4.551l66.1699-31.561c1.993-.951 4.876-.456 6.438 1.106l3.926 3.926c1.562 1.562 1.212 3.6-.782 4.551l-66.1693 31.561c-1.9939.951-4.8767.456-6.4388-1.107z" fill="#ead6c7" fill-rule="evenodd"/><path clip-rule="evenodd" d="m217.076 824.14c-1.562-1.562-1.212-3.599.782-4.551l66.17-31.561c1.994-.951 4.876-.455 6.439 1.107l3.925 3.925c1.562 1.563 1.212 3.6-.782 4.551l-66.169 31.561c-1.994.951-4.877.456-6.439-1.106z" fill="#ead6c7" fill-rule="evenodd"/><path clip-rule="evenodd" d="m197.911 804.975c-1.562-1.562-1.212-3.6.782-4.551l66.17-31.561c1.994-.951 4.876-.455 6.439 1.107l3.925 3.925c1.562 1.562 1.212 3.6-.782 4.551l-66.169 31.561c-1.994.951-4.877.456-6.439-1.106z" fill="#ead6c7" fill-rule="evenodd"/><path clip-rule="evenodd" d="m91.5452 698.608c-1.5621-1.562-1.212-3.599.7819-4.55l66.1699-31.561c1.993-.952 4.876-.456 6.438 1.106l3.926 3.926c1.562 1.562 1.212 3.599-.782 4.55l-66.169 31.561c-1.9942.951-4.8769.456-6.439-1.106z" fill="#ead6c7" fill-rule="evenodd"/><path clip-rule="evenodd" d="m236.242 843.305c-1.563-1.562-1.213-3.599.781-4.55l66.17-31.562c1.994-.951 4.877-.455 6.439 1.107l3.925 3.925c1.562 1.563 1.212 3.6-.782 4.551l-66.169 31.561c-1.994.951-4.877.456-6.439-1.106z" fill="#ead6c7" fill-rule="evenodd"/><path clip-rule="evenodd" d="m585.784 423.239c-1.563-1.562-1.213-3.599.781-4.55l66.17-31.561c1.994-.951 4.876-.456 6.439 1.106l3.925 3.926c1.562 1.562 1.212 3.599-.782 4.55l-66.169 31.561c-1.994.952-4.877.456-6.439-1.106z" fill="#ead6c7" fill-rule="evenodd"/><path clip-rule="evenodd" d="m564.701 402.158c-1.562-1.563-1.212-3.6.782-4.551l66.17-31.561c1.994-.951 4.876-.456 6.439 1.106l3.925 3.926c1.562 1.562 1.212 3.599-.782 4.55l-66.169 31.562c-1.994.951-4.877.455-6.439-1.107z" fill="#ead6c7" fill-rule="evenodd"/><path clip-rule="evenodd" d="m544.578 382.034c-1.562-1.562-1.212-3.599.782-4.55l66.17-31.561c1.994-.951 4.876-.456 6.439 1.106l3.925 3.926c1.562 1.562 1.212 3.599-.782 4.55l-66.169 31.561c-1.994.951-4.877.456-6.439-1.106z" fill="#ead6c7" fill-rule="evenodd"/><path clip-rule="evenodd" d="m524.454 361.911c-1.562-1.562-1.212-3.6.782-4.551l66.17-31.561c1.994-.951 4.876-.456 6.438 1.106l3.926 3.926c1.562 1.562 1.212 3.6-.782 4.551l-66.169 31.561c-1.994.951-4.877.456-6.439-1.107z" fill="#ead6c7" fill-rule="evenodd"/><rect fill="#ead6c7" height="13.5518" rx="5" transform="matrix(.902585 -.430511 .707107 .707107 45.0879 688.283)" width="13.5518"/><rect fill="#ead6c7" height="13.5519" rx="5" transform="matrix(.902585 -.430511 .707107 .707107 189.785 832.98)" width="13.5518"/><rect fill="#ead6c7" height="13.5518" rx="5" transform="matrix(.902585 -.430511 .707107 .707107 170.62 813.815)" width="13.5518"/><rect fill="#ead6c7" height="13.5518" rx="5" transform="matrix(.902585 -.430511 .707107 .707107 64.2529 707.448)" width="13.5518"/><rect fill="#ead6c7" height="13.5518" rx="5" transform="matrix(.902585 -.430511 .707107 .707107 208.95 852.145)" width="13.5518"/><rect fill="#ead6c7" height="13.5518" rx="5" transform="matrix(.902585 -.430511 .707107 .707107 558.491 432.079)" width="13.5519"/><rect fill="#ead6c7" height="13.5518" rx="5" transform="matrix(.902585 -.430511 .707107 .707107 537.409 410.998)" width="13.5519"/><rect fill="#ead6c7" height="13.5518" rx="5" transform="matrix(.902585 -.430511 .707107 .707107 517.286 390.874)" width="13.5519"/><rect fill="#ead6c7" height="13.5518" rx="5" transform="matrix(.902585 -.430511 .707107 .707107 497.163 370.751)" width="13.5519"/><g clip-rule="evenodd" fill-rule="evenodd"><path d="m-14.3708 628.825c-1.5621-1.563-1.212-3.6.7819-4.551l107.7571-51.397c1.994-.952 4.8767-.456 6.4388 1.106l8.717 8.717c1.562 1.562 1.212 3.599-.782 4.55l-107.756993 51.398c-1.993937.951-4.876667.456-6.438767-1.106z" fill="#ead6c7"/><path d="m90.8704 421.526c-1.5621-1.562-1.212-3.6.7819-4.551l341.3827-162.831c1.994-.951 4.876-.455 6.438 1.107l8.717 8.717c1.562 1.562 1.212 3.599-.782 4.55l-341.382 162.831c-1.994.951-4.876.456-6.4385-1.106z" fill="#ead6c7"/><path d="m8.17203 651.367c-.78105-.781-.60602-1.8.39095-2.275l61.21752-29.2c.997-.475 2.4384-.228 3.2194.554l6.7542 6.754c.781.781.606 1.799-.391 2.275l-61.2175 29.199c-.997.476-2.4384.228-3.2194-.553z" fill="#fff"/><path d="m113.413 444.068c-.781-.781-.606-1.8.391-2.275l249.586-119.046c.997-.476 2.438-.228 3.219.553l6.754 6.754c.781.781.606 1.8-.391 2.275l-249.585 119.046c-.997.476-2.439.228-3.22-.553z" fill="#fff"/><path d="m132.578 463.233c-.781-.781-.606-1.8.391-2.275l117.484-56.037c.996-.475 2.438-.228 3.219.553l6.754 6.755c.781.781.606 1.799-.391 2.275l-117.483 56.036c-.997.476-2.439.228-3.22-.553z" fill="#fff"/><path d="m91.5402 734.735c-.7811-.781-.606-1.8.3909-2.275l61.2179-29.199c.997-.476 2.438-.228 3.219.553l6.754 6.754c.781.781.606 1.8-.391 2.275l-61.217 29.199c-.997.476-2.4386.228-3.2196-.553z" fill="#fff"/><path d="m127.954 771.149c-.781-.781-.606-1.8.391-2.275l85.681-40.868c.997-.475 2.438-.228 3.22.553l6.754 6.755c.781.781.606 1.799-.391 2.275l-85.681 40.867c-.997.476-2.439.228-3.22-.553z" fill="#fff"/><path d="m25.4201 668.615c-.7811-.781-.606-1.799.3909-2.275l83.235-39.701c.997-.475 2.438-.228 3.219.553l6.754 6.755c.781.781.606 1.799-.391 2.275l-83.2344 39.701c-.9969.475-2.4383.228-3.2193-.553z" fill="#fff"/><path d="m109.747 752.942c-.781-.781-.606-1.8.391-2.275l106.475-50.786c.997-.476 2.438-.228 3.219.553l6.755 6.754c.781.781.606 1.8-.391 2.276l-106.475 50.785c-.997.476-2.439.228-3.22-.553z" fill="#fff"/><path d="m269.346 575.656c-.997.476-2.438.228-3.219-.553l-8.403-8.403c-.782-.781-.606-1.8.39-2.276l8.198-3.91c.997-.475 2.438-.227 3.219.554l8.404 8.403c.781.781.606 1.8-.391 2.275z" fill="#f7e9df"/><path d="m344.916 539.611c-.996.475-2.438.228-3.219-.554l-8.403-8.403c-.781-.781-.606-1.799.391-2.275l8.197-3.91c.997-.476 2.439-.228 3.22.553l8.403 8.403c.781.781.606 1.8-.391 2.276z" fill="#f7e9df"/><path d="m420.486 503.566c-.997.476-2.439.228-3.22-.553l-26.186-26.187c-.781-.781-.606-1.799.391-2.275l8.197-3.91c.997-.475 2.438-.228 3.219.553l26.187 26.187c.781.781.606 1.8-.391 2.275z" fill="#f7e9df"/><path d="m288.238 566.645c-.997.475-2.439.228-3.22-.553l-15.891-15.891c-.781-.781-.606-1.8.391-2.276l8.198-3.91c.997-.475 2.438-.227 3.219.554l15.891 15.891c.781.781.606 1.799-.391 2.275z" fill="#f7e9df"/><path d="m363.809 530.599c-.997.476-2.438.228-3.219-.553l-19.635-19.635c-.781-.781-.606-1.799.391-2.275l8.197-3.91c.997-.476 2.439-.228 3.22.553l19.635 19.635c.781.781.606 1.8-.391 2.275z" fill="#f7e9df"/><path d="m439.378 494.555c-.997.475-2.438.227-3.219-.554l-15.891-15.891c-.781-.781-.606-1.799.391-2.275l8.197-3.91c.997-.476 2.439-.228 3.22.553l15.891 15.891c.781.781.606 1.8-.391 2.275z" fill="#f7e9df"/><path d="m307.131 557.634c-.997.475-2.438.227-3.219-.554l-8.403-8.403c-.781-.781-.606-1.8.391-2.275l8.197-3.91c.997-.476 2.438-.228 3.219.553l8.404 8.403c.781.781.606 1.8-.391 2.276z" fill="#f7e9df"/><path d="m382.702 521.588c-.997.476-2.439.228-3.22-.553l-14.487-14.487c-.781-.781-.606-1.8.391-2.275l8.198-3.91c.997-.476 2.438-.228 3.219.553l14.487 14.487c.781.781.606 1.8-.391 2.275z" fill="#f7e9df"/><path d="m458.27 485.544c-.997.475-2.438.228-3.219-.553l-23.847-23.847c-.781-.781-.606-1.8.391-2.275l8.197-3.91c.997-.476 2.439-.228 3.22.553l23.846 23.847c.781.781.606 1.799-.391 2.275z" fill="#f7e9df"/><path d="m477.164 476.532c-.997.476-2.439.228-3.22-.553l-28.527-28.527c-.781-.781-.606-1.8.391-2.275l8.198-3.91c.997-.476 2.438-.228 3.219.553l28.527 28.527c.781.781.606 1.8-.391 2.275z" fill="#f7e9df"/><path d="m326.023 548.622c-.997.476-2.438.228-3.219-.553l-24.783-24.783c-.781-.781-.606-1.799.391-2.275l8.197-3.91c.997-.475 2.439-.228 3.22.553l24.782 24.783c.781.781.606 1.8-.391 2.275z" fill="#f7e9df"/><path d="m401.592 512.577c-.997.476-2.438.228-3.219-.553l-30.399-30.398c-.781-.781-.606-1.8.391-2.276l8.198-3.91c.997-.475 2.438-.227 3.219.554l30.399 30.398c.781.781.606 1.8-.391 2.275z" fill="#f7e9df"/><path d="m496.055 467.521c-.997.475-2.438.228-3.219-.553l-37.419-37.419c-.781-.781-.606-1.8.391-2.275l8.198-3.91c.997-.476 2.438-.228 3.219.553l37.419 37.419c.781.781.606 1.799-.391 2.275z" fill="#f7e9df"/></g><rect fill="#fbf2eb" height="42.0107" rx="8" transform="matrix(.902585 -.430511 .707107 .707107 389.021 764.84)" width="525.811"/><path clip-rule="evenodd" d="m453.571 751.708c-.781-.781-.606-1.8.391-2.275l69.78-33.283c.997-.476 2.438-.228 3.22.553l6.754 6.754c.781.781.606 1.8-.391 2.275l-69.78 33.284c-.997.475-2.438.227-3.219-.554z" fill="#ead6c7" fill-rule="evenodd"/><path clip-rule="evenodd" d="m618.699 672.946c-.781-.781-.606-1.799.391-2.275l138.277-65.955c.997-.475 2.439-.227 3.22.554l6.754 6.754c.781.781.606 1.799-.391 2.275l-138.277 65.955c-.997.475-2.438.228-3.219-.553z" fill="#ead6c7" fill-rule="evenodd"/><ellipse fill="#ead6c7" rx="9.48628" ry="9.4863" transform="matrix(.902585 -.430511 .707107 .707107 427.593 769.087)"/><rect fill="#fbf2eb" height="42.0107" rx="8" transform="matrix(.902585 -.430511 .707107 .707107 350.69 726.51)" width="525.811"/><path clip-rule="evenodd" d="m415.241 713.378c-.781-.781-.606-1.8.391-2.275l37.978-18.114c.997-.476 2.438-.228 3.219.553l6.754 6.754c.781.781.606 1.8-.391 2.275l-37.977 18.114c-.997.476-2.438.228-3.22-.553z" fill="#ead6c7" fill-rule="evenodd"/><path clip-rule="evenodd" d="m580.369 634.616c-.781-.781-.606-1.799.391-2.275l78.342-37.367c.997-.476 2.438-.228 3.22.553l6.754 6.754c.781.781.606 1.8-.391 2.276l-78.342 37.367c-.997.475-2.439.228-3.22-.554z" fill="#ead6c7" fill-rule="evenodd"/><circle fill="#ead6c7" r="9.48628" transform="matrix(.902585 -.430511 .707107 .707107 389.263 730.757)"/><rect fill="#fbf2eb" height="42.0107" rx="8" transform="matrix(.902585 -.430511 .707107 .707107 312.36 688.18)" width="525.811"/><path clip-rule="evenodd" d="m376.911 675.048c-.781-.782-.606-1.8.391-2.276l53.879-25.698c.997-.476 2.438-.228 3.219.553l6.754 6.754c.781.781.606 1.8-.391 2.275l-53.878 25.699c-.997.475-2.438.228-3.22-.553z" fill="#ead6c7" fill-rule="evenodd"/><path clip-rule="evenodd" d="m542.039 596.286c-.781-.781-.606-1.8.391-2.275l187.204-89.292c.997-.476 2.438-.228 3.219.553l6.755 6.754c.781.781.606 1.8-.391 2.275l-187.204 89.292c-.997.476-2.439.228-3.22-.553z" fill="#ead6c7" fill-rule="evenodd"/><ellipse fill="#ead6c7" rx="9.48628" ry="9.48627" transform="matrix(.902585 -.430511 .707107 .707107 350.933 692.427)"/><g filter="url(#b)" opacity=".3"><rect fill="#ff6501" height="42.0107" rx="8" transform="matrix(.902585 -.430511 .707107 .707107 311.581 640.43)" width="502.773"/></g><rect fill="#ff6501" height="42.0107" rx="8" transform="matrix(.902585 -.430511 .707107 .707107 280.613 631.141)" width="525.811"/><path clip-rule="evenodd" d="m345.164 618.008c-.781-.781-.606-1.799.391-2.275l79.565-37.95c.997-.476 2.439-.228 3.22.553l6.754 6.754c.781.781.606 1.8-.391 2.275l-79.565 37.951c-.997.475-2.439.228-3.22-.553z" fill="#ffb585" fill-rule="evenodd"/><path clip-rule="evenodd" d="m510.292 539.247c-.781-.781-.606-1.8.391-2.276l118.707-56.62c.997-.475 2.438-.227 3.219.554l6.754 6.754c.781.781.606 1.799-.391 2.275l-118.706 56.62c-.997.476-2.439.228-3.22-.553z" fill="#ffb585" fill-rule="evenodd"/><ellipse fill="#ffb585" rx="9.48628" ry="9.48627" transform="matrix(.902585 -.430511 .707107 .707107 319.186 635.388)"/><path d="m507.291 604.731c20.445 37.831 3.167 80.422-33.273 107.572" stroke="#ff6501" stroke-dasharray="6 6" stroke-linecap="round" stroke-width="2"/><path d="m497.597 605.67c1.645-4.3 3.336-8.124-.061-13.753 2.922 2.429 9.614 5.618 17.683 8.501" stroke="#ff6501" stroke-dasharray="6 6" stroke-linecap="round" stroke-width="2"/><g filter="url(#c)"><rect fill="#fff" height="622.029" rx="24" transform="matrix(.902585 -.430511 .707107 .707107 -113 1146.14)" width="838.858"/></g><rect fill="#fbf2eb" height="299.495" rx="8" transform="matrix(.902585 -.430511 .707107 .707107 160.382 1058.2)" width="525.811"/><path clip-rule="evenodd" d="m668.578 1028.03c-1.562-1.56-1.212-3.6.782-4.55l66.17-31.558c1.994-.951 4.876-.455 6.439 1.107l3.925 3.925c1.562 1.563 1.212 3.596-.782 4.546l-66.169 31.57c-1.994.95-4.877.45-6.439-1.11z" fill="#ead6c7" fill-rule="evenodd"/><path clip-rule="evenodd" d="m648.454 1007.91c-1.562-1.56-1.212-3.6.782-4.55l66.17-31.561c1.994-.951 4.876-.455 6.438 1.107l3.926 3.925c1.562 1.562 1.212 3.6-.782 4.551l-66.169 31.558c-1.994.95-4.877.46-6.439-1.1z" fill="#ead6c7" fill-rule="evenodd"/><path clip-rule="evenodd" d="m214.87 1067.53c-1.562-1.57-1.212-3.6.782-4.55l341.383-162.836c1.994-.951 4.876-.455 6.438 1.107l8.717 8.717c1.562 1.562 1.212 3.599-.782 4.55l-341.382 162.832c-1.994.95-4.876.45-6.439-1.11z" fill="#ead6c7" fill-rule="evenodd"/><path clip-rule="evenodd" d="m237.413 1090.07c-.781-.78-.606-1.8.391-2.28l249.586-119.043c.997-.476 2.438-.228 3.219.553l6.754 6.754c.781.781.606 1.8-.391 2.275l-249.585 119.051c-.997.47-2.439.22-3.22-.56z" fill="#fff" fill-rule="evenodd"/><g filter="url(#d)"><rect fill="#fff" height="622.029" rx="24" transform="matrix(.902585 -.430511 .707107 .707107 -303 -180.862)" width="838.858"/></g><rect fill="#fbf2eb" height="391.648" rx="8" transform="matrix(.902585 -.430511 .707107 .707107 -130.926 -64.792)" width="185.66"/><path clip-rule="evenodd" d="m6.37921-1.55707c-1.5621-1.5621-1.21202-3.59941.78191-4.55047l66.16938-31.56116c1.994-.9511 4.8767-.4557 6.4388 1.1063l3.9257 3.9258c1.5621 1.5621 1.2121 3.5994-.7819 4.5504l-66.1694 31.56124c-1.9939.95106-4.8767.45572-6.4388-1.10638z" fill="#ead6c7" fill-rule="evenodd"/><path clip-rule="evenodd" d="m151.076 143.14c-1.562-1.562-1.212-3.599.782-4.551l66.17-31.561c1.994-.951 4.876-.455 6.439 1.107l3.925 3.925c1.562 1.563 1.212 3.6-.782 4.551l-66.169 31.561c-1.994.951-4.877.456-6.439-1.106z" fill="#ead6c7" fill-rule="evenodd"/><path clip-rule="evenodd" d="m131.911 123.975c-1.562-1.562-1.212-3.6.782-4.551l66.17-31.561c1.994-.9511 4.876-.4557 6.439 1.1064l3.925 3.9257c1.562 1.5621 1.212 3.5994-.782 4.5505l-66.169 31.5614c-1.994.951-4.877.455-6.439-1.107z" fill="#ead6c7" fill-rule="evenodd"/><path clip-rule="evenodd" d="m25.5452 17.608c-1.5621-1.5621-1.212-3.5994.7819-4.5505l66.1695-31.5612c1.9939-.9511 4.8766-.4557 6.4387 1.1064l3.9257 3.9257c1.562 1.5621 1.212 3.59945-.782 4.55051l-66.1693 31.56119c-1.9939.9511-4.8766.4557-6.4387-1.1064z" fill="#ead6c7" fill-rule="evenodd"/><path clip-rule="evenodd" d="m170.242 162.305c-1.563-1.562-1.213-3.599.781-4.55l66.17-31.561c1.994-.951 4.877-.456 6.439 1.106l3.925 3.926c1.562 1.562 1.212 3.599-.782 4.55l-66.169 31.561c-1.994.951-4.877.456-6.439-1.106z" fill="#ead6c7" fill-rule="evenodd"/><rect fill="#ead6c7" height="13.5518" rx="5" transform="matrix(.902585 -.430511 .707107 .707107 -20.9121 7.28271)" width="13.5518"/><rect fill="#ead6c7" height="13.5519" rx="5" transform="matrix(.902585 -.430511 .707107 .707107 123.785 151.98)" width="13.5518"/><rect fill="#ead6c7" height="13.5518" rx="5" transform="matrix(.902585 -.430511 .707107 .707107 104.62 132.815)" width="13.5518"/><rect fill="#ead6c7" height="13.5518" rx="5" transform="matrix(.902585 -.430511 .707107 .707107 -1.74707 26.448)" width="13.5518"/><rect fill="#ead6c7" height="13.5518" rx="5" transform="matrix(.902585 -.430511 .707107 .707107 142.95 171.145)" width="13.5518"/><path clip-rule="evenodd" d="m25.5402 53.7353c-.7811-.7811-.606-1.7997.3909-2.2753l61.2176-29.1993c.997-.4755 2.4383-.2278 3.2194.5532l6.7542 6.7542c.781.7811.606 1.7997-.391 2.2753l-61.2175 29.1992c-.997.4756-2.4384.2279-3.2194-.5532z" fill="#fff" fill-rule="evenodd"/><path clip-rule="evenodd" d="m61.9543 90.1491c-.7811-.7811-.6061-1.7997.3909-2.2753l85.6808-40.8677c.997-.4755 2.438-.2278 3.22.5532l6.754 6.7542c.781.7811.606 1.7997-.391 2.2752l-85.6812 40.8677c-.9969.4756-2.4383.2279-3.2194-.5531z" fill="#fff" fill-rule="evenodd"/><path clip-rule="evenodd" d="m43.7472 71.942c-.781-.781-.606-1.7997.391-2.2752l106.4748-50.7859c.997-.4755 2.438-.2278 3.219.5532l6.755 6.7542c.781.781.606 1.7997-.391 2.2752l-106.4752 50.7859c-.997.4755-2.4384.2279-3.2194-.5532z" fill="#fff" fill-rule="evenodd"/><rect fill="#fbf2eb" height="42.0107" rx="8" transform="matrix(.902585 -.430511 .707107 .707107 323.021 83.8406)" width="525.811"/><path clip-rule="evenodd" d="m387.571 70.7084c-.781-.781-.606-1.7997.391-2.2752l69.78-33.2833c.997-.4755 2.438-.2278 3.22.5532l6.754 6.7542c.781.781.606 1.7997-.391 2.2752l-69.78 33.2833c-.997.4755-2.438.2278-3.219-.5532z" fill="#ead6c7" fill-rule="evenodd"/><path clip-rule="evenodd" d="m552.699-8.05332c-.781-.78104-.606-1.7997.391-2.27528l138.277-65.9548c.997-.4755 2.439-.2278 3.22.5532l6.754 6.7542c.781.781.606 1.7997-.391 2.2752l-138.277 65.954832c-.997.475529-2.438.227857-3.219-.553192z" fill="#ead6c7" fill-rule="evenodd"/><ellipse fill="#ead6c7" rx="9.48628" ry="9.4863" transform="matrix(.902585 -.430511 .707107 .707107 361.593 88.0877)"/><rect fill="#fbf2eb" height="42.0107" rx="8" transform="matrix(.902585 -.430511 .707107 .707107 284.69 45.5103)" width="525.811"/><path clip-rule="evenodd" d="m349.241 32.3783c-.781-.781-.606-1.7997.391-2.2752l37.978-18.1143c.997-.4755 2.438-.2279 3.219.5532l6.754 6.7541c.781.7811.606 1.7997-.391 2.2753l-37.977 18.1143c-.997.4755-2.438.2278-3.22-.5532z" fill="#ead6c7" fill-rule="evenodd"/><circle fill="#ead6c7" r="9.48628" transform="matrix(.902585 -.430511 .707107 .707107 323.263 49.7574)"/><rect fill="#fbf2eb" height="42.0107" rx="8" transform="matrix(.902585 -.430511 .707107 .707107 246.36 7.17969)" width="525.811"/><path clip-rule="evenodd" d="m310.911-5.95224c-.781-.78105-.606-1.79971.391-2.27524l53.879-25.69872c.997-.4756 2.438-.2279 3.219.5532l6.754 6.7541c.781.7811.606 1.7997-.391 2.2753l-53.878 25.69873c-.997.47553-2.438.22785-3.22-.553194z" fill="#ead6c7" fill-rule="evenodd"/><ellipse fill="#ead6c7" rx="9.48628" ry="9.48627" transform="matrix(.902585 -.430511 .707107 .707107 284.933 11.4268)"/><g filter="url(#e)" opacity=".3"/></g></svg>