<svg width="171" height="56" viewBox="0 0 171 56" fill="none" xmlns="http://www.w3.org/2000/svg">
<path d="M20.0371 19.6028C20.8315 19.6028 21.4849 18.9498 21.4849 18.156C21.4849 17.3622 20.8315 16.7092 20.0371 16.7092C19.2428 16.7092 18.5894 17.3622 18.5894 18.156C18.5894 18.9498 19.2428 19.6028 20.0371 19.6028Z" fill="#314AA4"/>
<path d="M20.037 10C18.8967 10 17.9614 10.9346 17.9614 12.0741C17.9614 13.2136 18.8967 14.1482 20.037 14.1482C21.1772 14.1482 22.1125 13.2136 22.1125 12.0741C22.1125 10.9346 21.1772 10 20.037 10Z" fill="#314AA4"/>
<path d="M20.0371 43.25C20.8315 43.25 21.4849 42.597 21.4849 41.8032C21.4849 41.0094 20.8315 40.3564 20.0371 40.3564C19.2428 40.3564 18.5894 41.0094 18.5894 41.8032C18.5894 42.6098 19.2428 43.25 20.0371 43.25Z" fill="#314AA4"/>
<path d="M20.037 45.8232C18.8967 45.8232 17.9614 46.7579 17.9614 47.8974C17.9614 49.0368 18.8967 49.9715 20.037 49.9715C21.1772 49.9715 22.1125 49.0368 22.1125 47.8974C22.1125 46.7579 21.1772 45.8232 20.037 45.8232Z" fill="#314AA4"/>
<path d="M30.4248 29.9858C30.4248 30.7796 31.0782 31.4326 31.8725 31.4326C32.6669 31.4326 33.3203 30.7796 33.3203 29.9858C33.3203 29.192 32.6669 28.5391 31.8725 28.5391C31.0654 28.5391 30.4248 29.192 30.4248 29.9858Z" fill="#314AA4"/>
<path d="M37.9618 27.9119C36.8215 27.9119 35.8862 28.8465 35.8862 29.986C35.8862 31.1255 36.8215 32.0601 37.9618 32.0601C39.1021 32.0601 40.0374 31.1255 40.0374 29.986C40.0374 28.8465 39.1021 27.9119 37.9618 27.9119Z" fill="#314AA4"/>
<path d="M6.76367 29.9858C6.76367 30.7796 7.41706 31.4326 8.21141 31.4326C9.00576 31.4326 9.65918 30.7796 9.65918 29.9858C9.65918 29.192 9.00576 28.5391 8.21141 28.5391C7.41706 28.5391 6.76367 29.192 6.76367 29.9858Z" fill="#314AA4"/>
<path d="M4.18822 29.986C4.18822 28.8465 3.25294 27.9119 2.11266 27.9119C0.972386 27.9119 0.0371094 28.8465 0.0371094 29.986C0.0371094 31.1255 0.972386 32.0601 2.11266 32.0601C3.25294 32.0601 4.18822 31.1255 4.18822 29.986Z" fill="#314AA4"/>
<path d="M28.4014 36.8992C28.0298 36.8992 27.6583 37.04 27.3764 37.3217C26.8127 37.885 26.8127 38.794 27.3764 39.3574C27.9401 39.9207 28.8626 39.9207 29.4135 39.3574C29.9773 38.794 29.9773 37.885 29.4135 37.3217C29.1445 37.04 28.7729 36.8992 28.4014 36.8992Z" fill="#314AA4"/>
<path d="M31.2475 41.1885C30.4403 41.9951 30.4403 43.3139 31.2475 44.1205C32.0546 44.9271 33.3743 44.9271 34.1814 44.1205C34.9886 43.3139 34.9886 41.9951 34.1814 41.1885C33.3743 40.3691 32.0546 40.3691 31.2475 41.1885Z" fill="#314AA4"/>
<path d="M12.6949 22.6496C13.2586 22.0863 13.2586 21.1773 12.6949 20.6139C12.413 20.3322 12.0415 20.1914 11.6699 20.1914C11.2984 20.1914 10.9268 20.3322 10.645 20.6139C10.0812 21.1773 10.0812 22.0863 10.645 22.6496C11.2087 23.213 12.1311 23.213 12.6949 22.6496Z" fill="#314AA4"/>
<path d="M7.36492 19.3974C7.91584 19.3974 8.44113 19.1797 8.83831 18.7956C9.64547 17.989 9.64547 16.6703 8.83831 15.8637C8.44113 15.4668 7.92866 15.262 7.36492 15.262C6.814 15.262 6.28868 15.4796 5.8915 15.8637C5.08434 16.6703 5.08434 17.989 5.8915 18.7956C6.28868 19.1797 6.814 19.3974 7.36492 19.3974Z" fill="#314AA4"/>
<path d="M12.6949 37.3217C12.413 37.04 12.0415 36.8992 11.6699 36.8992C11.2984 36.8992 10.9268 37.04 10.645 37.3217C10.0812 37.885 10.0812 38.794 10.645 39.3574C11.2087 39.9207 12.1312 39.9207 12.6821 39.3574C13.2586 38.8068 13.2586 37.885 12.6949 37.3217Z" fill="#314AA4"/>
<path d="M7.36492 40.574C6.814 40.574 6.28868 40.7916 5.8915 41.1757C5.08434 41.9823 5.08434 43.3011 5.8915 44.1077C6.28868 44.5046 6.80119 44.7094 7.36492 44.7094C7.91584 44.7094 8.44113 44.4918 8.83831 44.1077C9.64547 43.3011 9.64547 41.9823 8.83831 41.1757C8.44113 40.7916 7.91584 40.574 7.36492 40.574Z" fill="#314AA4"/>
<path d="M27.3756 22.6496C27.9393 23.213 28.8618 23.213 29.4127 22.6496C29.9765 22.0863 29.9765 21.1773 29.4127 20.6139C29.1309 20.3322 28.7593 20.1914 28.3877 20.1914C28.0162 20.1914 27.6446 20.3322 27.3628 20.6139C26.8118 21.1644 26.8119 22.0863 27.3756 22.6496Z" fill="#314AA4"/>
<path d="M34.1821 18.7832C34.9892 17.9766 34.9892 16.6579 34.1821 15.8513C33.7721 15.4416 33.2468 15.2495 32.7087 15.2495C32.1706 15.2495 31.6452 15.4544 31.2353 15.8513C30.4281 16.6579 30.4281 17.9766 31.2353 18.7832C32.0552 19.6026 33.3749 19.6026 34.1821 18.7832Z" fill="#314AA4"/>
<path d="M15.4221 22.2013C16.0243 21.8428 16.6649 21.5484 17.3439 21.3307L13.6413 13.0342C13.4107 12.5093 12.7828 12.266 12.2576 12.4965C11.7323 12.727 11.4888 13.3543 11.7195 13.8792L15.4221 22.2013Z" fill="#314AA4"/>
<path d="M27.5052 13.4697C27.6077 13.2137 27.5948 12.9192 27.4795 12.6631C27.3642 12.4071 27.1592 12.215 26.8902 12.1126C26.7621 12.0614 26.6467 12.0486 26.5186 12.0486C26.3777 12.0486 26.224 12.0742 26.0958 12.1382C25.8396 12.2534 25.6474 12.4583 25.5449 12.7272L22.2778 21.2285C22.9697 21.4077 23.6231 21.651 24.2381 21.9711L27.5052 13.4697Z" fill="#314AA4"/>
<path d="M28.698 27.2843L37.0002 23.5841C37.2565 23.4689 37.4487 23.2641 37.5512 22.9952C37.6537 22.7391 37.6408 22.4447 37.5255 22.1886C37.4102 21.9325 37.2052 21.7405 36.9362 21.6381C36.6671 21.5356 36.3852 21.5484 36.129 21.6637L27.814 25.3638C28.1855 25.9655 28.4802 26.6057 28.698 27.2843Z" fill="#314AA4"/>
<path d="M37.3094 35.4909L28.8022 32.2261C28.6228 32.9174 28.3794 33.5704 28.0591 34.185L36.5535 37.437C36.8226 37.5394 37.1044 37.5266 37.3606 37.4114C37.6169 37.2961 37.8091 37.0913 37.9116 36.8224C38.1294 36.2975 37.8603 35.6957 37.3094 35.4909Z" fill="#314AA4"/>
<path d="M24.6596 37.77C24.0574 38.1285 23.4168 38.423 22.7378 38.6406L26.4405 46.9371C26.6711 47.462 27.2989 47.7053 27.8242 47.4748C28.0804 47.3596 28.2726 47.1548 28.3751 46.8859C28.4776 46.6298 28.4647 46.3354 28.3494 46.0793L24.6596 37.77Z" fill="#314AA4"/>
<path d="M12.5671 46.5021C12.4646 46.7581 12.4774 47.0526 12.5927 47.3087C12.708 47.5647 12.913 47.7568 13.182 47.8592C13.4383 47.9616 13.7329 47.9488 13.9892 47.8336C14.2454 47.7184 14.4376 47.5135 14.5401 47.2446L17.8072 38.7433C17.1153 38.5641 16.4619 38.3208 15.8469 38.0007L12.5671 46.5021Z" fill="#314AA4"/>
<path d="M11.3879 32.6875L3.08568 36.3876C2.56038 36.6181 2.31697 37.2454 2.54759 37.7704C2.77821 38.2953 3.40598 38.5386 3.93128 38.3081L12.2464 34.608C11.8876 34.0062 11.5929 33.3661 11.3879 32.6875Z" fill="#314AA4"/>
<path d="M2.76642 24.4803L11.2737 27.7451C11.4531 27.0538 11.6965 26.4008 12.0168 25.7863L3.52237 22.5342C2.98426 22.3294 2.36928 22.5983 2.16429 23.136C1.94648 23.6737 2.22831 24.2755 2.76642 24.4803Z" fill="#314AA4"/>
<path d="M56.6161 41.432C61.6201 41.432 65.0041 38.084 65.0041 33.944C65.0041 30.308 62.3761 28.184 58.2001 27.068L55.0681 26.204C51.9361 25.376 51.6841 23.756 51.6841 22.964C51.6841 20.696 53.7721 19.148 56.1121 19.148C58.6681 19.148 60.5041 20.768 60.5041 23.108H64.1761C64.1761 18.572 60.6841 15.764 56.2201 15.764C51.8281 15.764 47.9761 18.68 47.9761 23.036C47.9761 25.088 48.8401 28.22 54.1321 29.552L57.3001 30.344C59.3161 30.884 61.2961 31.928 61.2961 34.124C61.2961 36.176 59.5681 38.048 56.6161 38.048C53.5201 38.048 51.5401 35.996 51.4681 33.872H47.7961C47.7961 37.868 51.3241 41.432 56.6161 41.432ZM77.4764 24.188H73.8764V17.888H70.3484V24.188H67.3244V27.14H70.3484V41H73.8764V27.14H77.4764V24.188ZM96.5317 32.504C96.5317 27.212 92.8957 23.756 88.1077 23.756C83.3197 23.756 79.4317 27.212 79.4317 32.54C79.4317 37.868 83.2477 41.432 88.1077 41.432C91.3117 41.432 94.3357 39.92 95.8117 37.112L93.0037 35.708C92.0677 37.256 90.2317 38.156 88.2517 38.156C85.5517 38.156 83.5357 36.752 83.0677 34.016H96.4597C96.4957 33.476 96.5317 32.972 96.5317 32.504ZM83.1037 31.172C83.6077 28.364 85.5517 27.032 88.1437 27.032C90.7357 27.032 92.6437 28.544 93.0037 31.172H83.1037ZM100.655 41H104.183V15.044H100.655V41ZM109.48 41H113.008V15.044H109.48V41ZM131.372 24.188V26.708C130.292 24.8 127.988 23.756 125.54 23.756C120.788 23.756 117.224 27.572 117.224 32.576C117.224 37.76 121.004 41.432 125.396 41.432C127.988 41.432 130.292 40.1 131.372 38.156V41H134.9V24.188H131.372ZM126.008 38.12C123.056 38.12 120.788 35.6 120.788 32.576C120.788 29.588 123.056 27.068 125.936 27.068C128.636 27.068 131.336 29.336 131.336 32.576C131.336 35.744 128.816 38.12 126.008 38.12ZM149.206 23.756C147.406 23.756 144.706 24.692 143.734 26.78V24.188H140.206V41H143.734V31.964C143.734 28.472 146.398 27.212 148.594 27.212C150.754 27.212 152.41 28.868 152.41 31.604V41H155.938V31.388C155.974 26.6 153.454 23.756 149.206 23.756ZM169.305 24.188H165.705V17.888H162.177V24.188H159.153V27.14H162.177V41H165.705V27.14H169.305V24.188Z" fill="#314AA4"/>
</svg>
