<svg width="186" height="61" viewBox="0 0 186 61" fill="none" xmlns="http://www.w3.org/2000/svg">
<path d="M22.1298 18.6255C23.0087 18.6255 23.7317 17.903 23.7317 17.0247C23.7317 16.1463 23.0087 15.4238 22.1298 15.4238C21.2508 15.4238 20.5278 16.1463 20.5278 17.0247C20.5278 17.903 21.2508 18.6255 22.1298 18.6255Z" fill="#314AA4"/>
<path d="M22.1298 8C20.8681 8 19.8333 9.03417 19.8333 10.295C19.8333 11.5558 20.8681 12.59 22.1298 12.59C23.3915 12.59 24.4264 11.5558 24.4264 10.295C24.4264 9.03417 23.3915 8 22.1298 8Z" fill="#314AA4"/>
<path d="M22.1298 44.791C23.0087 44.791 23.7317 44.0685 23.7317 43.1902C23.7317 42.3119 23.0087 41.5894 22.1298 41.5894C21.2508 41.5894 20.5278 42.3119 20.5278 43.1902C20.5278 44.0827 21.2508 44.791 22.1298 44.791Z" fill="#314AA4"/>
<path d="M22.1298 47.6384C20.8681 47.6384 19.8333 48.6726 19.8333 49.9334C19.8333 51.1943 20.8681 52.2284 22.1298 52.2284C23.3915 52.2284 24.4264 51.1943 24.4264 49.9334C24.4264 48.6726 23.3915 47.6384 22.1298 47.6384Z" fill="#314AA4"/>
<path d="M33.6238 30.1143C33.6238 30.9926 34.3467 31.7151 35.2257 31.7151C36.1046 31.7151 36.8276 30.9926 36.8276 30.1143C36.8276 29.2359 36.1046 28.5134 35.2257 28.5134C34.3326 28.5134 33.6238 29.2359 33.6238 30.1143Z" fill="#314AA4"/>
<path d="M41.9633 27.8196C40.7016 27.8196 39.6667 28.8537 39.6667 30.1146C39.6667 31.3754 40.7016 32.4096 41.9633 32.4096C43.2251 32.4096 44.26 31.3754 44.26 30.1146C44.26 28.8537 43.2251 27.8196 41.9633 27.8196Z" fill="#314AA4"/>
<path d="M7.44312 30.1143C7.44312 30.9926 8.16608 31.7151 9.04503 31.7151C9.92397 31.7151 10.647 30.9926 10.647 30.1143C10.647 29.2359 9.92397 28.5134 9.04503 28.5134C8.16608 28.5134 7.44312 29.2359 7.44312 30.1143Z" fill="#314AA4"/>
<path d="M4.59317 30.1146C4.59317 28.8537 3.5583 27.8196 2.29659 27.8196C1.03488 27.8196 0 28.8537 0 30.1146C0 31.3754 1.03488 32.4096 2.29659 32.4096C3.5583 32.4096 4.59317 31.3754 4.59317 30.1146Z" fill="#314AA4"/>
<path d="M31.3851 37.7639C30.974 37.7639 30.5629 37.9197 30.251 38.2314C29.6273 38.8547 29.6273 39.8606 30.251 40.4839C30.8748 41.1072 31.8955 41.1072 32.5051 40.4839C33.1288 39.8606 33.1288 38.8547 32.5051 38.2314C32.2074 37.9197 31.7962 37.7639 31.3851 37.7639Z" fill="#314AA4"/>
<path d="M34.5343 42.5101C33.6412 43.4026 33.6412 44.8617 34.5343 45.7542C35.4275 46.6467 36.8877 46.6467 37.7808 45.7542C38.6739 44.8617 38.6739 43.4026 37.7808 42.5101C36.8877 41.6034 35.4275 41.6034 34.5343 42.5101Z" fill="#314AA4"/>
<path d="M14.0058 21.9969C14.6296 21.3735 14.6296 20.3677 14.0058 19.7444C13.6939 19.4327 13.2828 19.2769 12.8717 19.2769C12.4606 19.2769 12.0495 19.4327 11.7376 19.7444C11.1138 20.3677 11.1138 21.3735 11.7376 21.9969C12.3614 22.6202 13.382 22.6202 14.0058 21.9969Z" fill="#314AA4"/>
<path d="M8.10803 18.3983C8.71762 18.3983 9.29885 18.1575 9.73832 17.7325C10.6314 16.84 10.6314 15.3808 9.73832 14.4883C9.29885 14.0492 8.7318 13.8225 8.10803 13.8225C7.49844 13.8225 6.91717 14.0633 6.4777 14.4883C5.58458 15.3808 5.58458 16.84 6.4777 17.7325C6.91717 18.1575 7.49844 18.3983 8.10803 18.3983Z" fill="#314AA4"/>
<path d="M14.0058 38.2314C13.6939 37.9197 13.2828 37.7639 12.8717 37.7639C12.4606 37.7639 12.0495 37.9197 11.7376 38.2314C11.1138 38.8547 11.1138 39.8606 11.7376 40.4839C12.3614 41.1072 13.3821 41.1072 13.9916 40.4839C14.6296 39.8747 14.6295 38.8547 14.0058 38.2314Z" fill="#314AA4"/>
<path d="M8.10803 41.8301C7.49844 41.8301 6.91717 42.0709 6.4777 42.4959C5.58458 43.3884 5.58458 44.8476 6.4777 45.7401C6.91717 46.1792 7.48427 46.4059 8.10803 46.4059C8.71762 46.4059 9.29885 46.1651 9.73832 45.7401C10.6314 44.8476 10.6314 43.3884 9.73832 42.4959C9.29885 42.0709 8.71762 41.8301 8.10803 41.8301Z" fill="#314AA4"/>
<path d="M30.2501 21.9969C30.8739 22.6202 31.8946 22.6202 32.5042 21.9969C33.128 21.3735 33.128 20.3677 32.5042 19.7444C32.1923 19.4327 31.7812 19.2769 31.3701 19.2769C30.9589 19.2769 30.5478 19.4327 30.2359 19.7444C29.6264 20.3535 29.6264 21.3735 30.2501 21.9969Z" fill="#314AA4"/>
<path d="M37.7811 17.7186C38.6742 16.8261 38.6742 15.3669 37.7811 14.4744C37.3274 14.0211 36.7462 13.8086 36.1508 13.8086C35.5554 13.8086 34.9741 14.0353 34.5204 14.4744C33.6273 15.3669 33.6273 16.8261 34.5204 17.7186C35.4277 18.6253 36.8879 18.6253 37.7811 17.7186Z" fill="#314AA4"/>
<path d="M17.0237 21.5007C17.69 21.104 18.3988 20.7782 19.1502 20.5374L15.0532 11.3574C14.798 10.7765 14.1034 10.5074 13.5221 10.7624C12.9409 11.0174 12.6716 11.7115 12.9267 12.2924L17.0237 21.5007Z" fill="#314AA4"/>
<path d="M30.3932 11.8393C30.5066 11.556 30.4924 11.2302 30.3648 10.9468C30.2372 10.6635 30.0104 10.451 29.7127 10.3377C29.5709 10.281 29.4433 10.2668 29.3015 10.2668C29.1456 10.2668 28.9755 10.2952 28.8337 10.366C28.5502 10.4935 28.3376 10.7202 28.2242 11.0177L24.6091 20.4243C25.3747 20.6227 26.0977 20.8918 26.7781 21.246L30.3932 11.8393Z" fill="#314AA4"/>
<path d="M31.7133 27.1249L40.8996 23.0307C41.1832 22.9032 41.3959 22.6766 41.5093 22.3791C41.6227 22.0957 41.6085 21.7699 41.4809 21.4866C41.3533 21.2032 41.1265 20.9907 40.8288 20.8774C40.5311 20.7641 40.2192 20.7782 39.9356 20.9057L30.7351 24.9999C31.1462 25.6657 31.4723 26.3741 31.7133 27.1249Z" fill="#314AA4"/>
<path d="M41.2416 36.2058L31.8283 32.5933C31.6299 33.3583 31.3605 34.0808 31.0061 34.7608L40.4051 38.3591C40.7029 38.4724 41.0147 38.4583 41.2982 38.3308C41.5818 38.2033 41.7944 37.9766 41.9079 37.6791C42.1489 37.0983 41.8511 36.4324 41.2416 36.2058Z" fill="#314AA4"/>
<path d="M27.2446 38.7275C26.5783 39.1242 25.8695 39.45 25.1182 39.6909L29.2151 48.8709C29.4703 49.4517 30.165 49.7209 30.7462 49.4659C31.0297 49.3384 31.2424 49.1117 31.3558 48.8142C31.4692 48.5309 31.455 48.205 31.3274 47.9217L27.2446 38.7275Z" fill="#314AA4"/>
<path d="M13.8645 48.3896C13.7511 48.6729 13.7653 48.9987 13.8928 49.2821C14.0204 49.5654 14.2472 49.7779 14.5449 49.8912C14.8285 50.0046 15.1545 49.9904 15.4381 49.8629C15.7216 49.7354 15.9342 49.5087 16.0476 49.2112L19.6627 39.8046C18.8971 39.6062 18.1741 39.3371 17.4937 38.9829L13.8645 48.3896Z" fill="#314AA4"/>
<path d="M12.5594 33.1038L3.37296 37.1979C2.79173 37.4529 2.5224 38.1471 2.77757 38.7279C3.03275 39.3088 3.72738 39.5779 4.30862 39.3229L13.5092 35.2288C13.1123 34.5629 12.7862 33.8546 12.5594 33.1038Z" fill="#314AA4"/>
<path d="M3.01982 24.0225L12.4331 27.635C12.6315 26.87 12.9009 26.1475 13.2553 25.4675L3.85627 21.8692C3.26086 21.6425 2.58039 21.94 2.35356 22.535C2.11256 23.13 2.4244 23.7959 3.01982 24.0225Z" fill="#314AA4"/>
<path d="M62.4528 45.4682C67.8766 45.4682 71.5445 41.8394 71.5445 37.3521C71.5445 33.4111 68.696 31.1089 64.1697 29.8993L60.7749 28.9628C57.3802 28.0653 57.1071 26.3094 57.1071 25.451C57.1071 22.9927 59.3702 21.3149 61.9065 21.3149C64.6769 21.3149 66.667 23.0708 66.667 25.6071H70.647C70.647 20.6905 66.8621 17.647 62.0236 17.647C57.2631 17.647 53.088 20.8076 53.088 25.529C53.088 27.7532 54.0245 31.1479 59.7604 32.5916L63.1942 33.4501C65.3793 34.0354 67.5254 35.167 67.5254 37.5472C67.5254 39.7713 65.6524 41.8004 62.4528 41.8004C59.0971 41.8004 56.951 39.5762 56.8729 37.274H52.8929C52.8929 41.6053 56.7169 45.4682 62.4528 45.4682ZM85.0631 26.7777H81.1611V19.9492H77.3371V26.7777H74.0594V29.9773H77.3371V45H81.1611V29.9773H85.0631V26.7777ZM105.717 35.7913C105.717 30.0553 101.776 26.3094 96.5862 26.3094C91.3965 26.3094 87.1823 30.0553 87.1823 35.8303C87.1823 41.6053 91.3185 45.4682 96.5862 45.4682C100.059 45.4682 103.337 43.8294 104.936 40.7858L101.893 39.2641C100.878 40.9419 98.8883 41.9174 96.7422 41.9174C93.8157 41.9174 91.6306 40.3956 91.1234 37.4301H105.639C105.678 36.8448 105.717 36.2985 105.717 35.7913ZM91.1624 34.3475C91.7087 31.304 93.8157 29.8602 96.6252 29.8602C99.4346 29.8602 101.503 31.4991 101.893 34.3475H91.1624ZM110.186 45H114.01V16.8666H110.186V45ZM119.751 45H123.575V16.8666H119.751V45ZM143.48 26.7777V29.5091C142.309 27.441 139.812 26.3094 137.158 26.3094C132.008 26.3094 128.145 30.4455 128.145 35.8693C128.145 41.4882 132.242 45.4682 137.002 45.4682C139.812 45.4682 142.309 44.0245 143.48 41.9174V45H147.304V26.7777H143.48ZM137.666 41.8784C134.466 41.8784 132.008 39.147 132.008 35.8693C132.008 32.6307 134.466 29.8993 137.588 29.8993C140.514 29.8993 143.441 32.3575 143.441 35.8693C143.441 39.3031 140.709 41.8784 137.666 41.8784ZM162.81 26.3094C160.859 26.3094 157.933 27.3239 156.879 29.5871V26.7777H153.055V45H156.879V35.206C156.879 31.421 159.767 30.0553 162.147 30.0553C164.488 30.0553 166.283 31.8503 166.283 34.8158V45H170.107V34.5817C170.146 29.392 167.414 26.3094 162.81 26.3094ZM184.595 26.7777H180.693V19.9492H176.869V26.7777H173.591V29.9773H176.869V45H180.693V29.9773H184.595V26.7777Z" fill="#314AA4"/>
</svg>
