<svg width="17" height="14" viewBox="0 0 17 14" fill="none" xmlns="http://www.w3.org/2000/svg">
<path d="M14.9269 2.16702C15.652 1.73354 16.1946 1.05097 16.4533 0.246756C15.7719 0.651048 15.0265 0.935832 14.2491 1.08879C13.7248 0.534189 13.0327 0.167421 12.2794 0.045025C11.5261 -0.0773712 10.7534 0.0513997 10.0805 0.411488C9.40759 0.771576 8.87181 1.34299 8.55573 2.03765C8.23965 2.73231 8.16081 3.51165 8.33139 4.25553C6.95136 4.18625 5.60132 3.82754 4.3689 3.20269C3.13648 2.57784 2.04923 1.70082 1.17772 0.628544C0.734508 1.39301 0.598885 2.29752 0.798396 3.15836C0.997906 4.0192 1.51759 4.77182 2.2519 5.26339C1.70082 5.24567 1.16197 5.09647 0.680262 4.82821V4.87189C0.680417 5.67346 0.957812 6.45031 1.4654 7.07068C1.973 7.69106 2.67954 8.11677 3.46521 8.27563C2.95406 8.4147 2.41789 8.43517 1.89762 8.33549C2.11984 9.02491 2.55176 9.62775 3.13309 10.0599C3.71443 10.492 4.41617 10.7318 5.14039 10.7459C3.91076 11.711 2.39222 12.2344 0.829095 12.2318C0.551651 12.2318 0.275017 12.2156 0 12.1841C1.58734 13.2041 3.43478 13.7455 5.32157 13.7436C6.62111 13.7525 7.90947 13.5031 9.11181 13.0099C10.3141 12.5167 11.4065 11.7895 12.3254 10.8705C13.2443 9.95154 13.9714 8.85913 14.4645 7.65676C14.9577 6.45438 15.2069 5.166 15.1979 3.86646C15.1979 3.71601 15.1947 3.56637 15.1874 3.41754C15.8672 2.92624 16.454 2.3176 16.92 1.62022C16.2867 1.90094 15.6149 2.08525 14.9269 2.16702V2.16702Z" fill="#FF811F"/>
</svg>
