<svg width="61" height="61" viewBox="0 0 61 61" fill="none" xmlns="http://www.w3.org/2000/svg">
<rect width="61" height="61" rx="30.5" fill="url(#paint0_linear_2213_3258)" fill-opacity="0.25"/>
<path d="M17.4505 40.3355C16.0152 40.3355 14.7197 40.0559 13.564 39.4967C12.4084 38.9189 11.4857 38.0521 10.796 36.8964C10.125 35.7408 9.78944 34.2775 9.78944 32.5067V20.428H13.3683V32.5347C13.3683 34.0632 13.7318 35.2002 14.4588 35.9458C15.2044 36.6914 16.2296 37.0642 17.5344 37.0642C18.8205 37.0642 19.8364 36.6914 20.582 35.9458C21.3276 35.2002 21.7004 34.0632 21.7004 32.5347V20.428H25.2793V32.5067C25.2793 34.2775 24.9251 35.7408 24.2168 36.8964C23.5085 38.0521 22.5578 38.9189 21.3649 39.4967C20.1906 40.0559 18.8858 40.3355 17.4505 40.3355ZM28.8788 40V26.1318H32.0662L32.4017 28.7321C32.905 27.8374 33.5854 27.1291 34.4428 26.6072C35.3189 26.0666 36.3441 25.7963 37.5184 25.7963V29.5709H36.5118C35.729 29.5709 35.03 29.6921 34.4148 29.9344C33.7997 30.1767 33.3151 30.5961 32.9609 31.1926C32.6254 31.7891 32.4576 32.6186 32.4576 33.681V40H28.8788ZM41.9237 23.9789C41.2713 23.9789 40.7307 23.7832 40.302 23.3918C39.8919 23.0003 39.6869 22.5064 39.6869 21.9099C39.6869 21.3134 39.8919 20.8288 40.302 20.456C40.7307 20.0645 41.2713 19.8688 41.9237 19.8688C42.5761 19.8688 43.1073 20.0645 43.5174 20.456C43.9461 20.8288 44.1605 21.3134 44.1605 21.9099C44.1605 22.5064 43.9461 23.0003 43.5174 23.3918C43.1073 23.7832 42.5761 23.9789 41.9237 23.9789ZM40.1343 40V26.1318H43.7131V40H40.1343Z" fill="url(#paint1_linear_2213_3258)"/>
<defs>
<linearGradient id="paint0_linear_2213_3258" x1="10.5" y1="2.5" x2="35.5" y2="56" gradientUnits="userSpaceOnUse">
<stop stop-color="#A09EFF"/>
<stop offset="0.498755" stop-color="#873AEA"/>
<stop offset="0.927083" stop-color="#873AEA" stop-opacity="0"/>
</linearGradient>
<linearGradient id="paint1_linear_2213_3258" x1="10.9556" y1="36.5938" x2="40.4999" y2="49.2811" gradientUnits="userSpaceOnUse">
<stop stop-color="#7C35D6"/>
<stop offset="1" stop-color="#CD57E8"/>
</linearGradient>
</defs>
</svg>
