<svg width="15" height="11" viewBox="0 0 15 11" fill="none" xmlns="http://www.w3.org/2000/svg">
<path d="M14.4422 1.61493C14.3582 1.30221 14.1936 1.01703 13.9648 0.787933C13.7359 0.558833 13.451 0.393847 13.1384 0.309487C11.9877 6.27978e-08 7.375 0 7.375 0C7.375 0 2.76233 -6.27978e-08 1.61163 0.30784C1.29889 0.391927 1.01377 0.556821 0.78492 0.785964C0.556067 1.01511 0.391532 1.30043 0.30784 1.61328C-6.27978e-08 2.76563 0 5.16909 0 5.16909C0 5.16909 -6.27978e-08 7.57255 0.30784 8.72324C0.4774 9.35868 0.977846 9.85913 1.61163 10.0287C2.76233 10.3382 7.375 10.3382 7.375 10.3382C7.375 10.3382 11.9877 10.3382 13.1384 10.0287C13.7738 9.85913 14.2726 9.35868 14.4422 8.72324C14.75 7.57255 14.75 5.16909 14.75 5.16909C14.75 5.16909 14.75 2.76563 14.4422 1.61493ZM5.90988 7.375V2.96317L9.72907 5.15262L5.90988 7.375Z" fill="#FF811F"/>
</svg>
